<svg width="77" height="38" viewBox="0 0 77 38" fill="none" xmlns="http://www.w3.org/2000/svg">
<path d="M5.29199 20.0811L1.67871 19.1533L3.46094 1.45312H21.6982V5.62793H7.29395L6.21973 15.2959C6.87077 14.9215 7.69271 14.5716 8.68555 14.2461C9.69466 13.9206 10.8503 13.7578 12.1523 13.7578C13.7962 13.7578 15.2692 14.0426 16.5713 14.6123C17.8734 15.1657 18.9801 15.9632 19.8916 17.0049C20.8193 18.0465 21.5273 19.2998 22.0156 20.7646C22.5039 22.2295 22.748 23.8652 22.748 25.6719C22.748 27.3809 22.512 28.9515 22.04 30.3838C21.5843 31.8161 20.8926 33.0693 19.9648 34.1436C19.0371 35.2015 17.8652 36.0234 16.4492 36.6094C15.0495 37.1953 13.3975 37.4883 11.4932 37.4883C10.0609 37.4883 8.70182 37.293 7.41602 36.9023C6.14648 36.4954 5.00716 35.8851 3.99805 35.0713C3.00521 34.2412 2.19141 33.2158 1.55664 31.9951C0.938151 30.7581 0.547526 29.3096 0.384766 27.6494H4.68164C4.87695 28.984 5.26758 30.1071 5.85352 31.0186C6.43945 31.93 7.20443 32.6217 8.14844 33.0938C9.10872 33.5495 10.2236 33.7773 11.4932 33.7773C12.5674 33.7773 13.5195 33.5902 14.3496 33.2158C15.1797 32.8415 15.8796 32.3044 16.4492 31.6045C17.0189 30.9046 17.4502 30.0583 17.7432 29.0654C18.0524 28.0726 18.207 26.9577 18.207 25.7207C18.207 24.5977 18.0524 23.556 17.7432 22.5957C17.4339 21.6354 16.9701 20.7972 16.3516 20.0811C15.7493 19.3649 15.0088 18.8115 14.1299 18.4209C13.251 18.014 12.2419 17.8105 11.1025 17.8105C9.58887 17.8105 8.44141 18.014 7.66016 18.4209C6.89518 18.8278 6.10579 19.3812 5.29199 20.0811ZM49.1162 27.3809C49.1162 29.5456 48.6117 31.3848 47.6025 32.8984C46.6097 34.3958 45.2588 35.5352 43.5498 36.3164C41.8571 37.0977 39.9447 37.4883 37.8125 37.4883C35.6803 37.4883 33.7598 37.0977 32.0508 36.3164C30.3418 35.5352 28.9909 34.3958 27.998 32.8984C27.0052 31.3848 26.5088 29.5456 26.5088 27.3809C26.5088 25.9648 26.7773 24.6709 27.3145 23.499C27.8678 22.3109 28.641 21.2773 29.6338 20.3984C30.6429 19.5195 31.8311 18.8441 33.1982 18.3721C34.5817 17.8838 36.1035 17.6396 37.7637 17.6396C39.9447 17.6396 41.8896 18.0628 43.5986 18.9092C45.3076 19.7393 46.6504 20.8867 47.627 22.3516C48.6198 23.8164 49.1162 25.4928 49.1162 27.3809ZM44.5752 27.2832C44.5752 25.9648 44.2904 24.8011 43.7207 23.792C43.151 22.7666 42.3535 21.9691 41.3281 21.3994C40.3027 20.8298 39.1146 20.5449 37.7637 20.5449C36.3802 20.5449 35.1839 20.8298 34.1748 21.3994C33.182 21.9691 32.4089 22.7666 31.8555 23.792C31.3021 24.8011 31.0254 25.9648 31.0254 27.2832C31.0254 28.6504 31.2939 29.8223 31.8311 30.7988C32.3844 31.7591 33.1657 32.4997 34.1748 33.0205C35.2002 33.5251 36.4128 33.7773 37.8125 33.7773C39.2122 33.7773 40.4167 33.5251 41.4258 33.0205C42.4349 32.4997 43.208 31.7591 43.7451 30.7988C44.2985 29.8223 44.5752 28.6504 44.5752 27.2832ZM48.2861 10.7061C48.2861 12.4313 47.8304 13.9857 46.9189 15.3691C46.0075 16.7526 44.7624 17.8431 43.1836 18.6406C41.6048 19.4382 39.8145 19.8369 37.8125 19.8369C35.778 19.8369 33.9632 19.4382 32.3682 18.6406C30.7894 17.8431 29.5524 16.7526 28.6572 15.3691C27.762 13.9857 27.3145 12.4313 27.3145 10.7061C27.3145 8.639 27.762 6.88118 28.6572 5.43262C29.5687 3.98405 30.8138 2.87728 32.3926 2.1123C33.9714 1.34733 35.7699 0.964844 37.7881 0.964844C39.8226 0.964844 41.6292 1.34733 43.208 2.1123C44.7868 2.87728 46.0238 3.98405 46.9189 5.43262C47.8304 6.88118 48.2861 8.639 48.2861 10.7061ZM43.7695 10.7793C43.7695 9.59115 43.5173 8.54134 43.0127 7.62988C42.5081 6.71842 41.8083 6.00228 40.9131 5.48145C40.0179 4.94434 38.9762 4.67578 37.7881 4.67578C36.5999 4.67578 35.5583 4.92806 34.6631 5.43262C33.7842 5.9209 33.0924 6.62077 32.5879 7.53223C32.0996 8.44368 31.8555 9.52604 31.8555 10.7793C31.8555 12 32.0996 13.0661 32.5879 13.9775C33.0924 14.889 33.7923 15.597 34.6875 16.1016C35.5827 16.6061 36.6243 16.8584 37.8125 16.8584C39.0007 16.8584 40.0342 16.6061 40.9131 16.1016C41.8083 15.597 42.5081 14.889 43.0127 13.9775C43.5173 13.0661 43.7695 12 43.7695 10.7793ZM76.2412 27.3809C76.2412 29.5456 75.7367 31.3848 74.7275 32.8984C73.7347 34.3958 72.3838 35.5352 70.6748 36.3164C68.9821 37.0977 67.0697 37.4883 64.9375 37.4883C62.8053 37.4883 60.8848 37.0977 59.1758 36.3164C57.4668 35.5352 56.1159 34.3958 55.123 32.8984C54.1302 31.3848 53.6338 29.5456 53.6338 27.3809C53.6338 25.9648 53.9023 24.6709 54.4395 23.499C54.9928 22.3109 55.766 21.2773 56.7588 20.3984C57.7679 19.5195 58.9561 18.8441 60.3232 18.3721C61.7067 17.8838 63.2285 17.6396 64.8887 17.6396C67.0697 17.6396 69.0146 18.0628 70.7236 18.9092C72.4326 19.7393 73.7754 20.8867 74.752 22.3516C75.7448 23.8164 76.2412 25.4928 76.2412 27.3809ZM71.7002 27.2832C71.7002 25.9648 71.4154 24.8011 70.8457 23.792C70.276 22.7666 69.4785 21.9691 68.4531 21.3994C67.4277 20.8298 66.2396 20.5449 64.8887 20.5449C63.5052 20.5449 62.3089 20.8298 61.2998 21.3994C60.307 21.9691 59.5339 22.7666 58.9805 23.792C58.4271 24.8011 58.1504 25.9648 58.1504 27.2832C58.1504 28.6504 58.4189 29.8223 58.9561 30.7988C59.5094 31.7591 60.2907 32.4997 61.2998 33.0205C62.3252 33.5251 63.5378 33.7773 64.9375 33.7773C66.3372 33.7773 67.5417 33.5251 68.5508 33.0205C69.5599 32.4997 70.333 31.7591 70.8701 30.7988C71.4235 29.8223 71.7002 28.6504 71.7002 27.2832ZM75.4111 10.7061C75.4111 12.4313 74.9554 13.9857 74.0439 15.3691C73.1325 16.7526 71.8874 17.8431 70.3086 18.6406C68.7298 19.4382 66.9395 19.8369 64.9375 19.8369C62.903 19.8369 61.0882 19.4382 59.4932 18.6406C57.9144 17.8431 56.6774 16.7526 55.7822 15.3691C54.887 13.9857 54.4395 12.4313 54.4395 10.7061C54.4395 8.639 54.887 6.88118 55.7822 5.43262C56.6937 3.98405 57.9388 2.87728 59.5176 2.1123C61.0964 1.34733 62.8949 0.964844 64.9131 0.964844C66.9476 0.964844 68.7542 1.34733 70.333 2.1123C71.9118 2.87728 73.1488 3.98405 74.0439 5.43262C74.9554 6.88118 75.4111 8.639 75.4111 10.7061ZM70.8945 10.7793C70.8945 9.59115 70.6423 8.54134 70.1377 7.62988C69.6331 6.71842 68.9333 6.00228 68.0381 5.48145C67.1429 4.94434 66.1012 4.67578 64.9131 4.67578C63.7249 4.67578 62.6833 4.92806 61.7881 5.43262C60.9092 5.9209 60.2174 6.62077 59.7129 7.53223C59.2246 8.44368 58.9805 9.52604 58.9805 10.7793C58.9805 12 59.2246 13.0661 59.7129 13.9775C60.2174 14.889 60.9173 15.597 61.8125 16.1016C62.7077 16.6061 63.7493 16.8584 64.9375 16.8584C66.1257 16.8584 67.1592 16.6061 68.0381 16.1016C68.9333 15.597 69.6331 14.889 70.1377 13.9775C70.6423 13.0661 70.8945 12 70.8945 10.7793Z" fill="black"/>
</svg>
