<svg width="98" height="15" viewBox="0 0 98 15" fill="none" xmlns="http://www.w3.org/2000/svg">
<path d="M6.46094 2.33691L2.22461 14H0.493164L5.37109 1.20312H6.4873L6.46094 2.33691ZM10.0117 14L5.7666 2.33691L5.74023 1.20312H6.85645L11.752 14H10.0117ZM9.79199 9.2627V10.6514H2.60254V9.2627H9.79199ZM14.8457 5.98438V14H13.2197V4.49023H14.8018L14.8457 5.98438ZM17.8164 4.4375L17.8076 5.94922C17.6729 5.91992 17.5439 5.90234 17.4209 5.89648C17.3037 5.88477 17.1689 5.87891 17.0166 5.87891C16.6416 5.87891 16.3105 5.9375 16.0234 6.05469C15.7363 6.17188 15.4932 6.33594 15.2939 6.54688C15.0947 6.75781 14.9365 7.00977 14.8193 7.30273C14.708 7.58984 14.6348 7.90625 14.5996 8.25195L14.1426 8.51562C14.1426 7.94141 14.1982 7.40234 14.3096 6.89844C14.4268 6.39453 14.6055 5.94922 14.8457 5.5625C15.0859 5.16992 15.3906 4.86523 15.7598 4.64844C16.1348 4.42578 16.5801 4.31445 17.0957 4.31445C17.2129 4.31445 17.3477 4.3291 17.5 4.3584C17.6523 4.38184 17.7578 4.4082 17.8164 4.4375ZM22.9492 12.8398C23.3359 12.8398 23.6934 12.7607 24.0215 12.6025C24.3496 12.4443 24.6191 12.2275 24.8301 11.9521C25.041 11.6709 25.1611 11.3516 25.1904 10.9941H26.7373C26.708 11.5566 26.5176 12.0811 26.166 12.5674C25.8203 13.0479 25.3662 13.4375 24.8037 13.7363C24.2412 14.0293 23.623 14.1758 22.9492 14.1758C22.2344 14.1758 21.6104 14.0498 21.0771 13.7979C20.5498 13.5459 20.1104 13.2002 19.7588 12.7607C19.4131 12.3213 19.1523 11.8174 18.9766 11.249C18.8066 10.6748 18.7217 10.0684 18.7217 9.42969V9.06055C18.7217 8.42188 18.8066 7.81836 18.9766 7.25C19.1523 6.67578 19.4131 6.16895 19.7588 5.72949C20.1104 5.29004 20.5498 4.94434 21.0771 4.69238C21.6104 4.44043 22.2344 4.31445 22.9492 4.31445C23.6934 4.31445 24.3438 4.4668 24.9004 4.77148C25.457 5.07031 25.8936 5.48047 26.21 6.00195C26.5322 6.51758 26.708 7.10352 26.7373 7.75977H25.1904C25.1611 7.36719 25.0498 7.0127 24.8564 6.69629C24.6689 6.37988 24.4111 6.12793 24.083 5.94043C23.7607 5.74707 23.3828 5.65039 22.9492 5.65039C22.4512 5.65039 22.0322 5.75 21.6924 5.94922C21.3584 6.14258 21.0918 6.40625 20.8926 6.74023C20.6992 7.06836 20.5586 7.43457 20.4707 7.83887C20.3887 8.2373 20.3477 8.64453 20.3477 9.06055V9.42969C20.3477 9.8457 20.3887 10.2559 20.4707 10.6602C20.5527 11.0645 20.6904 11.4307 20.8838 11.7588C21.083 12.0869 21.3496 12.3506 21.6836 12.5498C22.0234 12.7432 22.4453 12.8398 22.9492 12.8398ZM30.1914 0.5V14H28.5654V0.5H30.1914ZM29.8047 8.88477L29.1279 8.8584C29.1338 8.20801 29.2305 7.60742 29.418 7.05664C29.6055 6.5 29.8691 6.0166 30.209 5.60645C30.5488 5.19629 30.9531 4.87988 31.4219 4.65723C31.8965 4.42871 32.4209 4.31445 32.9951 4.31445C33.4639 4.31445 33.8857 4.37891 34.2607 4.50781C34.6357 4.63086 34.9551 4.83008 35.2188 5.10547C35.4883 5.38086 35.6934 5.73828 35.834 6.17773C35.9746 6.61133 36.0449 7.1416 36.0449 7.76855V14H34.4102V7.75098C34.4102 7.25293 34.3369 6.85449 34.1904 6.55566C34.0439 6.25098 33.8301 6.03125 33.5488 5.89648C33.2676 5.75586 32.9219 5.68555 32.5117 5.68555C32.1074 5.68555 31.7383 5.77051 31.4043 5.94043C31.0762 6.11035 30.792 6.34473 30.5518 6.64355C30.3174 6.94238 30.1328 7.28516 29.998 7.67188C29.8691 8.05273 29.8047 8.45703 29.8047 8.88477ZM40.2461 4.49023V14H38.6113V4.49023H40.2461ZM38.4883 1.96777C38.4883 1.7041 38.5674 1.48145 38.7256 1.2998C38.8896 1.11816 39.1299 1.02734 39.4463 1.02734C39.7568 1.02734 39.9941 1.11816 40.1582 1.2998C40.3281 1.48145 40.4131 1.7041 40.4131 1.96777C40.4131 2.21973 40.3281 2.43652 40.1582 2.61816C39.9941 2.79395 39.7568 2.88184 39.4463 2.88184C39.1299 2.88184 38.8896 2.79395 38.7256 2.61816C38.5674 2.43652 38.4883 2.21973 38.4883 1.96777ZM46.8379 4.49023V5.73828H41.6963V4.49023H46.8379ZM43.4365 2.17871H45.0625V11.6445C45.0625 11.9668 45.1123 12.21 45.2119 12.374C45.3115 12.5381 45.4404 12.6465 45.5986 12.6992C45.7568 12.752 45.9268 12.7783 46.1084 12.7783C46.2432 12.7783 46.3838 12.7666 46.5303 12.7432C46.6826 12.7139 46.7969 12.6904 46.873 12.6729L46.8818 14C46.7529 14.041 46.583 14.0791 46.3721 14.1143C46.167 14.1553 45.918 14.1758 45.625 14.1758C45.2266 14.1758 44.8604 14.0967 44.5264 13.9385C44.1924 13.7803 43.9258 13.5166 43.7266 13.1475C43.5332 12.7725 43.4365 12.2686 43.4365 11.6357V2.17871ZM52.6914 14.1758C52.0293 14.1758 51.4287 14.0645 50.8896 13.8418C50.3564 13.6133 49.8965 13.2939 49.5098 12.8838C49.1289 12.4736 48.8359 11.9873 48.6309 11.4248C48.4258 10.8623 48.3232 10.2471 48.3232 9.5791V9.20996C48.3232 8.43652 48.4375 7.74805 48.666 7.14453C48.8945 6.53516 49.2051 6.01953 49.5977 5.59766C49.9902 5.17578 50.4355 4.85645 50.9336 4.63965C51.4316 4.42285 51.9473 4.31445 52.4805 4.31445C53.1602 4.31445 53.7461 4.43164 54.2383 4.66602C54.7363 4.90039 55.1436 5.22852 55.46 5.65039C55.7764 6.06641 56.0107 6.55859 56.1631 7.12695C56.3154 7.68945 56.3916 8.30469 56.3916 8.97266V9.70215H49.29V8.375H54.7656V8.25195C54.7422 7.83008 54.6543 7.41992 54.502 7.02148C54.3555 6.62305 54.1211 6.29492 53.7988 6.03711C53.4766 5.7793 53.0371 5.65039 52.4805 5.65039C52.1113 5.65039 51.7715 5.72949 51.4609 5.8877C51.1504 6.04004 50.8838 6.26855 50.6611 6.57324C50.4385 6.87793 50.2656 7.25 50.1426 7.68945C50.0195 8.12891 49.958 8.63574 49.958 9.20996V9.5791C49.958 10.0303 50.0195 10.4551 50.1426 10.8535C50.2715 11.2461 50.4561 11.5918 50.6963 11.8906C50.9424 12.1895 51.2383 12.4238 51.584 12.5938C51.9355 12.7637 52.334 12.8486 52.7793 12.8486C53.3535 12.8486 53.8398 12.7314 54.2383 12.4971C54.6367 12.2627 54.9854 11.9492 55.2842 11.5566L56.2686 12.3389C56.0635 12.6494 55.8027 12.9453 55.4863 13.2266C55.1699 13.5078 54.7803 13.7363 54.3174 13.9121C53.8604 14.0879 53.3184 14.1758 52.6914 14.1758ZM62.0957 12.8398C62.4824 12.8398 62.8398 12.7607 63.168 12.6025C63.4961 12.4443 63.7656 12.2275 63.9766 11.9521C64.1875 11.6709 64.3076 11.3516 64.3369 10.9941H65.8838C65.8545 11.5566 65.6641 12.0811 65.3125 12.5674C64.9668 13.0479 64.5127 13.4375 63.9502 13.7363C63.3877 14.0293 62.7695 14.1758 62.0957 14.1758C61.3809 14.1758 60.7568 14.0498 60.2236 13.7979C59.6963 13.5459 59.2568 13.2002 58.9053 12.7607C58.5596 12.3213 58.2988 11.8174 58.123 11.249C57.9531 10.6748 57.8682 10.0684 57.8682 9.42969V9.06055C57.8682 8.42188 57.9531 7.81836 58.123 7.25C58.2988 6.67578 58.5596 6.16895 58.9053 5.72949C59.2568 5.29004 59.6963 4.94434 60.2236 4.69238C60.7568 4.44043 61.3809 4.31445 62.0957 4.31445C62.8398 4.31445 63.4902 4.4668 64.0469 4.77148C64.6035 5.07031 65.04 5.48047 65.3564 6.00195C65.6787 6.51758 65.8545 7.10352 65.8838 7.75977H64.3369C64.3076 7.36719 64.1963 7.0127 64.0029 6.69629C63.8154 6.37988 63.5576 6.12793 63.2295 5.94043C62.9072 5.74707 62.5293 5.65039 62.0957 5.65039C61.5977 5.65039 61.1787 5.75 60.8389 5.94922C60.5049 6.14258 60.2383 6.40625 60.0391 6.74023C59.8457 7.06836 59.7051 7.43457 59.6172 7.83887C59.5352 8.2373 59.4941 8.64453 59.4941 9.06055V9.42969C59.4941 9.8457 59.5352 10.2559 59.6172 10.6602C59.6992 11.0645 59.8369 11.4307 60.0303 11.7588C60.2295 12.0869 60.4961 12.3506 60.8301 12.5498C61.1699 12.7432 61.5918 12.8398 62.0957 12.8398ZM71.6934 4.49023V5.73828H66.5518V4.49023H71.6934ZM68.292 2.17871H69.918V11.6445C69.918 11.9668 69.9678 12.21 70.0674 12.374C70.167 12.5381 70.2959 12.6465 70.4541 12.6992C70.6123 12.752 70.7822 12.7783 70.9639 12.7783C71.0986 12.7783 71.2393 12.7666 71.3857 12.7432C71.5381 12.7139 71.6523 12.6904 71.7285 12.6729L71.7373 14C71.6084 14.041 71.4385 14.0791 71.2275 14.1143C71.0225 14.1553 70.7734 14.1758 70.4805 14.1758C70.082 14.1758 69.7158 14.0967 69.3818 13.9385C69.0479 13.7803 68.7812 13.5166 68.582 13.1475C68.3887 12.7725 68.292 12.2686 68.292 11.6357V2.17871ZM79.4189 11.8027V4.49023H81.0537V14H79.498L79.4189 11.8027ZM79.7266 9.79883L80.4033 9.78125C80.4033 10.4141 80.3359 11 80.2012 11.5391C80.0723 12.0723 79.8613 12.5352 79.5684 12.9277C79.2754 13.3203 78.8916 13.6279 78.417 13.8506C77.9424 14.0674 77.3652 14.1758 76.6855 14.1758C76.2227 14.1758 75.7979 14.1084 75.4111 13.9736C75.0303 13.8389 74.7021 13.6309 74.4268 13.3496C74.1514 13.0684 73.9375 12.7021 73.7852 12.251C73.6387 11.7998 73.5654 11.2578 73.5654 10.625V4.49023H75.1914V10.6426C75.1914 11.0703 75.2383 11.4248 75.332 11.7061C75.4316 11.9814 75.5635 12.2012 75.7275 12.3652C75.8975 12.5234 76.085 12.6348 76.29 12.6992C76.501 12.7637 76.7178 12.7959 76.9404 12.7959C77.6318 12.7959 78.1797 12.6641 78.584 12.4004C78.9883 12.1309 79.2783 11.7705 79.4541 11.3193C79.6357 10.8623 79.7266 10.3555 79.7266 9.79883ZM85.1582 5.98438V14H83.5322V4.49023H85.1143L85.1582 5.98438ZM88.1289 4.4375L88.1201 5.94922C87.9854 5.91992 87.8564 5.90234 87.7334 5.89648C87.6162 5.88477 87.4814 5.87891 87.3291 5.87891C86.9541 5.87891 86.623 5.9375 86.3359 6.05469C86.0488 6.17188 85.8057 6.33594 85.6064 6.54688C85.4072 6.75781 85.249 7.00977 85.1318 7.30273C85.0205 7.58984 84.9473 7.90625 84.9121 8.25195L84.4551 8.51562C84.4551 7.94141 84.5107 7.40234 84.6221 6.89844C84.7393 6.39453 84.918 5.94922 85.1582 5.5625C85.3984 5.16992 85.7031 4.86523 86.0723 4.64844C86.4473 4.42578 86.8926 4.31445 87.4082 4.31445C87.5254 4.31445 87.6602 4.3291 87.8125 4.3584C87.9648 4.38184 88.0703 4.4082 88.1289 4.4375ZM93.4023 14.1758C92.7402 14.1758 92.1396 14.0645 91.6006 13.8418C91.0674 13.6133 90.6074 13.2939 90.2207 12.8838C89.8398 12.4736 89.5469 11.9873 89.3418 11.4248C89.1367 10.8623 89.0342 10.2471 89.0342 9.5791V9.20996C89.0342 8.43652 89.1484 7.74805 89.377 7.14453C89.6055 6.53516 89.916 6.01953 90.3086 5.59766C90.7012 5.17578 91.1465 4.85645 91.6445 4.63965C92.1426 4.42285 92.6582 4.31445 93.1914 4.31445C93.8711 4.31445 94.457 4.43164 94.9492 4.66602C95.4473 4.90039 95.8545 5.22852 96.1709 5.65039C96.4873 6.06641 96.7217 6.55859 96.874 7.12695C97.0264 7.68945 97.1025 8.30469 97.1025 8.97266V9.70215H90.001V8.375H95.4766V8.25195C95.4531 7.83008 95.3652 7.41992 95.2129 7.02148C95.0664 6.62305 94.832 6.29492 94.5098 6.03711C94.1875 5.7793 93.748 5.65039 93.1914 5.65039C92.8223 5.65039 92.4824 5.72949 92.1719 5.8877C91.8613 6.04004 91.5947 6.26855 91.3721 6.57324C91.1494 6.87793 90.9766 7.25 90.8535 7.68945C90.7305 8.12891 90.6689 8.63574 90.6689 9.20996V9.5791C90.6689 10.0303 90.7305 10.4551 90.8535 10.8535C90.9824 11.2461 91.167 11.5918 91.4072 11.8906C91.6533 12.1895 91.9492 12.4238 92.2949 12.5938C92.6465 12.7637 93.0449 12.8486 93.4902 12.8486C94.0645 12.8486 94.5508 12.7314 94.9492 12.4971C95.3477 12.2627 95.6963 11.9492 95.9951 11.5566L96.9795 12.3389C96.7744 12.6494 96.5137 12.9453 96.1973 13.2266C95.8809 13.5078 95.4912 13.7363 95.0283 13.9121C94.5713 14.0879 94.0293 14.1758 93.4023 14.1758Z" fill="black"/>
</svg>
