<svg width="72" height="15" viewBox="0 0 72 15" fill="none" xmlns="http://www.w3.org/2000/svg">
<path d="M6.47656 2.33691L2.24023 14H0.508789L5.38672 1.20312H6.50293L6.47656 2.33691ZM10.0273 14L5.78223 2.33691L5.75586 1.20312H6.87207L11.7676 14H10.0273ZM9.80762 9.2627V10.6514H2.61816V9.2627H9.80762ZM14.8613 5.98438V14H13.2354V4.49023H14.8174L14.8613 5.98438ZM17.832 4.4375L17.8232 5.94922C17.6885 5.91992 17.5596 5.90234 17.4365 5.89648C17.3193 5.88477 17.1846 5.87891 17.0322 5.87891C16.6572 5.87891 16.3262 5.9375 16.0391 6.05469C15.752 6.17188 15.5088 6.33594 15.3096 6.54688C15.1104 6.75781 14.9521 7.00977 14.835 7.30273C14.7236 7.58984 14.6504 7.90625 14.6152 8.25195L14.1582 8.51562C14.1582 7.94141 14.2139 7.40234 14.3252 6.89844C14.4424 6.39453 14.6211 5.94922 14.8613 5.5625C15.1016 5.16992 15.4062 4.86523 15.7754 4.64844C16.1504 4.42578 16.5957 4.31445 17.1113 4.31445C17.2285 4.31445 17.3633 4.3291 17.5156 4.3584C17.668 4.38184 17.7734 4.4082 17.832 4.4375ZM23.7559 4.49023V5.73828H18.6143V4.49023H23.7559ZM20.3545 2.17871H21.9805V11.6445C21.9805 11.9668 22.0303 12.21 22.1299 12.374C22.2295 12.5381 22.3584 12.6465 22.5166 12.6992C22.6748 12.752 22.8447 12.7783 23.0264 12.7783C23.1611 12.7783 23.3018 12.7666 23.4482 12.7432C23.6006 12.7139 23.7148 12.6904 23.791 12.6729L23.7998 14C23.6709 14.041 23.501 14.0791 23.29 14.1143C23.085 14.1553 22.8359 14.1758 22.543 14.1758C22.1445 14.1758 21.7783 14.0967 21.4443 13.9385C21.1104 13.7803 20.8438 13.5166 20.6445 13.1475C20.4512 12.7725 20.3545 12.2686 20.3545 11.6357V2.17871ZM28.0713 12.3125L30.5146 4.49023H31.5869L31.376 6.0459L28.8887 14H27.8428L28.0713 12.3125ZM26.4277 4.49023L28.5107 12.4004L28.6602 14H27.5615L24.8018 4.49023H26.4277ZM33.9248 12.3389L35.9111 4.49023H37.5283L34.7686 14H33.6787L33.9248 12.3389ZM31.8242 4.49023L34.2148 12.1807L34.4873 14H33.4502L30.8926 6.02832L30.6816 4.49023H31.8242ZM38.7676 9.35059V9.14844C38.7676 8.46289 38.8672 7.82715 39.0664 7.24121C39.2656 6.64941 39.5527 6.13672 39.9277 5.70312C40.3027 5.26367 40.7568 4.92383 41.29 4.68359C41.8232 4.4375 42.4209 4.31445 43.083 4.31445C43.751 4.31445 44.3516 4.4375 44.8848 4.68359C45.4238 4.92383 45.8809 5.26367 46.2559 5.70312C46.6367 6.13672 46.9268 6.64941 47.126 7.24121C47.3252 7.82715 47.4248 8.46289 47.4248 9.14844V9.35059C47.4248 10.0361 47.3252 10.6719 47.126 11.2578C46.9268 11.8438 46.6367 12.3564 46.2559 12.7959C45.8809 13.2295 45.4268 13.5693 44.8936 13.8154C44.3662 14.0557 43.7686 14.1758 43.1006 14.1758C42.4326 14.1758 41.832 14.0557 41.2988 13.8154C40.7656 13.5693 40.3086 13.2295 39.9277 12.7959C39.5527 12.3564 39.2656 11.8438 39.0664 11.2578C38.8672 10.6719 38.7676 10.0361 38.7676 9.35059ZM40.3936 9.14844V9.35059C40.3936 9.8252 40.4492 10.2734 40.5605 10.6953C40.6719 11.1113 40.8389 11.4805 41.0615 11.8027C41.29 12.125 41.5742 12.3799 41.9141 12.5674C42.2539 12.749 42.6494 12.8398 43.1006 12.8398C43.5459 12.8398 43.9355 12.749 44.2695 12.5674C44.6094 12.3799 44.8906 12.125 45.1133 11.8027C45.3359 11.4805 45.5029 11.1113 45.6143 10.6953C45.7314 10.2734 45.79 9.8252 45.79 9.35059V9.14844C45.79 8.67969 45.7314 8.2373 45.6143 7.82129C45.5029 7.39941 45.333 7.02734 45.1045 6.70508C44.8818 6.37695 44.6006 6.11914 44.2607 5.93164C43.9268 5.74414 43.5342 5.65039 43.083 5.65039C42.6377 5.65039 42.2451 5.74414 41.9053 5.93164C41.5713 6.11914 41.29 6.37695 41.0615 6.70508C40.8389 7.02734 40.6719 7.39941 40.5605 7.82129C40.4492 8.2373 40.3936 8.67969 40.3936 9.14844ZM51.0898 5.98438V14H49.4639V4.49023H51.0459L51.0898 5.98438ZM54.0605 4.4375L54.0518 5.94922C53.917 5.91992 53.7881 5.90234 53.665 5.89648C53.5479 5.88477 53.4131 5.87891 53.2607 5.87891C52.8857 5.87891 52.5547 5.9375 52.2676 6.05469C51.9805 6.17188 51.7373 6.33594 51.5381 6.54688C51.3389 6.75781 51.1807 7.00977 51.0635 7.30273C50.9521 7.58984 50.8789 7.90625 50.8438 8.25195L50.3867 8.51562C50.3867 7.94141 50.4424 7.40234 50.5537 6.89844C50.6709 6.39453 50.8496 5.94922 51.0898 5.5625C51.3301 5.16992 51.6348 4.86523 52.0039 4.64844C52.3789 4.42578 52.8242 4.31445 53.3398 4.31445C53.457 4.31445 53.5918 4.3291 53.7441 4.3584C53.8965 4.38184 54.002 4.4082 54.0605 4.4375ZM57.1982 0.5V14H55.5635V0.5H57.1982ZM63.0078 4.49023L58.8594 8.92871L56.5391 11.3369L56.4072 9.60547L58.0684 7.61914L61.0215 4.49023H63.0078ZM61.5225 14L58.1299 9.46484L58.9736 8.01465L63.4385 14H61.5225ZM70.2236 11.4775C70.2236 11.2432 70.1709 11.0264 70.0654 10.8271C69.9658 10.6221 69.7578 10.4375 69.4414 10.2734C69.1309 10.1035 68.6621 9.95703 68.0352 9.83398C67.5078 9.72266 67.0303 9.59082 66.6025 9.43848C66.1807 9.28613 65.8203 9.10156 65.5215 8.88477C65.2285 8.66797 65.0029 8.41309 64.8447 8.12012C64.6865 7.82715 64.6074 7.48438 64.6074 7.0918C64.6074 6.7168 64.6895 6.3623 64.8535 6.02832C65.0234 5.69434 65.2607 5.39844 65.5654 5.14062C65.876 4.88281 66.248 4.68066 66.6816 4.53418C67.1152 4.3877 67.5986 4.31445 68.1318 4.31445C68.8936 4.31445 69.5439 4.44922 70.083 4.71875C70.6221 4.98828 71.0352 5.34863 71.3223 5.7998C71.6094 6.24512 71.7529 6.74023 71.7529 7.28516H70.127C70.127 7.02148 70.0479 6.7666 69.8896 6.52051C69.7373 6.26855 69.5117 6.06055 69.2129 5.89648C68.9199 5.73242 68.5596 5.65039 68.1318 5.65039C67.6807 5.65039 67.3145 5.7207 67.0332 5.86133C66.7578 5.99609 66.5557 6.16895 66.4268 6.37988C66.3037 6.59082 66.2422 6.81348 66.2422 7.04785C66.2422 7.22363 66.2715 7.38184 66.3301 7.52246C66.3945 7.65723 66.5059 7.7832 66.6641 7.90039C66.8223 8.01172 67.0449 8.11719 67.332 8.2168C67.6191 8.31641 67.9854 8.41602 68.4307 8.51562C69.21 8.69141 69.8516 8.90234 70.3555 9.14844C70.8594 9.39453 71.2344 9.69629 71.4805 10.0537C71.7266 10.4111 71.8496 10.8447 71.8496 11.3545C71.8496 11.7705 71.7617 12.1514 71.5859 12.4971C71.416 12.8428 71.167 13.1416 70.8389 13.3936C70.5166 13.6396 70.1299 13.833 69.6787 13.9736C69.2334 14.1084 68.7324 14.1758 68.1758 14.1758C67.3379 14.1758 66.6289 14.0264 66.0488 13.7275C65.4688 13.4287 65.0293 13.042 64.7305 12.5674C64.4316 12.0928 64.2822 11.5918 64.2822 11.0645H65.917C65.9404 11.5098 66.0693 11.8643 66.3037 12.1279C66.5381 12.3857 66.8252 12.5703 67.165 12.6816C67.5049 12.7871 67.8418 12.8398 68.1758 12.8398C68.6211 12.8398 68.9932 12.7812 69.292 12.6641C69.5967 12.5469 69.8281 12.3857 69.9863 12.1807C70.1445 11.9756 70.2236 11.7412 70.2236 11.4775Z" fill="black"/>
</svg>
