<svg width="185" height="33" viewBox="0 0 185 33" fill="none" xmlns="http://www.w3.org/2000/svg">
<rect width="184.001" height="33" transform="translate(0.00140381)" fill="#F6F6F6"/>
<path fill-rule="evenodd" clip-rule="evenodd" d="M13.2949 16.5L10.0014 19.7935L10.7085 20.5006L14.002 17.2071L17.2956 20.5006L18.0027 19.7935L14.7091 16.5L18.0026 13.2066L17.2954 12.4995L14.002 15.7929L10.7086 12.4995L10.0015 13.2066L13.2949 16.5Z" fill="black"/>
<path d="M30.8427 11.9287L27.5477 21H26.201L29.995 11.0469H30.8632L30.8427 11.9287ZM33.6044 21L30.3026 11.9287L30.2821 11.0469H31.1503L34.9579 21H33.6044ZM33.4335 17.3154V18.3955H27.8417V17.3154H33.4335ZM36.0927 10.5H37.3641V19.5645L37.2548 21H36.0927V10.5ZM42.3612 17.2402V17.3838C42.3612 17.9215 42.2974 18.4206 42.1698 18.8809C42.0422 19.3366 41.8553 19.7331 41.6093 20.0703C41.3632 20.4076 41.0624 20.6696 40.7069 20.8564C40.3514 21.0433 39.9436 21.1367 39.4833 21.1367C39.0139 21.1367 38.6014 21.057 38.246 20.8975C37.8951 20.7334 37.5988 20.4987 37.3573 20.1934C37.1158 19.888 36.9221 19.5189 36.7762 19.0859C36.635 18.653 36.537 18.1654 36.4823 17.623V16.9941C36.537 16.4473 36.635 15.9574 36.7762 15.5244C36.9221 15.0915 37.1158 14.7223 37.3573 14.417C37.5988 14.1071 37.8951 13.8724 38.246 13.7129C38.5969 13.5488 39.0048 13.4668 39.4696 13.4668C39.9344 13.4668 40.3469 13.5579 40.7069 13.7402C41.0669 13.918 41.3677 14.1732 41.6093 14.5059C41.8553 14.8385 42.0422 15.2373 42.1698 15.7021C42.2974 16.1624 42.3612 16.6751 42.3612 17.2402ZM41.0897 17.3838V17.2402C41.0897 16.8711 41.0555 16.5247 40.9872 16.2012C40.9188 15.873 40.8094 15.5859 40.6591 15.3398C40.5087 15.0892 40.3104 14.8932 40.0643 14.752C39.8182 14.6061 39.5152 14.5332 39.1552 14.5332C38.8361 14.5332 38.5581 14.5879 38.3212 14.6973C38.0887 14.8066 37.8905 14.9548 37.7264 15.1416C37.5624 15.3239 37.4279 15.5335 37.3231 15.7705C37.2229 16.0029 37.1477 16.2445 37.0975 16.4951V18.1426C37.1705 18.4616 37.2889 18.7692 37.453 19.0654C37.6216 19.3571 37.8449 19.5964 38.1229 19.7832C38.4055 19.9701 38.7541 20.0635 39.1688 20.0635C39.5106 20.0635 39.8023 19.9951 40.0438 19.8584C40.2899 19.7171 40.4882 19.5234 40.6385 19.2773C40.7935 19.0312 40.9074 18.7464 40.9803 18.4229C41.0533 18.0993 41.0897 17.7529 41.0897 17.3838ZM48.2675 19.0381C48.2675 18.8558 48.2264 18.6872 48.1444 18.5322C48.0669 18.3727 47.9052 18.2292 47.6591 18.1016C47.4175 17.9694 47.0529 17.8555 46.5653 17.7598C46.1552 17.6732 45.7837 17.5706 45.451 17.4521C45.1229 17.3337 44.8427 17.1901 44.6102 17.0215C44.3824 16.8529 44.2069 16.6546 44.0839 16.4268C43.9608 16.1989 43.8993 15.9323 43.8993 15.627C43.8993 15.3353 43.9631 15.0596 44.0907 14.7998C44.2229 14.54 44.4074 14.3099 44.6444 14.1094C44.8859 13.9089 45.1753 13.7516 45.5126 13.6377C45.8498 13.5238 46.2258 13.4668 46.6405 13.4668C47.233 13.4668 47.7388 13.5716 48.1581 13.7812C48.5774 13.9909 48.8986 14.2712 49.1219 14.6221C49.3453 14.9684 49.4569 15.3535 49.4569 15.7773H48.1923C48.1923 15.5723 48.1307 15.374 48.0077 15.1826C47.8892 14.9867 47.7137 14.8249 47.4813 14.6973C47.2535 14.5697 46.9732 14.5059 46.6405 14.5059C46.2896 14.5059 46.0048 14.5605 45.786 14.6699C45.5718 14.7747 45.4146 14.9092 45.3143 15.0732C45.2186 15.2373 45.1708 15.4105 45.1708 15.5928C45.1708 15.7295 45.1936 15.8525 45.2391 15.9619C45.2893 16.0667 45.3759 16.1647 45.4989 16.2559C45.6219 16.3424 45.7951 16.4245 46.0184 16.502C46.2417 16.5794 46.5266 16.6569 46.8729 16.7344C47.479 16.8711 47.9781 17.0352 48.37 17.2266C48.7619 17.418 49.0536 17.6527 49.245 17.9307C49.4364 18.2087 49.5321 18.5459 49.5321 18.9424C49.5321 19.266 49.4637 19.5622 49.327 19.8311C49.1949 20.0999 49.0012 20.3324 48.746 20.5283C48.4953 20.7197 48.1945 20.8701 47.8436 20.9795C47.4973 21.0843 47.1076 21.1367 46.6747 21.1367C46.023 21.1367 45.4716 21.0205 45.0204 20.7881C44.5692 20.5557 44.2274 20.2549 43.995 19.8857C43.7626 19.5166 43.6464 19.127 43.6464 18.7168H44.9178C44.9361 19.0632 45.0363 19.3389 45.2186 19.5439C45.4009 19.7445 45.6242 19.888 45.8885 19.9746C46.1529 20.0566 46.4149 20.0977 46.6747 20.0977C47.021 20.0977 47.3104 20.0521 47.5428 19.9609C47.7798 19.8698 47.9598 19.7445 48.0829 19.585C48.2059 19.4255 48.2675 19.2432 48.2675 19.0381ZM54.2899 13.6035V14.5742H50.2909V13.6035H54.2899ZM51.6444 11.8057H52.9091V19.168C52.9091 19.4186 52.9478 19.6077 53.0253 19.7354C53.1027 19.863 53.203 19.9473 53.326 19.9883C53.4491 20.0293 53.5813 20.0498 53.7225 20.0498C53.8274 20.0498 53.9367 20.0407 54.0507 20.0225C54.1691 19.9997 54.258 19.9814 54.3173 19.9678L54.3241 21C54.2238 21.0319 54.0917 21.0615 53.9276 21.0889C53.7681 21.1208 53.5744 21.1367 53.3466 21.1367C53.0367 21.1367 52.7518 21.0752 52.4921 20.9521C52.2323 20.8291 52.0249 20.624 51.87 20.3369C51.7196 20.0452 51.6444 19.6533 51.6444 19.1611V11.8057ZM57.038 14.7656V21H55.7733V13.6035H57.0038L57.038 14.7656ZM59.3485 13.5625L59.3417 14.7383C59.2369 14.7155 59.1366 14.7018 59.0409 14.6973C58.9497 14.6882 58.8449 14.6836 58.7264 14.6836C58.4348 14.6836 58.1773 14.7292 57.954 14.8203C57.7307 14.9115 57.5415 15.0391 57.3866 15.2031C57.2316 15.3672 57.1086 15.5632 57.0175 15.791C56.9309 16.0143 56.8739 16.2604 56.8466 16.5293L56.4911 16.7344C56.4911 16.2878 56.5344 15.8685 56.621 15.4766C56.7121 15.0846 56.8511 14.7383 57.038 14.4375C57.2248 14.1322 57.4618 13.8952 57.7489 13.7266C58.0406 13.5534 58.3869 13.4668 58.788 13.4668C58.8791 13.4668 58.9839 13.4782 59.1024 13.501C59.2209 13.5192 59.3029 13.5397 59.3485 13.5625ZM64.6053 19.7354V15.9277C64.6053 15.6361 64.5461 15.3831 64.4276 15.1689C64.3137 14.9502 64.1405 14.7816 63.9081 14.6631C63.6757 14.5446 63.3885 14.4854 63.0468 14.4854C62.7277 14.4854 62.4475 14.54 62.2059 14.6494C61.969 14.7588 61.7821 14.9023 61.6454 15.0801C61.5132 15.2578 61.4471 15.4492 61.4471 15.6543H60.1825C60.1825 15.39 60.2509 15.1279 60.3876 14.8682C60.5243 14.6084 60.7203 14.3737 60.9755 14.1641C61.2352 13.9499 61.5451 13.7812 61.9052 13.6582C62.2697 13.5306 62.6753 13.4668 63.1219 13.4668C63.6597 13.4668 64.1337 13.5579 64.5438 13.7402C64.9585 13.9225 65.2821 14.1982 65.5145 14.5674C65.7515 14.932 65.87 15.39 65.87 15.9414V19.3867C65.87 19.6328 65.8905 19.8949 65.9315 20.1729C65.9771 20.4508 66.0432 20.6901 66.1298 20.8906V21H64.8104C64.7466 20.8542 64.6965 20.6605 64.66 20.4189C64.6236 20.1729 64.6053 19.945 64.6053 19.7354ZM64.8241 16.5156L64.8378 17.4043H63.5594C63.1994 17.4043 62.8781 17.4339 62.5956 17.4932C62.313 17.5479 62.076 17.6322 61.8846 17.7461C61.6932 17.86 61.5474 18.0036 61.4471 18.1768C61.3469 18.3454 61.2968 18.5436 61.2968 18.7715C61.2968 19.0039 61.3492 19.2158 61.454 19.4072C61.5588 19.5986 61.716 19.7513 61.9257 19.8652C62.1399 19.9746 62.4019 20.0293 62.7118 20.0293C63.0992 20.0293 63.441 19.9473 63.7372 19.7832C64.0334 19.6191 64.2681 19.4186 64.4413 19.1816C64.619 18.9447 64.7147 18.7145 64.7284 18.4912L65.2684 19.0996C65.2365 19.291 65.1499 19.5029 65.0087 19.7354C64.8674 19.9678 64.6783 20.1911 64.4413 20.4053C64.2089 20.6149 63.9309 20.7904 63.6073 20.9316C63.2883 21.0684 62.9283 21.1367 62.5272 21.1367C62.0259 21.1367 61.5861 21.0387 61.2079 20.8428C60.8342 20.6468 60.5425 20.3848 60.3329 20.0566C60.1278 19.724 60.0253 19.3525 60.0253 18.9424C60.0253 18.5459 60.1027 18.1973 60.2577 17.8965C60.4126 17.5911 60.6359 17.3382 60.9276 17.1377C61.2193 16.9326 61.5702 16.7777 61.9803 16.6729C62.3905 16.568 62.8485 16.5156 63.3544 16.5156H64.8241ZM70.8192 20.0977C71.12 20.0977 71.398 20.0361 71.6532 19.9131C71.9084 19.79 72.118 19.6214 72.2821 19.4072C72.4462 19.1885 72.5396 18.9401 72.5624 18.6621H73.7655C73.7427 19.0996 73.5946 19.5075 73.3212 19.8857C73.0523 20.2594 72.6991 20.5625 72.2616 20.7949C71.8241 21.0228 71.3433 21.1367 70.8192 21.1367C70.2632 21.1367 69.7779 21.0387 69.3632 20.8428C68.953 20.6468 68.6112 20.3779 68.3378 20.0361C68.0689 19.6943 67.8661 19.3024 67.7294 18.8604C67.5972 18.4137 67.5311 17.9421 67.5311 17.4453V17.1582C67.5311 16.6615 67.5972 16.1921 67.7294 15.75C67.8661 15.3034 68.0689 14.9092 68.3378 14.5674C68.6112 14.2256 68.953 13.9567 69.3632 13.7607C69.7779 13.5648 70.2632 13.4668 70.8192 13.4668C71.398 13.4668 71.9038 13.5853 72.3368 13.8223C72.7697 14.0547 73.1093 14.3737 73.3553 14.7793C73.606 15.1803 73.7427 15.6361 73.7655 16.1465H72.5624C72.5396 15.8411 72.453 15.5654 72.3026 15.3193C72.1568 15.0732 71.9563 14.8773 71.701 14.7314C71.4504 14.5811 71.1565 14.5059 70.8192 14.5059C70.4318 14.5059 70.106 14.5833 69.8417 14.7383C69.5819 14.8887 69.3746 15.0938 69.2196 15.3535C69.0692 15.6087 68.9598 15.8936 68.8915 16.208C68.8277 16.5179 68.7958 16.8346 68.7958 17.1582V17.4453C68.7958 17.7689 68.8277 18.0879 68.8915 18.4023C68.9553 18.7168 69.0624 19.0016 69.2128 19.2568C69.3677 19.512 69.5751 19.7171 69.8348 19.8721C70.0992 20.0225 70.4273 20.0977 70.8192 20.0977ZM78.2841 13.6035V14.5742H74.285V13.6035H78.2841ZM75.6385 11.8057H76.9032V19.168C76.9032 19.4186 76.9419 19.6077 77.0194 19.7354C77.0969 19.863 77.1971 19.9473 77.3202 19.9883C77.4432 20.0293 77.5754 20.0498 77.7167 20.0498C77.8215 20.0498 77.9309 20.0407 78.0448 20.0225C78.1633 19.9997 78.2522 19.9814 78.3114 19.9678L78.3182 21C78.218 21.0319 78.0858 21.0615 77.9218 21.0889C77.7622 21.1208 77.5686 21.1367 77.3407 21.1367C77.0308 21.1367 76.746 21.0752 76.4862 20.9521C76.2264 20.8291 76.0191 20.624 75.8641 20.3369C75.7137 20.0452 75.6385 19.6533 75.6385 19.1611V11.8057ZM89.7548 19.9268V21H84.4843V19.9268H89.7548ZM84.7509 11.0469V21H83.4315V11.0469H84.7509ZM89.0575 15.3262V16.3994H84.4843V15.3262H89.0575ZM89.6864 11.0469V12.127H84.4843V11.0469H89.6864ZM92.0516 13.6035L93.6718 16.2969L95.3124 13.6035H96.7958L94.3759 17.2539L96.871 21H95.4081L93.6991 18.2246L91.9901 21H90.5204L93.0087 17.2539L90.5956 13.6035H92.0516ZM99.4071 15.0254V23.8438H98.1356V13.6035H99.2977L99.4071 15.0254ZM104.391 17.2402V17.3838C104.391 17.9215 104.327 18.4206 104.199 18.8809C104.071 19.3366 103.885 19.7331 103.639 20.0703C103.397 20.4076 103.099 20.6696 102.743 20.8564C102.388 21.0433 101.98 21.1367 101.519 21.1367C101.05 21.1367 100.635 21.0592 100.275 20.9043C99.9152 20.7493 99.6099 20.5238 99.3593 20.2275C99.1086 19.9313 98.9081 19.5758 98.7577 19.1611C98.6119 18.7464 98.5116 18.2793 98.4569 17.7598V16.9941C98.5116 16.4473 98.6141 15.9574 98.7645 15.5244C98.9149 15.0915 99.1132 14.7223 99.3593 14.417C99.6099 14.1071 99.913 13.8724 100.268 13.7129C100.624 13.5488 101.034 13.4668 101.499 13.4668C101.964 13.4668 102.376 13.5579 102.736 13.7402C103.096 13.918 103.399 14.1732 103.645 14.5059C103.891 14.8385 104.076 15.2373 104.199 15.7021C104.327 16.1624 104.391 16.6751 104.391 17.2402ZM103.119 17.3838V17.2402C103.119 16.8711 103.08 16.5247 103.003 16.2012C102.925 15.873 102.805 15.5859 102.641 15.3398C102.481 15.0892 102.276 14.8932 102.025 14.752C101.775 14.6061 101.476 14.5332 101.13 14.5332C100.811 14.5332 100.533 14.5879 100.296 14.6973C100.063 14.8066 99.8651 14.9548 99.701 15.1416C99.537 15.3239 99.4025 15.5335 99.2977 15.7705C99.1975 16.0029 99.1223 16.2445 99.0721 16.4951V18.2656C99.1633 18.5846 99.2909 18.8854 99.455 19.168C99.619 19.446 99.8378 19.6715 100.111 19.8447C100.385 20.0133 100.729 20.0977 101.143 20.0977C101.485 20.0977 101.779 20.027 102.025 19.8857C102.276 19.7399 102.481 19.5417 102.641 19.291C102.805 19.0404 102.925 18.7533 103.003 18.4297C103.08 18.1016 103.119 17.7529 103.119 17.3838ZM107.268 14.7656V21H106.004V13.6035H107.234L107.268 14.7656ZM109.579 13.5625L109.572 14.7383C109.467 14.7155 109.367 14.7018 109.271 14.6973C109.18 14.6882 109.075 14.6836 108.957 14.6836C108.665 14.6836 108.408 14.7292 108.184 14.8203C107.961 14.9115 107.772 15.0391 107.617 15.2031C107.462 15.3672 107.339 15.5632 107.248 15.791C107.161 16.0143 107.104 16.2604 107.077 16.5293L106.722 16.7344C106.722 16.2878 106.765 15.8685 106.851 15.4766C106.943 15.0846 107.082 14.7383 107.268 14.4375C107.455 14.1322 107.692 13.8952 107.979 13.7266C108.271 13.5534 108.617 13.4668 109.018 13.4668C109.11 13.4668 109.214 13.4782 109.333 13.501C109.451 13.5192 109.533 13.5397 109.579 13.5625ZM113.681 21.1367C113.166 21.1367 112.698 21.0501 112.279 20.877C111.864 20.6992 111.507 20.4508 111.206 20.1318C110.91 19.8128 110.682 19.4346 110.522 18.9971C110.363 18.5596 110.283 18.0811 110.283 17.5615V17.2744C110.283 16.6729 110.372 16.1374 110.55 15.668C110.727 15.194 110.969 14.793 111.274 14.4648C111.58 14.1367 111.926 13.8883 112.313 13.7197C112.701 13.5511 113.102 13.4668 113.516 13.4668C114.045 13.4668 114.501 13.5579 114.884 13.7402C115.271 13.9225 115.588 14.1777 115.834 14.5059C116.08 14.8294 116.262 15.2122 116.381 15.6543C116.499 16.0918 116.558 16.5703 116.558 17.0898V17.6572H111.035V16.625H115.294V16.5293C115.276 16.2012 115.207 15.8822 115.089 15.5723C114.975 15.2624 114.793 15.0072 114.542 14.8066C114.291 14.6061 113.949 14.5059 113.516 14.5059C113.229 14.5059 112.965 14.5674 112.724 14.6904C112.482 14.8089 112.275 14.9867 112.101 15.2236C111.928 15.4606 111.794 15.75 111.698 16.0918C111.602 16.4336 111.555 16.8278 111.555 17.2744V17.5615C111.555 17.9124 111.602 18.2428 111.698 18.5527C111.798 18.8581 111.942 19.127 112.129 19.3594C112.32 19.5918 112.55 19.7741 112.819 19.9062C113.093 20.0384 113.403 20.1045 113.749 20.1045C114.196 20.1045 114.574 20.0133 114.884 19.8311C115.194 19.6488 115.465 19.4049 115.697 19.0996L116.463 19.708C116.303 19.9495 116.1 20.1797 115.854 20.3984C115.608 20.6172 115.305 20.7949 114.945 20.9316C114.59 21.0684 114.168 21.1367 113.681 21.1367ZM122.342 19.0381C122.342 18.8558 122.301 18.6872 122.219 18.5322C122.141 18.3727 121.979 18.2292 121.733 18.1016C121.492 17.9694 121.127 17.8555 120.64 17.7598C120.229 17.6732 119.858 17.5706 119.525 17.4521C119.197 17.3337 118.917 17.1901 118.684 17.0215C118.457 16.8529 118.281 16.6546 118.158 16.4268C118.035 16.1989 117.974 15.9323 117.974 15.627C117.974 15.3353 118.037 15.0596 118.165 14.7998C118.297 14.54 118.482 14.3099 118.719 14.1094C118.96 13.9089 119.25 13.7516 119.587 13.6377C119.924 13.5238 120.3 13.4668 120.715 13.4668C121.307 13.4668 121.813 13.5716 122.232 13.7812C122.652 13.9909 122.973 14.2712 123.196 14.6221C123.419 14.9684 123.531 15.3535 123.531 15.7773H122.266C122.266 15.5723 122.205 15.374 122.082 15.1826C121.963 14.9867 121.788 14.8249 121.556 14.6973C121.328 14.5697 121.047 14.5059 120.715 14.5059C120.364 14.5059 120.079 14.5605 119.86 14.6699C119.646 14.7747 119.489 14.9092 119.389 15.0732C119.293 15.2373 119.245 15.4105 119.245 15.5928C119.245 15.7295 119.268 15.8525 119.313 15.9619C119.363 16.0667 119.45 16.1647 119.573 16.2559C119.696 16.3424 119.869 16.4245 120.093 16.502C120.316 16.5794 120.601 16.6569 120.947 16.7344C121.553 16.8711 122.052 17.0352 122.444 17.2266C122.836 17.418 123.128 17.6527 123.319 17.9307C123.511 18.2087 123.606 18.5459 123.606 18.9424C123.606 19.266 123.538 19.5622 123.401 19.8311C123.269 20.0999 123.075 20.3324 122.82 20.5283C122.57 20.7197 122.269 20.8701 121.918 20.9795C121.571 21.0843 121.182 21.1367 120.749 21.1367C120.097 21.1367 119.546 21.0205 119.095 20.7881C118.643 20.5557 118.302 20.2549 118.069 19.8857C117.837 19.5166 117.721 19.127 117.721 18.7168H118.992C119.01 19.0632 119.111 19.3389 119.293 19.5439C119.475 19.7445 119.698 19.888 119.963 19.9746C120.227 20.0566 120.489 20.0977 120.749 20.0977C121.095 20.0977 121.385 20.0521 121.617 19.9609C121.854 19.8698 122.034 19.7445 122.157 19.585C122.28 19.4255 122.342 19.2432 122.342 19.0381ZM129.574 19.0381C129.574 18.8558 129.533 18.6872 129.451 18.5322C129.374 18.3727 129.212 18.2292 128.966 18.1016C128.724 17.9694 128.36 17.8555 127.872 17.7598C127.462 17.6732 127.09 17.5706 126.758 17.4521C126.43 17.3337 126.149 17.1901 125.917 17.0215C125.689 16.8529 125.514 16.6546 125.391 16.4268C125.267 16.1989 125.206 15.9323 125.206 15.627C125.206 15.3353 125.27 15.0596 125.397 14.7998C125.53 14.54 125.714 14.3099 125.951 14.1094C126.193 13.9089 126.482 13.7516 126.819 13.6377C127.156 13.5238 127.532 13.4668 127.947 13.4668C128.54 13.4668 129.045 13.5716 129.465 13.7812C129.884 13.9909 130.205 14.2712 130.429 14.6221C130.652 14.9684 130.764 15.3535 130.764 15.7773H129.499C129.499 15.5723 129.437 15.374 129.314 15.1826C129.196 14.9867 129.02 14.8249 128.788 14.6973C128.56 14.5697 128.28 14.5059 127.947 14.5059C127.596 14.5059 127.311 14.5605 127.093 14.6699C126.878 14.7747 126.721 14.9092 126.621 15.0732C126.525 15.2373 126.477 15.4105 126.477 15.5928C126.477 15.7295 126.5 15.8525 126.546 15.9619C126.596 16.0667 126.682 16.1647 126.806 16.2559C126.929 16.3424 127.102 16.4245 127.325 16.502C127.548 16.5794 127.833 16.6569 128.18 16.7344C128.786 16.8711 129.285 17.0352 129.677 17.2266C130.069 17.418 130.36 17.6527 130.552 17.9307C130.743 18.2087 130.839 18.5459 130.839 18.9424C130.839 19.266 130.77 19.5622 130.634 19.8311C130.502 20.0999 130.308 20.3324 130.053 20.5283C129.802 20.7197 129.501 20.8701 129.15 20.9795C128.804 21.0843 128.414 21.1367 127.981 21.1367C127.33 21.1367 126.778 21.0205 126.327 20.7881C125.876 20.5557 125.534 20.2549 125.302 19.8857C125.069 19.5166 124.953 19.127 124.953 18.7168H126.224C126.243 19.0632 126.343 19.3389 126.525 19.5439C126.708 19.7445 126.931 19.888 127.195 19.9746C127.46 20.0566 127.722 20.0977 127.981 20.0977C128.328 20.0977 128.617 20.0521 128.849 19.9609C129.086 19.8698 129.266 19.7445 129.39 19.585C129.513 19.4255 129.574 19.2432 129.574 19.0381ZM133.874 13.6035V21H132.602V13.6035H133.874ZM132.507 11.6416C132.507 11.4365 132.568 11.2633 132.691 11.1221C132.819 10.9808 133.006 10.9102 133.252 10.9102C133.493 10.9102 133.678 10.9808 133.806 11.1221C133.938 11.2633 134.004 11.4365 134.004 11.6416C134.004 11.8376 133.938 12.0062 133.806 12.1475C133.678 12.2842 133.493 12.3525 133.252 12.3525C133.006 12.3525 132.819 12.2842 132.691 12.1475C132.568 12.0062 132.507 11.8376 132.507 11.6416ZM135.569 17.3838V17.2266C135.569 16.6934 135.647 16.1989 135.802 15.7432C135.957 15.2829 136.18 14.8841 136.472 14.5469C136.763 14.2051 137.116 13.9408 137.531 13.7539C137.946 13.5625 138.411 13.4668 138.926 13.4668C139.445 13.4668 139.912 13.5625 140.327 13.7539C140.746 13.9408 141.102 14.2051 141.393 14.5469C141.69 14.8841 141.915 15.2829 142.07 15.7432C142.225 16.1989 142.303 16.6934 142.303 17.2266V17.3838C142.303 17.917 142.225 18.4115 142.07 18.8672C141.915 19.3229 141.69 19.7217 141.393 20.0635C141.102 20.4007 140.749 20.665 140.334 20.8564C139.924 21.0433 139.459 21.1367 138.939 21.1367C138.42 21.1367 137.953 21.0433 137.538 20.8564C137.123 20.665 136.768 20.4007 136.472 20.0635C136.18 19.7217 135.957 19.3229 135.802 18.8672C135.647 18.4115 135.569 17.917 135.569 17.3838ZM136.834 17.2266V17.3838C136.834 17.7529 136.877 18.1016 136.964 18.4297C137.05 18.7533 137.18 19.0404 137.353 19.291C137.531 19.5417 137.752 19.7399 138.016 19.8857C138.281 20.027 138.588 20.0977 138.939 20.0977C139.286 20.0977 139.589 20.027 139.849 19.8857C140.113 19.7399 140.332 19.5417 140.505 19.291C140.678 19.0404 140.808 18.7533 140.894 18.4297C140.986 18.1016 141.031 17.7529 141.031 17.3838V17.2266C141.031 16.862 140.986 16.5179 140.894 16.1943C140.808 15.8662 140.676 15.5768 140.498 15.3262C140.325 15.071 140.106 14.8704 139.842 14.7246C139.582 14.5788 139.277 14.5059 138.926 14.5059C138.579 14.5059 138.274 14.5788 138.01 14.7246C137.75 14.8704 137.531 15.071 137.353 15.3262C137.18 15.5768 137.05 15.8662 136.964 16.1943C136.877 16.5179 136.834 16.862 136.834 17.2266ZM145.153 15.1826V21H143.889V13.6035H145.085L145.153 15.1826ZM144.852 17.0215L144.326 17.001C144.331 16.4951 144.406 16.028 144.552 15.5996C144.697 15.1667 144.903 14.7907 145.167 14.4717C145.431 14.1527 145.746 13.9066 146.11 13.7334C146.479 13.5557 146.887 13.4668 147.334 13.4668C147.698 13.4668 148.027 13.5169 148.318 13.6172C148.61 13.7129 148.858 13.8678 149.063 14.082C149.273 14.2962 149.432 14.5742 149.542 14.916C149.651 15.2533 149.706 15.6657 149.706 16.1533V21H148.434V16.1396C148.434 15.7523 148.377 15.4424 148.264 15.21C148.15 14.973 147.983 14.8021 147.765 14.6973C147.546 14.5879 147.277 14.5332 146.958 14.5332C146.643 14.5332 146.356 14.5993 146.097 14.7314C145.841 14.8636 145.62 15.0459 145.433 15.2783C145.251 15.5107 145.108 15.7773 145.003 16.0781C144.903 16.3743 144.852 16.6888 144.852 17.0215ZM153.001 13.6035V21H151.729V13.6035H153.001ZM151.634 11.6416C151.634 11.4365 151.695 11.2633 151.818 11.1221C151.946 10.9808 152.133 10.9102 152.379 10.9102C152.62 10.9102 152.805 10.9808 152.932 11.1221C153.065 11.2633 153.131 11.4365 153.131 11.6416C153.131 11.8376 153.065 12.0062 152.932 12.1475C152.805 12.2842 152.62 12.3525 152.379 12.3525C152.133 12.3525 151.946 12.2842 151.818 12.1475C151.695 12.0062 151.634 11.8376 151.634 11.6416ZM159.338 19.0381C159.338 18.8558 159.297 18.6872 159.215 18.5322C159.137 18.3727 158.975 18.2292 158.729 18.1016C158.488 17.9694 158.123 17.8555 157.636 17.7598C157.225 17.6732 156.854 17.5706 156.521 17.4521C156.193 17.3337 155.913 17.1901 155.681 17.0215C155.453 16.8529 155.277 16.6546 155.154 16.4268C155.031 16.1989 154.97 15.9323 154.97 15.627C154.97 15.3353 155.033 15.0596 155.161 14.7998C155.293 14.54 155.478 14.3099 155.715 14.1094C155.956 13.9089 156.246 13.7516 156.583 13.6377C156.92 13.5238 157.296 13.4668 157.711 13.4668C158.303 13.4668 158.809 13.5716 159.228 13.7812C159.648 13.9909 159.969 14.2712 160.192 14.6221C160.416 14.9684 160.527 15.3535 160.527 15.7773H159.263C159.263 15.5723 159.201 15.374 159.078 15.1826C158.96 14.9867 158.784 14.8249 158.552 14.6973C158.324 14.5697 158.043 14.5059 157.711 14.5059C157.36 14.5059 157.075 14.5605 156.856 14.6699C156.642 14.7747 156.485 14.9092 156.385 15.0732C156.289 15.2373 156.241 15.4105 156.241 15.5928C156.241 15.7295 156.264 15.8525 156.309 15.9619C156.36 16.0667 156.446 16.1647 156.569 16.2559C156.692 16.3424 156.865 16.4245 157.089 16.502C157.312 16.5794 157.597 16.6569 157.943 16.7344C158.549 16.8711 159.048 17.0352 159.44 17.2266C159.832 17.418 160.124 17.6527 160.315 17.9307C160.507 18.2087 160.602 18.5459 160.602 18.9424C160.602 19.266 160.534 19.5622 160.397 19.8311C160.265 20.0999 160.071 20.3324 159.816 20.5283C159.566 20.7197 159.265 20.8701 158.914 20.9795C158.568 21.0843 158.178 21.1367 157.745 21.1367C157.093 21.1367 156.542 21.0205 156.091 20.7881C155.64 20.5557 155.298 20.2549 155.065 19.8857C154.833 19.5166 154.717 19.127 154.717 18.7168H155.988C156.006 19.0632 156.107 19.3389 156.289 19.5439C156.471 19.7445 156.695 19.888 156.959 19.9746C157.223 20.0566 157.485 20.0977 157.745 20.0977C158.091 20.0977 158.381 20.0521 158.613 19.9609C158.85 19.8698 159.03 19.7445 159.153 19.585C159.276 19.4255 159.338 19.2432 159.338 19.0381ZM163.521 15.0732V21H162.25V13.6035H163.453L163.521 15.0732ZM163.262 17.0215L162.674 17.001C162.678 16.4951 162.744 16.028 162.872 15.5996C163 15.1667 163.189 14.7907 163.439 14.4717C163.69 14.1527 164.002 13.9066 164.376 13.7334C164.75 13.5557 165.182 13.4668 165.675 13.4668C166.021 13.4668 166.34 13.5169 166.632 13.6172C166.923 13.7129 167.176 13.8656 167.391 14.0752C167.605 14.2848 167.771 14.5537 167.89 14.8818C168.008 15.21 168.067 15.6064 168.067 16.0713V21H166.803V16.1328C166.803 15.7454 166.737 15.4355 166.604 15.2031C166.477 14.9707 166.294 14.8021 166.057 14.6973C165.821 14.5879 165.543 14.5332 165.224 14.5332C164.85 14.5332 164.538 14.5993 164.287 14.7314C164.036 14.8636 163.836 15.0459 163.685 15.2783C163.535 15.5107 163.426 15.7773 163.357 16.0781C163.293 16.3743 163.262 16.6888 163.262 17.0215ZM168.054 16.3242L167.206 16.584C167.21 16.1784 167.277 15.7887 167.404 15.415C167.536 15.0413 167.725 14.7087 167.972 14.417C168.222 14.1253 168.53 13.8952 168.894 13.7266C169.259 13.5534 169.676 13.4668 170.145 13.4668C170.542 13.4668 170.893 13.5192 171.198 13.624C171.508 13.7288 171.768 13.8906 171.977 14.1094C172.192 14.3236 172.353 14.5993 172.463 14.9365C172.572 15.2738 172.627 15.6748 172.627 16.1396V21H171.355V16.126C171.355 15.7113 171.289 15.39 171.157 15.1621C171.03 14.9297 170.847 14.7679 170.61 14.6768C170.378 14.5811 170.1 14.5332 169.776 14.5332C169.498 14.5332 169.252 14.5811 169.038 14.6768C168.824 14.7725 168.644 14.9046 168.498 15.0732C168.352 15.2373 168.24 15.4264 168.163 15.6406C168.09 15.8548 168.054 16.0827 168.054 16.3242Z" fill="#181717"/>
</svg>
