<svg width="96" height="18" viewBox="0 0 96 18" fill="none" xmlns="http://www.w3.org/2000/svg">
<path d="M10.1367 7.62793V12.3125C9.97852 12.5469 9.72656 12.8105 9.38086 13.1035C9.03516 13.3906 8.55762 13.6426 7.94824 13.8594C7.34473 14.0703 6.56543 14.1758 5.61035 14.1758C4.83105 14.1758 4.11328 14.041 3.45703 13.7715C2.80664 13.4961 2.24121 13.0977 1.76074 12.5762C1.28613 12.0488 0.916992 11.4102 0.65332 10.6602C0.395508 9.9043 0.266602 9.04883 0.266602 8.09375V7.10059C0.266602 6.14551 0.37793 5.29297 0.600586 4.54297C0.829102 3.79297 1.16309 3.15723 1.60254 2.63574C2.04199 2.1084 2.58105 1.70996 3.21973 1.44043C3.8584 1.16504 4.59082 1.02734 5.41699 1.02734C6.39551 1.02734 7.21289 1.19727 7.86914 1.53711C8.53125 1.87109 9.04688 2.33398 9.41602 2.92578C9.79102 3.51758 10.0312 4.19141 10.1367 4.94727H8.44043C8.36426 4.48438 8.21191 4.0625 7.9834 3.68164C7.76074 3.30078 7.44141 2.99609 7.02539 2.76758C6.60938 2.5332 6.07324 2.41602 5.41699 2.41602C4.8252 2.41602 4.3125 2.52441 3.87891 2.74121C3.44531 2.95801 3.08789 3.26855 2.80664 3.67285C2.52539 4.07715 2.31445 4.56641 2.17383 5.14062C2.03906 5.71484 1.97168 6.3623 1.97168 7.08301V8.09375C1.97168 8.83203 2.05664 9.49121 2.22656 10.0713C2.40234 10.6514 2.65137 11.1465 2.97363 11.5566C3.2959 11.9609 3.67969 12.2686 4.125 12.4795C4.57617 12.6904 5.07422 12.7959 5.61914 12.7959C6.22266 12.7959 6.71191 12.7461 7.08691 12.6465C7.46191 12.541 7.75488 12.418 7.96582 12.2773C8.17676 12.1309 8.33789 11.9932 8.44922 11.8643V8.99902H5.4873V7.62793H10.1367ZM14.3291 5.98438V14H12.7031V4.49023H14.2852L14.3291 5.98438ZM17.2998 4.4375L17.291 5.94922C17.1562 5.91992 17.0273 5.90234 16.9043 5.89648C16.7871 5.88477 16.6523 5.87891 16.5 5.87891C16.125 5.87891 15.7939 5.9375 15.5068 6.05469C15.2197 6.17188 14.9766 6.33594 14.7773 6.54688C14.5781 6.75781 14.4199 7.00977 14.3027 7.30273C14.1914 7.58984 14.1182 7.90625 14.083 8.25195L13.626 8.51562C13.626 7.94141 13.6816 7.40234 13.793 6.89844C13.9102 6.39453 14.0889 5.94922 14.3291 5.5625C14.5693 5.16992 14.874 4.86523 15.2432 4.64844C15.6182 4.42578 16.0635 4.31445 16.5791 4.31445C16.6963 4.31445 16.8311 4.3291 16.9834 4.3584C17.1357 4.38184 17.2412 4.4082 17.2998 4.4375ZM24.0586 12.374V7.47852C24.0586 7.10352 23.9824 6.77832 23.8301 6.50293C23.6836 6.22168 23.4609 6.00488 23.1621 5.85254C22.8633 5.7002 22.4941 5.62402 22.0547 5.62402C21.6445 5.62402 21.2842 5.69434 20.9736 5.83496C20.6689 5.97559 20.4287 6.16016 20.2529 6.38867C20.083 6.61719 19.998 6.86328 19.998 7.12695H18.3721C18.3721 6.78711 18.46 6.4502 18.6357 6.11621C18.8115 5.78223 19.0635 5.48047 19.3916 5.21094C19.7256 4.93555 20.124 4.71875 20.5869 4.56055C21.0557 4.39648 21.5771 4.31445 22.1514 4.31445C22.8428 4.31445 23.4521 4.43164 23.9795 4.66602C24.5127 4.90039 24.9287 5.25488 25.2275 5.72949C25.5322 6.19824 25.6846 6.78711 25.6846 7.49609V11.9258C25.6846 12.2422 25.7109 12.5791 25.7637 12.9365C25.8223 13.2939 25.9072 13.6016 26.0186 13.8594V14H24.3223C24.2402 13.8125 24.1758 13.5635 24.1289 13.2529C24.082 12.9365 24.0586 12.6436 24.0586 12.374ZM24.3398 8.23438L24.3574 9.37695H22.7139C22.251 9.37695 21.8379 9.41504 21.4746 9.49121C21.1113 9.56152 20.8066 9.66992 20.5605 9.81641C20.3145 9.96289 20.127 10.1475 19.998 10.3701C19.8691 10.5869 19.8047 10.8418 19.8047 11.1348C19.8047 11.4336 19.8721 11.7061 20.0068 11.9521C20.1416 12.1982 20.3438 12.3945 20.6133 12.541C20.8887 12.6816 21.2256 12.752 21.624 12.752C22.1221 12.752 22.5615 12.6465 22.9424 12.4355C23.3232 12.2246 23.625 11.9668 23.8477 11.6621C24.0762 11.3574 24.1992 11.0615 24.2168 10.7744L24.9111 11.5566C24.8701 11.8027 24.7588 12.0752 24.5771 12.374C24.3955 12.6729 24.1523 12.96 23.8477 13.2354C23.5488 13.5049 23.1914 13.7305 22.7754 13.9121C22.3652 14.0879 21.9023 14.1758 21.3867 14.1758C20.7422 14.1758 20.1768 14.0498 19.6904 13.7979C19.21 13.5459 18.835 13.209 18.5654 12.7871C18.3018 12.3594 18.1699 11.8818 18.1699 11.3545C18.1699 10.8447 18.2695 10.3965 18.4688 10.0098C18.668 9.61719 18.9551 9.29199 19.3301 9.03418C19.7051 8.77051 20.1562 8.57129 20.6836 8.43652C21.2109 8.30176 21.7998 8.23438 22.4502 8.23438H24.3398ZM29.8682 6.31836V17.6562H28.2334V4.49023H29.7275L29.8682 6.31836ZM36.2754 9.16602V9.35059C36.2754 10.042 36.1934 10.6836 36.0293 11.2754C35.8652 11.8613 35.625 12.3711 35.3086 12.8047C34.998 13.2383 34.6143 13.5752 34.1572 13.8154C33.7002 14.0557 33.1758 14.1758 32.584 14.1758C31.9805 14.1758 31.4473 14.0762 30.9844 13.877C30.5215 13.6777 30.1289 13.3877 29.8066 13.0068C29.4844 12.626 29.2266 12.1689 29.0332 11.6357C28.8457 11.1025 28.7168 10.502 28.6465 9.83398V8.84961C28.7168 8.14648 28.8486 7.5166 29.042 6.95996C29.2354 6.40332 29.4902 5.92871 29.8066 5.53613C30.1289 5.1377 30.5186 4.83594 30.9756 4.63086C31.4326 4.41992 31.96 4.31445 32.5576 4.31445C33.1553 4.31445 33.6855 4.43164 34.1484 4.66602C34.6113 4.89453 35.001 5.22266 35.3174 5.65039C35.6338 6.07812 35.8711 6.59082 36.0293 7.18848C36.1934 7.78027 36.2754 8.43945 36.2754 9.16602ZM34.6406 9.35059V9.16602C34.6406 8.69141 34.5908 8.24609 34.4912 7.83008C34.3916 7.4082 34.2363 7.03906 34.0254 6.72266C33.8203 6.40039 33.5566 6.14844 33.2344 5.9668C32.9121 5.7793 32.5283 5.68555 32.083 5.68555C31.6729 5.68555 31.3154 5.75586 31.0107 5.89648C30.7119 6.03711 30.457 6.22754 30.2461 6.46777C30.0352 6.70215 29.8623 6.97168 29.7275 7.27637C29.5986 7.5752 29.502 7.88574 29.4375 8.20801V10.4844C29.5547 10.8945 29.7188 11.2812 29.9297 11.6445C30.1406 12.002 30.4219 12.292 30.7734 12.5146C31.125 12.7314 31.5674 12.8398 32.1006 12.8398C32.54 12.8398 32.918 12.749 33.2344 12.5674C33.5566 12.3799 33.8203 12.125 34.0254 11.8027C34.2363 11.4805 34.3916 11.1113 34.4912 10.6953C34.5908 10.2734 34.6406 9.8252 34.6406 9.35059ZM39.9756 0.5V14H38.3496V0.5H39.9756ZM39.5889 8.88477L38.9121 8.8584C38.918 8.20801 39.0146 7.60742 39.2021 7.05664C39.3896 6.5 39.6533 6.0166 39.9932 5.60645C40.333 5.19629 40.7373 4.87988 41.2061 4.65723C41.6807 4.42871 42.2051 4.31445 42.7793 4.31445C43.248 4.31445 43.6699 4.37891 44.0449 4.50781C44.4199 4.63086 44.7393 4.83008 45.0029 5.10547C45.2725 5.38086 45.4775 5.73828 45.6182 6.17773C45.7588 6.61133 45.8291 7.1416 45.8291 7.76855V14H44.1943V7.75098C44.1943 7.25293 44.1211 6.85449 43.9746 6.55566C43.8281 6.25098 43.6143 6.03125 43.333 5.89648C43.0518 5.75586 42.7061 5.68555 42.2959 5.68555C41.8916 5.68555 41.5225 5.77051 41.1885 5.94043C40.8604 6.11035 40.5762 6.34473 40.3359 6.64355C40.1016 6.94238 39.917 7.28516 39.7822 7.67188C39.6533 8.05273 39.5889 8.45703 39.5889 8.88477ZM50.0303 4.49023V14H48.3955V4.49023H50.0303ZM48.2725 1.96777C48.2725 1.7041 48.3516 1.48145 48.5098 1.2998C48.6738 1.11816 48.9141 1.02734 49.2305 1.02734C49.541 1.02734 49.7783 1.11816 49.9424 1.2998C50.1123 1.48145 50.1973 1.7041 50.1973 1.96777C50.1973 2.21973 50.1123 2.43652 49.9424 2.61816C49.7783 2.79395 49.541 2.88184 49.2305 2.88184C48.9141 2.88184 48.6738 2.79395 48.5098 2.61816C48.3516 2.43652 48.2725 2.21973 48.2725 1.96777ZM56.4463 12.8398C56.833 12.8398 57.1904 12.7607 57.5186 12.6025C57.8467 12.4443 58.1162 12.2275 58.3271 11.9521C58.5381 11.6709 58.6582 11.3516 58.6875 10.9941H60.2344C60.2051 11.5566 60.0146 12.0811 59.6631 12.5674C59.3174 13.0479 58.8633 13.4375 58.3008 13.7363C57.7383 14.0293 57.1201 14.1758 56.4463 14.1758C55.7314 14.1758 55.1074 14.0498 54.5742 13.7979C54.0469 13.5459 53.6074 13.2002 53.2559 12.7607C52.9102 12.3213 52.6494 11.8174 52.4736 11.249C52.3037 10.6748 52.2188 10.0684 52.2188 9.42969V9.06055C52.2188 8.42188 52.3037 7.81836 52.4736 7.25C52.6494 6.67578 52.9102 6.16895 53.2559 5.72949C53.6074 5.29004 54.0469 4.94434 54.5742 4.69238C55.1074 4.44043 55.7314 4.31445 56.4463 4.31445C57.1904 4.31445 57.8408 4.4668 58.3975 4.77148C58.9541 5.07031 59.3906 5.48047 59.707 6.00195C60.0293 6.51758 60.2051 7.10352 60.2344 7.75977H58.6875C58.6582 7.36719 58.5469 7.0127 58.3535 6.69629C58.166 6.37988 57.9082 6.12793 57.5801 5.94043C57.2578 5.74707 56.8799 5.65039 56.4463 5.65039C55.9482 5.65039 55.5293 5.75 55.1895 5.94922C54.8555 6.14258 54.5889 6.40625 54.3896 6.74023C54.1963 7.06836 54.0557 7.43457 53.9678 7.83887C53.8857 8.2373 53.8447 8.64453 53.8447 9.06055V9.42969C53.8447 9.8457 53.8857 10.2559 53.9678 10.6602C54.0498 11.0645 54.1875 11.4307 54.3809 11.7588C54.5801 12.0869 54.8467 12.3506 55.1807 12.5498C55.5205 12.7432 55.9424 12.8398 56.4463 12.8398ZM72.1348 12.374V7.47852C72.1348 7.10352 72.0586 6.77832 71.9062 6.50293C71.7598 6.22168 71.5371 6.00488 71.2383 5.85254C70.9395 5.7002 70.5703 5.62402 70.1309 5.62402C69.7207 5.62402 69.3604 5.69434 69.0498 5.83496C68.7451 5.97559 68.5049 6.16016 68.3291 6.38867C68.1592 6.61719 68.0742 6.86328 68.0742 7.12695H66.4482C66.4482 6.78711 66.5361 6.4502 66.7119 6.11621C66.8877 5.78223 67.1396 5.48047 67.4678 5.21094C67.8018 4.93555 68.2002 4.71875 68.6631 4.56055C69.1318 4.39648 69.6533 4.31445 70.2275 4.31445C70.9189 4.31445 71.5283 4.43164 72.0557 4.66602C72.5889 4.90039 73.0049 5.25488 73.3037 5.72949C73.6084 6.19824 73.7607 6.78711 73.7607 7.49609V11.9258C73.7607 12.2422 73.7871 12.5791 73.8398 12.9365C73.8984 13.2939 73.9834 13.6016 74.0947 13.8594V14H72.3984C72.3164 13.8125 72.252 13.5635 72.2051 13.2529C72.1582 12.9365 72.1348 12.6436 72.1348 12.374ZM72.416 8.23438L72.4336 9.37695H70.79C70.3271 9.37695 69.9141 9.41504 69.5508 9.49121C69.1875 9.56152 68.8828 9.66992 68.6367 9.81641C68.3906 9.96289 68.2031 10.1475 68.0742 10.3701C67.9453 10.5869 67.8809 10.8418 67.8809 11.1348C67.8809 11.4336 67.9482 11.7061 68.083 11.9521C68.2178 12.1982 68.4199 12.3945 68.6895 12.541C68.9648 12.6816 69.3018 12.752 69.7002 12.752C70.1982 12.752 70.6377 12.6465 71.0186 12.4355C71.3994 12.2246 71.7012 11.9668 71.9238 11.6621C72.1523 11.3574 72.2754 11.0615 72.293 10.7744L72.9873 11.5566C72.9463 11.8027 72.835 12.0752 72.6533 12.374C72.4717 12.6729 72.2285 12.96 71.9238 13.2354C71.625 13.5049 71.2676 13.7305 70.8516 13.9121C70.4414 14.0879 69.9785 14.1758 69.4629 14.1758C68.8184 14.1758 68.2529 14.0498 67.7666 13.7979C67.2861 13.5459 66.9111 13.209 66.6416 12.7871C66.3779 12.3594 66.2461 11.8818 66.2461 11.3545C66.2461 10.8447 66.3457 10.3965 66.5449 10.0098C66.7441 9.61719 67.0312 9.29199 67.4062 9.03418C67.7812 8.77051 68.2324 8.57129 68.7598 8.43652C69.2871 8.30176 69.876 8.23438 70.5264 8.23438H72.416ZM77.9443 5.98438V14H76.3184V4.49023H77.9004L77.9443 5.98438ZM80.915 4.4375L80.9062 5.94922C80.7715 5.91992 80.6426 5.90234 80.5195 5.89648C80.4023 5.88477 80.2676 5.87891 80.1152 5.87891C79.7402 5.87891 79.4092 5.9375 79.1221 6.05469C78.835 6.17188 78.5918 6.33594 78.3926 6.54688C78.1934 6.75781 78.0352 7.00977 77.918 7.30273C77.8066 7.58984 77.7334 7.90625 77.6982 8.25195L77.2412 8.51562C77.2412 7.94141 77.2969 7.40234 77.4082 6.89844C77.5254 6.39453 77.7041 5.94922 77.9443 5.5625C78.1846 5.16992 78.4893 4.86523 78.8584 4.64844C79.2334 4.42578 79.6787 4.31445 80.1943 4.31445C80.3115 4.31445 80.4463 4.3291 80.5986 4.3584C80.751 4.38184 80.8564 4.4082 80.915 4.4375ZM86.8389 4.49023V5.73828H81.6973V4.49023H86.8389ZM83.4375 2.17871H85.0635V11.6445C85.0635 11.9668 85.1133 12.21 85.2129 12.374C85.3125 12.5381 85.4414 12.6465 85.5996 12.6992C85.7578 12.752 85.9277 12.7783 86.1094 12.7783C86.2441 12.7783 86.3848 12.7666 86.5312 12.7432C86.6836 12.7139 86.7979 12.6904 86.874 12.6729L86.8828 14C86.7539 14.041 86.584 14.0791 86.373 14.1143C86.168 14.1553 85.9189 14.1758 85.626 14.1758C85.2275 14.1758 84.8613 14.0967 84.5273 13.9385C84.1934 13.7803 83.9268 13.5166 83.7275 13.1475C83.5342 12.7725 83.4375 12.2686 83.4375 11.6357V2.17871ZM94.2832 11.4775C94.2832 11.2432 94.2305 11.0264 94.125 10.8271C94.0254 10.6221 93.8174 10.4375 93.501 10.2734C93.1904 10.1035 92.7217 9.95703 92.0947 9.83398C91.5674 9.72266 91.0898 9.59082 90.6621 9.43848C90.2402 9.28613 89.8799 9.10156 89.5811 8.88477C89.2881 8.66797 89.0625 8.41309 88.9043 8.12012C88.7461 7.82715 88.667 7.48438 88.667 7.0918C88.667 6.7168 88.749 6.3623 88.9131 6.02832C89.083 5.69434 89.3203 5.39844 89.625 5.14062C89.9355 4.88281 90.3076 4.68066 90.7412 4.53418C91.1748 4.3877 91.6582 4.31445 92.1914 4.31445C92.9531 4.31445 93.6035 4.44922 94.1426 4.71875C94.6816 4.98828 95.0947 5.34863 95.3818 5.7998C95.6689 6.24512 95.8125 6.74023 95.8125 7.28516H94.1865C94.1865 7.02148 94.1074 6.7666 93.9492 6.52051C93.7969 6.26855 93.5713 6.06055 93.2725 5.89648C92.9795 5.73242 92.6191 5.65039 92.1914 5.65039C91.7402 5.65039 91.374 5.7207 91.0928 5.86133C90.8174 5.99609 90.6152 6.16895 90.4863 6.37988C90.3633 6.59082 90.3018 6.81348 90.3018 7.04785C90.3018 7.22363 90.3311 7.38184 90.3896 7.52246C90.4541 7.65723 90.5654 7.7832 90.7236 7.90039C90.8818 8.01172 91.1045 8.11719 91.3916 8.2168C91.6787 8.31641 92.0449 8.41602 92.4902 8.51562C93.2695 8.69141 93.9111 8.90234 94.415 9.14844C94.9189 9.39453 95.2939 9.69629 95.54 10.0537C95.7861 10.4111 95.9092 10.8447 95.9092 11.3545C95.9092 11.7705 95.8213 12.1514 95.6455 12.4971C95.4756 12.8428 95.2266 13.1416 94.8984 13.3936C94.5762 13.6396 94.1895 13.833 93.7383 13.9736C93.293 14.1084 92.792 14.1758 92.2354 14.1758C91.3975 14.1758 90.6885 14.0264 90.1084 13.7275C89.5283 13.4287 89.0889 13.042 88.79 12.5674C88.4912 12.0928 88.3418 11.5918 88.3418 11.0645H89.9766C90 11.5098 90.1289 11.8643 90.3633 12.1279C90.5977 12.3857 90.8848 12.5703 91.2246 12.6816C91.5645 12.7871 91.9014 12.8398 92.2354 12.8398C92.6807 12.8398 93.0527 12.7812 93.3516 12.6641C93.6562 12.5469 93.8877 12.3857 94.0459 12.1807C94.2041 11.9756 94.2832 11.7412 94.2832 11.4775Z" fill="black"/>
</svg>
