<svg width="610" height="60" viewBox="0 0 610 60" fill="none" xmlns="http://www.w3.org/2000/svg">
<rect x="365.5" y="0.5" width="59" height="59" fill="white" stroke="#DFDFDF"/>
<path d="M392 24L398 30L392 36" stroke="black" stroke-width="2" stroke-linecap="round"/>
<rect x="306.5" y="0.5" width="59" height="59" fill="white" stroke="#DFDFDF"/>
<path d="M335.297 23.625V24.4375L330.586 35H329.062L333.766 24.8125H327.609V23.625H335.297ZM344.633 31.1719V32.3594H336.414V31.5078L341.508 23.625H342.688L341.422 25.9062L338.055 31.1719H344.633ZM343.047 23.625V35H341.602V23.625H343.047Z" fill="black"/>
<rect x="247.5" y="0.5" width="59" height="59" fill="white" stroke="#DFDFDF"/>
<path d="M272.297 34.2344C272.297 33.9896 272.372 33.7839 272.523 33.6172C272.68 33.4453 272.904 33.3594 273.195 33.3594C273.487 33.3594 273.708 33.4453 273.859 33.6172C274.016 33.7839 274.094 33.9896 274.094 34.2344C274.094 34.474 274.016 34.6771 273.859 34.8438C273.708 35.0104 273.487 35.0938 273.195 35.0938C272.904 35.0938 272.68 35.0104 272.523 34.8438C272.372 34.6771 272.297 34.474 272.297 34.2344ZM276.516 34.2344C276.516 33.9896 276.591 33.7839 276.742 33.6172C276.898 33.4453 277.122 33.3594 277.414 33.3594C277.706 33.3594 277.927 33.4453 278.078 33.6172C278.234 33.7839 278.312 33.9896 278.312 34.2344C278.312 34.474 278.234 34.6771 278.078 34.8438C277.927 35.0104 277.706 35.0938 277.414 35.0938C277.122 35.0938 276.898 35.0104 276.742 34.8438C276.591 34.6771 276.516 34.474 276.516 34.2344ZM280.734 34.2344C280.734 33.9896 280.81 33.7839 280.961 33.6172C281.117 33.4453 281.341 33.3594 281.633 33.3594C281.924 33.3594 282.146 33.4453 282.297 33.6172C282.453 33.7839 282.531 33.9896 282.531 34.2344C282.531 34.474 282.453 34.6771 282.297 34.8438C282.146 35.0104 281.924 35.0938 281.633 35.0938C281.341 35.0938 281.117 35.0104 280.961 34.8438C280.81 34.6771 280.734 34.474 280.734 34.2344Z" fill="black"/>
<rect x="188.5" y="0.5" width="59" height="59" fill="white" stroke="#DFDFDF"/>
<path d="M217.055 28.6016H218.086C218.591 28.6016 219.008 28.5182 219.336 28.3516C219.669 28.1797 219.917 27.9479 220.078 27.6562C220.245 27.3594 220.328 27.026 220.328 26.6562C220.328 26.2188 220.255 25.8516 220.109 25.5547C219.964 25.2578 219.745 25.0339 219.453 24.8828C219.161 24.7318 218.792 24.6562 218.344 24.6562C217.938 24.6562 217.578 24.737 217.266 24.8984C216.958 25.0547 216.716 25.2786 216.539 25.5703C216.367 25.862 216.281 26.2057 216.281 26.6016H214.836C214.836 26.0234 214.982 25.4974 215.273 25.0234C215.565 24.5495 215.974 24.1719 216.5 23.8906C217.031 23.6094 217.646 23.4688 218.344 23.4688C219.031 23.4688 219.633 23.5911 220.148 23.8359C220.664 24.0755 221.065 24.4349 221.352 24.9141C221.638 25.388 221.781 25.9792 221.781 26.6875C221.781 26.974 221.714 27.2812 221.578 27.6094C221.448 27.9323 221.242 28.2344 220.961 28.5156C220.685 28.7969 220.326 29.0286 219.883 29.2109C219.44 29.388 218.909 29.4766 218.289 29.4766H217.055V28.6016ZM217.055 29.7891V28.9219H218.289C219.013 28.9219 219.612 29.0078 220.086 29.1797C220.56 29.3516 220.932 29.5807 221.203 29.8672C221.479 30.1536 221.672 30.4688 221.781 30.8125C221.896 31.151 221.953 31.4896 221.953 31.8281C221.953 32.3594 221.862 32.8307 221.68 33.2422C221.503 33.6536 221.25 34.0026 220.922 34.2891C220.599 34.5755 220.219 34.7917 219.781 34.9375C219.344 35.0833 218.867 35.1562 218.352 35.1562C217.857 35.1562 217.391 35.0859 216.953 34.9453C216.521 34.8047 216.138 34.6016 215.805 34.3359C215.471 34.0651 215.211 33.7344 215.023 33.3438C214.836 32.9479 214.742 32.4974 214.742 31.9922H216.188C216.188 32.388 216.273 32.7344 216.445 33.0312C216.622 33.3281 216.872 33.5599 217.195 33.7266C217.523 33.888 217.909 33.9688 218.352 33.9688C218.794 33.9688 219.174 33.8932 219.492 33.7422C219.815 33.5859 220.062 33.3516 220.234 33.0391C220.411 32.7266 220.5 32.3333 220.5 31.8594C220.5 31.3854 220.401 30.9974 220.203 30.6953C220.005 30.388 219.724 30.1615 219.359 30.0156C219 29.8646 218.576 29.7891 218.086 29.7891H217.055Z" fill="black"/>
<rect x="129.5" y="0.5" width="59" height="59" fill="white" stroke="#DFDFDF"/>
<path d="M163.398 33.8125V35H155.953V33.9609L159.68 29.8125C160.138 29.3021 160.492 28.8698 160.742 28.5156C160.997 28.1562 161.174 27.8359 161.273 27.5547C161.378 27.2682 161.43 26.9766 161.43 26.6797C161.43 26.3047 161.352 25.9661 161.195 25.6641C161.044 25.3568 160.82 25.112 160.523 24.9297C160.227 24.7474 159.867 24.6562 159.445 24.6562C158.94 24.6562 158.518 24.7552 158.18 24.9531C157.846 25.1458 157.596 25.4167 157.43 25.7656C157.263 26.1146 157.18 26.5156 157.18 26.9688H155.734C155.734 26.3281 155.875 25.7422 156.156 25.2109C156.438 24.6797 156.854 24.2578 157.406 23.9453C157.958 23.6276 158.638 23.4688 159.445 23.4688C160.164 23.4688 160.779 23.5964 161.289 23.8516C161.799 24.1016 162.19 24.4557 162.461 24.9141C162.737 25.3672 162.875 25.8984 162.875 26.5078C162.875 26.8411 162.818 27.1797 162.703 27.5234C162.594 27.862 162.44 28.2005 162.242 28.5391C162.049 28.8776 161.823 29.2109 161.562 29.5391C161.307 29.8672 161.034 30.1901 160.742 30.5078L157.695 33.8125H163.398Z" fill="black"/>
<rect x="70" width="60" height="60" fill="black"/>
<path d="M101.695 23.5625V35H100.25V25.3672L97.3359 26.4297V25.125L101.469 23.5625H101.695Z" fill="white"/>
<rect x="11.5" y="0.5" width="59" height="59" fill="white" stroke="#DFDFDF"/>
<path d="M44 36L38 30L44 24" stroke="black" stroke-width="2" stroke-linecap="round"/>
<path d="M471.458 23.6328V36.5H469.832V25.6631L466.554 26.8584V25.3906L471.203 23.6328H471.458ZM479.799 30.3916V31.7275H475.51V30.3916H479.799ZM489.862 32.1934V33.5293H480.616V32.5713L486.347 23.7031H487.674L486.25 26.2695L482.462 32.1934H489.862ZM488.078 23.7031V36.5H486.452V23.7031H488.078ZM495.549 31.8506V31.6484C495.549 30.9629 495.648 30.3271 495.848 29.7412C496.047 29.1494 496.334 28.6367 496.709 28.2031C497.084 27.7637 497.538 27.4238 498.071 27.1836C498.604 26.9375 499.202 26.8145 499.864 26.8145C500.532 26.8145 501.133 26.9375 501.666 27.1836C502.205 27.4238 502.662 27.7637 503.037 28.2031C503.418 28.6367 503.708 29.1494 503.907 29.7412C504.106 30.3271 504.206 30.9629 504.206 31.6484V31.8506C504.206 32.5361 504.106 33.1719 503.907 33.7578C503.708 34.3438 503.418 34.8564 503.037 35.2959C502.662 35.7295 502.208 36.0693 501.675 36.3154C501.147 36.5557 500.55 36.6758 499.882 36.6758C499.214 36.6758 498.613 36.5557 498.08 36.3154C497.547 36.0693 497.09 35.7295 496.709 35.2959C496.334 34.8564 496.047 34.3438 495.848 33.7578C495.648 33.1719 495.549 32.5361 495.549 31.8506ZM497.175 31.6484V31.8506C497.175 32.3252 497.23 32.7734 497.342 33.1953C497.453 33.6113 497.62 33.9805 497.843 34.3027C498.071 34.625 498.355 34.8799 498.695 35.0674C499.035 35.249 499.431 35.3398 499.882 35.3398C500.327 35.3398 500.717 35.249 501.051 35.0674C501.391 34.8799 501.672 34.625 501.895 34.3027C502.117 33.9805 502.284 33.6113 502.396 33.1953C502.513 32.7734 502.571 32.3252 502.571 31.8506V31.6484C502.571 31.1797 502.513 30.7373 502.396 30.3213C502.284 29.8994 502.114 29.5273 501.886 29.2051C501.663 28.877 501.382 28.6191 501.042 28.4316C500.708 28.2441 500.315 28.1504 499.864 28.1504C499.419 28.1504 499.026 28.2441 498.687 28.4316C498.353 28.6191 498.071 28.877 497.843 29.2051C497.62 29.5273 497.453 29.8994 497.342 30.3213C497.23 30.7373 497.175 31.1797 497.175 31.6484ZM508.671 36.5H507.045V25.9883C507.045 25.3027 507.168 24.7256 507.414 24.2568C507.666 23.7822 508.026 23.4248 508.495 23.1846C508.964 22.9385 509.521 22.8154 510.165 22.8154C510.353 22.8154 510.54 22.8271 510.728 22.8506C510.921 22.874 511.108 22.9092 511.29 22.9561L511.202 24.2832C511.079 24.2539 510.938 24.2334 510.78 24.2217C510.628 24.21 510.476 24.2041 510.323 24.2041C509.978 24.2041 509.679 24.2744 509.427 24.415C509.181 24.5498 508.993 24.749 508.864 25.0127C508.735 25.2764 508.671 25.6016 508.671 25.9883V36.5ZM510.692 26.9902V28.2383H505.542V26.9902H510.692ZM525.177 35.1641V36.5H516.801V35.3311L520.993 30.6641C521.509 30.0898 521.907 29.6035 522.188 29.2051C522.476 28.8008 522.675 28.4404 522.786 28.124C522.903 27.8018 522.962 27.4736 522.962 27.1396C522.962 26.7178 522.874 26.3369 522.698 25.9971C522.528 25.6514 522.276 25.376 521.942 25.1709C521.608 24.9658 521.204 24.8633 520.729 24.8633C520.161 24.8633 519.687 24.9746 519.306 25.1973C518.931 25.4141 518.649 25.7188 518.462 26.1113C518.274 26.5039 518.181 26.9551 518.181 27.4648H516.555C516.555 26.7441 516.713 26.085 517.029 25.4873C517.346 24.8896 517.814 24.415 518.436 24.0635C519.057 23.7061 519.821 23.5273 520.729 23.5273C521.538 23.5273 522.229 23.6709 522.804 23.958C523.378 24.2393 523.817 24.6377 524.122 25.1533C524.433 25.6631 524.588 26.2607 524.588 26.9463C524.588 27.3213 524.523 27.7021 524.395 28.0889C524.271 28.4697 524.099 28.8506 523.876 29.2314C523.659 29.6123 523.404 29.9873 523.111 30.3564C522.824 30.7256 522.517 31.0889 522.188 31.4463L518.761 35.1641H525.177ZM528.534 35.1377H528.701C529.639 35.1377 530.4 35.0059 530.986 34.7422C531.572 34.4785 532.023 34.124 532.34 33.6787C532.656 33.2334 532.873 32.7324 532.99 32.1758C533.107 31.6133 533.166 31.0361 533.166 30.4443V28.4844C533.166 27.9043 533.099 27.3887 532.964 26.9375C532.835 26.4863 532.653 26.1084 532.419 25.8037C532.19 25.499 531.93 25.2676 531.637 25.1094C531.344 24.9512 531.033 24.8721 530.705 24.8721C530.33 24.8721 529.993 24.9482 529.694 25.1006C529.401 25.2471 529.152 25.4551 528.947 25.7246C528.748 25.9941 528.596 26.3105 528.49 26.6738C528.385 27.0371 528.332 27.4326 528.332 27.8604C528.332 28.2412 528.379 28.6104 528.473 28.9678C528.566 29.3252 528.71 29.6475 528.903 29.9346C529.097 30.2217 529.337 30.4502 529.624 30.6201C529.917 30.7842 530.26 30.8662 530.652 30.8662C531.016 30.8662 531.355 30.7959 531.672 30.6553C531.994 30.5088 532.278 30.3125 532.524 30.0664C532.776 29.8145 532.976 29.5303 533.122 29.2139C533.274 28.8975 533.362 28.5664 533.386 28.2207H534.159C534.159 28.707 534.062 29.1875 533.869 29.6621C533.682 30.1309 533.418 30.5586 533.078 30.9453C532.738 31.332 532.34 31.6426 531.883 31.877C531.426 32.1055 530.928 32.2197 530.389 32.2197C529.756 32.2197 529.208 32.0967 528.745 31.8506C528.282 31.6045 527.901 31.2764 527.603 30.8662C527.31 30.4561 527.09 29.999 526.943 29.4951C526.803 28.9854 526.732 28.4697 526.732 27.9482C526.732 27.3389 526.817 26.7676 526.987 26.2344C527.157 25.7012 527.409 25.2324 527.743 24.8281C528.077 24.418 528.49 24.0986 528.982 23.8701C529.48 23.6416 530.055 23.5273 530.705 23.5273C531.438 23.5273 532.062 23.6738 532.577 23.9668C533.093 24.2598 533.512 24.6523 533.834 25.1445C534.162 25.6367 534.402 26.1904 534.555 26.8057C534.707 27.4209 534.783 28.0537 534.783 28.7041V29.293C534.783 29.9551 534.739 30.6289 534.651 31.3145C534.569 31.9941 534.408 32.6445 534.168 33.2656C533.934 33.8867 533.591 34.4434 533.14 34.9355C532.688 35.4219 532.1 35.8086 531.373 36.0957C530.652 36.377 529.762 36.5176 528.701 36.5176H528.534V35.1377ZM543.282 23.6855H543.423V25.0654H543.282C542.421 25.0654 541.7 25.2061 541.12 25.4873C540.54 25.7627 540.08 26.1348 539.74 26.6035C539.4 27.0664 539.154 27.5879 539.002 28.168C538.855 28.748 538.782 29.3369 538.782 29.9346V31.8154C538.782 32.3838 538.85 32.8877 538.984 33.3271C539.119 33.7607 539.304 34.127 539.538 34.4258C539.772 34.7246 540.036 34.9502 540.329 35.1025C540.628 35.2549 540.938 35.3311 541.261 35.3311C541.636 35.3311 541.97 35.2607 542.263 35.1201C542.556 34.9736 542.802 34.7715 543.001 34.5137C543.206 34.25 543.361 33.9395 543.467 33.582C543.572 33.2246 543.625 32.832 543.625 32.4043C543.625 32.0234 543.578 31.6572 543.484 31.3057C543.391 30.9482 543.247 30.6318 543.054 30.3564C542.86 30.0752 542.617 29.8555 542.324 29.6973C542.037 29.5332 541.694 29.4512 541.296 29.4512C540.845 29.4512 540.423 29.5625 540.03 29.7852C539.644 30.002 539.324 30.2891 539.072 30.6465C538.826 30.998 538.686 31.3818 538.65 31.7979L537.789 31.7891C537.871 31.1328 538.023 30.5732 538.246 30.1104C538.475 29.6416 538.756 29.2607 539.09 28.9678C539.43 28.6689 539.808 28.4521 540.224 28.3174C540.646 28.1768 541.091 28.1064 541.56 28.1064C542.198 28.1064 542.749 28.2266 543.212 28.4668C543.675 28.707 544.056 29.0293 544.354 29.4336C544.653 29.832 544.873 30.2832 545.014 30.7871C545.16 31.2852 545.233 31.7979 545.233 32.3252C545.233 32.9287 545.148 33.4941 544.979 34.0215C544.809 34.5488 544.554 35.0117 544.214 35.4102C543.88 35.8086 543.467 36.1191 542.975 36.3418C542.482 36.5645 541.911 36.6758 541.261 36.6758C540.569 36.6758 539.966 36.5352 539.45 36.2539C538.935 35.9668 538.507 35.5859 538.167 35.1113C537.827 34.6367 537.572 34.1094 537.402 33.5293C537.232 32.9492 537.147 32.3604 537.147 31.7627V30.998C537.147 30.0957 537.238 29.2109 537.42 28.3438C537.602 27.4766 537.915 26.6914 538.36 25.9883C538.812 25.2852 539.436 24.7256 540.232 24.3096C541.029 23.8936 542.046 23.6855 543.282 23.6855ZM552.054 23.7031H556.29C557.251 23.7031 558.062 23.8496 558.725 24.1426C559.393 24.4355 559.899 24.8691 560.245 25.4434C560.597 26.0117 560.772 26.7119 560.772 27.5439C560.772 28.1299 560.652 28.666 560.412 29.1523C560.178 29.6328 559.838 30.043 559.393 30.3828C558.953 30.7168 558.426 30.9658 557.811 31.1299L557.336 31.3145H553.354L553.337 29.9346H556.343C556.952 29.9346 557.459 29.8291 557.863 29.6182C558.268 29.4014 558.572 29.1113 558.777 28.748C558.982 28.3848 559.085 27.9834 559.085 27.5439C559.085 27.0518 558.988 26.6211 558.795 26.252C558.602 25.8828 558.297 25.5986 557.881 25.3994C557.471 25.1943 556.94 25.0918 556.29 25.0918H553.75V36.5H552.054V23.7031ZM559.533 36.5L556.422 30.6992L558.188 30.6904L561.344 36.3945V36.5H559.533ZM566.846 36.6758C566.184 36.6758 565.583 36.5645 565.044 36.3418C564.511 36.1133 564.051 35.7939 563.664 35.3838C563.283 34.9736 562.99 34.4873 562.785 33.9248C562.58 33.3623 562.478 32.7471 562.478 32.0791V31.71C562.478 30.9365 562.592 30.248 562.82 29.6445C563.049 29.0352 563.359 28.5195 563.752 28.0977C564.145 27.6758 564.59 27.3564 565.088 27.1396C565.586 26.9229 566.102 26.8145 566.635 26.8145C567.314 26.8145 567.9 26.9316 568.393 27.166C568.891 27.4004 569.298 27.7285 569.614 28.1504C569.931 28.5664 570.165 29.0586 570.317 29.627C570.47 30.1895 570.546 30.8047 570.546 31.4727V32.2021H563.444V30.875H568.92V30.752C568.896 30.3301 568.809 29.9199 568.656 29.5215C568.51 29.123 568.275 28.7949 567.953 28.5371C567.631 28.2793 567.191 28.1504 566.635 28.1504C566.266 28.1504 565.926 28.2295 565.615 28.3877C565.305 28.54 565.038 28.7686 564.815 29.0732C564.593 29.3779 564.42 29.75 564.297 30.1895C564.174 30.6289 564.112 31.1357 564.112 31.71V32.0791C564.112 32.5303 564.174 32.9551 564.297 33.3535C564.426 33.7461 564.61 34.0918 564.851 34.3906C565.097 34.6895 565.393 34.9238 565.738 35.0938C566.09 35.2637 566.488 35.3486 566.934 35.3486C567.508 35.3486 567.994 35.2314 568.393 34.9971C568.791 34.7627 569.14 34.4492 569.438 34.0566L570.423 34.8389C570.218 35.1494 569.957 35.4453 569.641 35.7266C569.324 36.0078 568.935 36.2363 568.472 36.4121C568.015 36.5879 567.473 36.6758 566.846 36.6758ZM577.981 33.9775C577.981 33.7432 577.929 33.5264 577.823 33.3271C577.724 33.1221 577.516 32.9375 577.199 32.7734C576.889 32.6035 576.42 32.457 575.793 32.334C575.266 32.2227 574.788 32.0908 574.36 31.9385C573.938 31.7861 573.578 31.6016 573.279 31.3848C572.986 31.168 572.761 30.9131 572.603 30.6201C572.444 30.3271 572.365 29.9844 572.365 29.5918C572.365 29.2168 572.447 28.8623 572.611 28.5283C572.781 28.1943 573.019 27.8984 573.323 27.6406C573.634 27.3828 574.006 27.1807 574.439 27.0342C574.873 26.8877 575.356 26.8145 575.89 26.8145C576.651 26.8145 577.302 26.9492 577.841 27.2188C578.38 27.4883 578.793 27.8486 579.08 28.2998C579.367 28.7451 579.511 29.2402 579.511 29.7852H577.885C577.885 29.5215 577.806 29.2666 577.647 29.0205C577.495 28.7686 577.27 28.5605 576.971 28.3965C576.678 28.2324 576.317 28.1504 575.89 28.1504C575.438 28.1504 575.072 28.2207 574.791 28.3613C574.516 28.4961 574.313 28.6689 574.185 28.8799C574.062 29.0908 574 29.3135 574 29.5479C574 29.7236 574.029 29.8818 574.088 30.0225C574.152 30.1572 574.264 30.2832 574.422 30.4004C574.58 30.5117 574.803 30.6172 575.09 30.7168C575.377 30.8164 575.743 30.916 576.188 31.0156C576.968 31.1914 577.609 31.4023 578.113 31.6484C578.617 31.8945 578.992 32.1963 579.238 32.5537C579.484 32.9111 579.607 33.3447 579.607 33.8545C579.607 34.2705 579.52 34.6514 579.344 34.9971C579.174 35.3428 578.925 35.6416 578.597 35.8936C578.274 36.1396 577.888 36.333 577.437 36.4736C576.991 36.6084 576.49 36.6758 575.934 36.6758C575.096 36.6758 574.387 36.5264 573.807 36.2275C573.227 35.9287 572.787 35.542 572.488 35.0674C572.189 34.5928 572.04 34.0918 572.04 33.5645H573.675C573.698 34.0098 573.827 34.3643 574.062 34.6279C574.296 34.8857 574.583 35.0703 574.923 35.1816C575.263 35.2871 575.6 35.3398 575.934 35.3398C576.379 35.3398 576.751 35.2812 577.05 35.1641C577.354 35.0469 577.586 34.8857 577.744 34.6807C577.902 34.4756 577.981 34.2412 577.981 33.9775ZM587.562 34.3027V26.9902H589.196V36.5H587.641L587.562 34.3027ZM587.869 32.2988L588.546 32.2812C588.546 32.9141 588.479 33.5 588.344 34.0391C588.215 34.5723 588.004 35.0352 587.711 35.4277C587.418 35.8203 587.034 36.1279 586.56 36.3506C586.085 36.5674 585.508 36.6758 584.828 36.6758C584.365 36.6758 583.94 36.6084 583.554 36.4736C583.173 36.3389 582.845 36.1309 582.569 35.8496C582.294 35.5684 582.08 35.2021 581.928 34.751C581.781 34.2998 581.708 33.7578 581.708 33.125V26.9902H583.334V33.1426C583.334 33.5703 583.381 33.9248 583.475 34.2061C583.574 34.4814 583.706 34.7012 583.87 34.8652C584.04 35.0234 584.228 35.1348 584.433 35.1992C584.644 35.2637 584.86 35.2959 585.083 35.2959C585.774 35.2959 586.322 35.1641 586.727 34.9004C587.131 34.6309 587.421 34.2705 587.597 33.8193C587.778 33.3623 587.869 32.8555 587.869 32.2988ZM593.441 23V36.5H591.807V23H593.441ZM600.033 26.9902V28.2383H594.892V26.9902H600.033ZM596.632 24.6787H598.258V34.1445C598.258 34.4668 598.308 34.71 598.407 34.874C598.507 35.0381 598.636 35.1465 598.794 35.1992C598.952 35.252 599.122 35.2783 599.304 35.2783C599.438 35.2783 599.579 35.2666 599.726 35.2432C599.878 35.2139 599.992 35.1904 600.068 35.1729L600.077 36.5C599.948 36.541 599.778 36.5791 599.567 36.6143C599.362 36.6553 599.113 36.6758 598.82 36.6758C598.422 36.6758 598.056 36.5967 597.722 36.4385C597.388 36.2803 597.121 36.0166 596.922 35.6475C596.729 35.2725 596.632 34.7686 596.632 34.1357V24.6787ZM607.478 33.9775C607.478 33.7432 607.425 33.5264 607.319 33.3271C607.22 33.1221 607.012 32.9375 606.695 32.7734C606.385 32.6035 605.916 32.457 605.289 32.334C604.762 32.2227 604.284 32.0908 603.856 31.9385C603.435 31.7861 603.074 31.6016 602.775 31.3848C602.482 31.168 602.257 30.9131 602.099 30.6201C601.94 30.3271 601.861 29.9844 601.861 29.5918C601.861 29.2168 601.943 28.8623 602.107 28.5283C602.277 28.1943 602.515 27.8984 602.819 27.6406C603.13 27.3828 603.502 27.1807 603.936 27.0342C604.369 26.8877 604.853 26.8145 605.386 26.8145C606.147 26.8145 606.798 26.9492 607.337 27.2188C607.876 27.4883 608.289 27.8486 608.576 28.2998C608.863 28.7451 609.007 29.2402 609.007 29.7852H607.381C607.381 29.5215 607.302 29.2666 607.144 29.0205C606.991 28.7686 606.766 28.5605 606.467 28.3965C606.174 28.2324 605.813 28.1504 605.386 28.1504C604.935 28.1504 604.568 28.2207 604.287 28.3613C604.012 28.4961 603.81 28.6689 603.681 28.8799C603.558 29.0908 603.496 29.3135 603.496 29.5479C603.496 29.7236 603.525 29.8818 603.584 30.0225C603.648 30.1572 603.76 30.2832 603.918 30.4004C604.076 30.5117 604.299 30.6172 604.586 30.7168C604.873 30.8164 605.239 30.916 605.685 31.0156C606.464 31.1914 607.105 31.4023 607.609 31.6484C608.113 31.8945 608.488 32.1963 608.734 32.5537C608.98 32.9111 609.104 33.3447 609.104 33.8545C609.104 34.2705 609.016 34.6514 608.84 34.9971C608.67 35.3428 608.421 35.6416 608.093 35.8936C607.771 36.1396 607.384 36.333 606.933 36.4736C606.487 36.6084 605.986 36.6758 605.43 36.6758C604.592 36.6758 603.883 36.5264 603.303 36.2275C602.723 35.9287 602.283 35.542 601.984 35.0674C601.686 34.5928 601.536 34.0918 601.536 33.5645H603.171C603.194 34.0098 603.323 34.3643 603.558 34.6279C603.792 34.8857 604.079 35.0703 604.419 35.1816C604.759 35.2871 605.096 35.3398 605.43 35.3398C605.875 35.3398 606.247 35.2812 606.546 35.1641C606.851 35.0469 607.082 34.8857 607.24 34.6807C607.398 34.4756 607.478 34.2412 607.478 33.9775Z" fill="#959595"/>
</svg>
