<svg width="64" height="17" viewBox="0 0 64 17" fill="none" xmlns="http://www.w3.org/2000/svg">
<path d="M5.36035 7.98145H1.94141V6.60156H5.36035C6.02246 6.60156 6.55859 6.49609 6.96875 6.28516C7.37891 6.07422 7.67773 5.78125 7.86523 5.40625C8.05859 5.03125 8.15527 4.60352 8.15527 4.12305C8.15527 3.68359 8.05859 3.27051 7.86523 2.88379C7.67773 2.49707 7.37891 2.18652 6.96875 1.95215C6.55859 1.71191 6.02246 1.5918 5.36035 1.5918H2.33691V13H0.640625V0.203125H5.36035C6.32715 0.203125 7.14453 0.370117 7.8125 0.704102C8.48047 1.03809 8.9873 1.50098 9.33301 2.09277C9.67871 2.67871 9.85156 3.34961 9.85156 4.10547C9.85156 4.92578 9.67871 5.62598 9.33301 6.20605C8.9873 6.78613 8.48047 7.22852 7.8125 7.5332C7.14453 7.83203 6.32715 7.98145 5.36035 7.98145ZM17.252 11.374V6.47852C17.252 6.10352 17.1758 5.77832 17.0234 5.50293C16.877 5.22168 16.6543 5.00488 16.3555 4.85254C16.0566 4.7002 15.6875 4.62402 15.248 4.62402C14.8379 4.62402 14.4775 4.69434 14.167 4.83496C13.8623 4.97559 13.6221 5.16016 13.4463 5.38867C13.2764 5.61719 13.1914 5.86328 13.1914 6.12695H11.5654C11.5654 5.78711 11.6533 5.4502 11.8291 5.11621C12.0049 4.78223 12.2568 4.48047 12.585 4.21094C12.9189 3.93555 13.3174 3.71875 13.7803 3.56055C14.249 3.39648 14.7705 3.31445 15.3447 3.31445C16.0361 3.31445 16.6455 3.43164 17.1729 3.66602C17.7061 3.90039 18.1221 4.25488 18.4209 4.72949C18.7256 5.19824 18.8779 5.78711 18.8779 6.49609V10.9258C18.8779 11.2422 18.9043 11.5791 18.957 11.9365C19.0156 12.2939 19.1006 12.6016 19.2119 12.8594V13H17.5156C17.4336 12.8125 17.3691 12.5635 17.3223 12.2529C17.2754 11.9365 17.252 11.6436 17.252 11.374ZM17.5332 7.23438L17.5508 8.37695H15.9072C15.4443 8.37695 15.0312 8.41504 14.668 8.49121C14.3047 8.56152 14 8.66992 13.7539 8.81641C13.5078 8.96289 13.3203 9.14746 13.1914 9.37012C13.0625 9.58691 12.998 9.8418 12.998 10.1348C12.998 10.4336 13.0654 10.7061 13.2002 10.9521C13.335 11.1982 13.5371 11.3945 13.8066 11.541C14.082 11.6816 14.4189 11.752 14.8174 11.752C15.3154 11.752 15.7549 11.6465 16.1357 11.4355C16.5166 11.2246 16.8184 10.9668 17.041 10.6621C17.2695 10.3574 17.3926 10.0615 17.4102 9.77441L18.1045 10.5566C18.0635 10.8027 17.9521 11.0752 17.7705 11.374C17.5889 11.6729 17.3457 11.96 17.041 12.2354C16.7422 12.5049 16.3848 12.7305 15.9688 12.9121C15.5586 13.0879 15.0957 13.1758 14.5801 13.1758C13.9355 13.1758 13.3701 13.0498 12.8838 12.7979C12.4033 12.5459 12.0283 12.209 11.7588 11.7871C11.4951 11.3594 11.3633 10.8818 11.3633 10.3545C11.3633 9.84473 11.4629 9.39648 11.6621 9.00977C11.8613 8.61719 12.1484 8.29199 12.5234 8.03418C12.8984 7.77051 13.3496 7.57129 13.877 7.43652C14.4043 7.30176 14.9932 7.23438 15.6436 7.23438H17.5332ZM23.2021 3.49023V13H21.5674V3.49023H23.2021ZM21.4443 0.967773C21.4443 0.704102 21.5234 0.481445 21.6816 0.299805C21.8457 0.118164 22.0859 0.0273438 22.4023 0.0273438C22.7129 0.0273438 22.9502 0.118164 23.1143 0.299805C23.2842 0.481445 23.3691 0.704102 23.3691 0.967773C23.3691 1.21973 23.2842 1.43652 23.1143 1.61816C22.9502 1.79395 22.7129 1.88184 22.4023 1.88184C22.0859 1.88184 21.8457 1.79395 21.6816 1.61816C21.5234 1.43652 21.4443 1.21973 21.4443 0.967773ZM27.4385 5.52051V13H25.8125V3.49023H27.3506L27.4385 5.52051ZM27.0518 7.88477L26.375 7.8584C26.3809 7.20801 26.4775 6.60742 26.665 6.05664C26.8525 5.5 27.1162 5.0166 27.4561 4.60645C27.7959 4.19629 28.2002 3.87988 28.6689 3.65723C29.1436 3.42871 29.668 3.31445 30.2422 3.31445C30.7109 3.31445 31.1328 3.37891 31.5078 3.50781C31.8828 3.63086 32.2021 3.83008 32.4658 4.10547C32.7354 4.38086 32.9404 4.73828 33.0811 5.17773C33.2217 5.61133 33.292 6.1416 33.292 6.76855V13H31.6572V6.75098C31.6572 6.25293 31.584 5.85449 31.4375 5.55566C31.291 5.25098 31.0771 5.03125 30.7959 4.89648C30.5146 4.75586 30.1689 4.68555 29.7588 4.68555C29.3545 4.68555 28.9854 4.77051 28.6514 4.94043C28.3232 5.11035 28.0391 5.34473 27.7988 5.64355C27.5645 5.94238 27.3799 6.28516 27.2451 6.67188C27.1162 7.05273 27.0518 7.45703 27.0518 7.88477ZM39.7432 3.49023V4.73828H34.6016V3.49023H39.7432ZM36.3418 1.17871H37.9678V10.6445C37.9678 10.9668 38.0176 11.21 38.1172 11.374C38.2168 11.5381 38.3457 11.6465 38.5039 11.6992C38.6621 11.752 38.832 11.7783 39.0137 11.7783C39.1484 11.7783 39.2891 11.7666 39.4355 11.7432C39.5879 11.7139 39.7021 11.6904 39.7783 11.6729L39.7871 13C39.6582 13.041 39.4883 13.0791 39.2773 13.1143C39.0723 13.1553 38.8232 13.1758 38.5303 13.1758C38.1318 13.1758 37.7656 13.0967 37.4316 12.9385C37.0977 12.7803 36.8311 12.5166 36.6318 12.1475C36.4385 11.7725 36.3418 11.2686 36.3418 10.6357V1.17871ZM43.417 3.49023V13H41.7822V3.49023H43.417ZM41.6592 0.967773C41.6592 0.704102 41.7383 0.481445 41.8965 0.299805C42.0605 0.118164 42.3008 0.0273438 42.6172 0.0273438C42.9277 0.0273438 43.165 0.118164 43.3291 0.299805C43.499 0.481445 43.584 0.704102 43.584 0.967773C43.584 1.21973 43.499 1.43652 43.3291 1.61816C43.165 1.79395 42.9277 1.88184 42.6172 1.88184C42.3008 1.88184 42.0605 1.79395 41.8965 1.61816C41.7383 1.43652 41.6592 1.21973 41.6592 0.967773ZM47.6533 5.52051V13H46.0273V3.49023H47.5654L47.6533 5.52051ZM47.2666 7.88477L46.5898 7.8584C46.5957 7.20801 46.6924 6.60742 46.8799 6.05664C47.0674 5.5 47.3311 5.0166 47.6709 4.60645C48.0107 4.19629 48.415 3.87988 48.8838 3.65723C49.3584 3.42871 49.8828 3.31445 50.457 3.31445C50.9258 3.31445 51.3477 3.37891 51.7227 3.50781C52.0977 3.63086 52.417 3.83008 52.6807 4.10547C52.9502 4.38086 53.1553 4.73828 53.2959 5.17773C53.4365 5.61133 53.5068 6.1416 53.5068 6.76855V13H51.8721V6.75098C51.8721 6.25293 51.7988 5.85449 51.6523 5.55566C51.5059 5.25098 51.292 5.03125 51.0107 4.89648C50.7295 4.75586 50.3838 4.68555 49.9736 4.68555C49.5693 4.68555 49.2002 4.77051 48.8662 4.94043C48.5381 5.11035 48.2539 5.34473 48.0137 5.64355C47.7793 5.94238 47.5947 6.28516 47.46 6.67188C47.3311 7.05273 47.2666 7.45703 47.2666 7.88477ZM62.1377 3.49023H63.6143V12.7979C63.6143 13.6357 63.4443 14.3506 63.1045 14.9424C62.7646 15.5342 62.29 15.9824 61.6807 16.2871C61.0771 16.5977 60.3799 16.7529 59.5889 16.7529C59.2607 16.7529 58.874 16.7002 58.4287 16.5947C57.9893 16.4951 57.5557 16.3223 57.1279 16.0762C56.7061 15.8359 56.3516 15.5107 56.0645 15.1006L56.917 14.1338C57.3154 14.6143 57.7314 14.9482 58.165 15.1357C58.6045 15.3232 59.0381 15.417 59.4658 15.417C59.9814 15.417 60.4268 15.3203 60.8018 15.127C61.1768 14.9336 61.4668 14.6465 61.6719 14.2656C61.8828 13.8906 61.9883 13.4277 61.9883 12.877V5.58203L62.1377 3.49023ZM55.5898 8.35059V8.16602C55.5898 7.43945 55.6748 6.78027 55.8447 6.18848C56.0205 5.59082 56.2695 5.07812 56.5918 4.65039C56.9199 4.22266 57.3154 3.89453 57.7783 3.66602C58.2412 3.43164 58.7627 3.31445 59.3428 3.31445C59.9404 3.31445 60.4619 3.41992 60.9072 3.63086C61.3584 3.83594 61.7393 4.1377 62.0498 4.53613C62.3662 4.92871 62.6152 5.40332 62.7969 5.95996C62.9785 6.5166 63.1045 7.14648 63.1748 7.84961V8.6582C63.1104 9.35547 62.9844 9.98242 62.7969 10.5391C62.6152 11.0957 62.3662 11.5703 62.0498 11.9629C61.7393 12.3555 61.3584 12.6572 60.9072 12.8682C60.4561 13.0732 59.9287 13.1758 59.3252 13.1758C58.7568 13.1758 58.2412 13.0557 57.7783 12.8154C57.3213 12.5752 56.9287 12.2383 56.6006 11.8047C56.2725 11.3711 56.0205 10.8613 55.8447 10.2754C55.6748 9.68359 55.5898 9.04199 55.5898 8.35059ZM57.2158 8.16602V8.35059C57.2158 8.8252 57.2627 9.27051 57.3564 9.68652C57.4561 10.1025 57.6055 10.4688 57.8047 10.7852C58.0098 11.1016 58.2705 11.3506 58.5869 11.5322C58.9033 11.708 59.2812 11.7959 59.7207 11.7959C60.2598 11.7959 60.7051 11.6816 61.0566 11.4531C61.4082 11.2246 61.6865 10.9229 61.8916 10.5479C62.1025 10.1729 62.2666 9.76562 62.3838 9.32617V7.20801C62.3193 6.88574 62.2197 6.5752 62.085 6.27637C61.9561 5.97168 61.7861 5.70215 61.5752 5.46777C61.3701 5.22754 61.1152 5.03711 60.8105 4.89648C60.5059 4.75586 60.1484 4.68555 59.7383 4.68555C59.293 4.68555 58.9092 4.7793 58.5869 4.9668C58.2705 5.14844 58.0098 5.40039 57.8047 5.72266C57.6055 6.03906 57.4561 6.4082 57.3564 6.83008C57.2627 7.24609 57.2158 7.69141 57.2158 8.16602Z" fill="black"/>
</svg>
