<svg width="59" height="14" viewBox="0 0 59 14" fill="none" xmlns="http://www.w3.org/2000/svg">
<path d="M5.33984 7.98145H1.9209V6.60156H5.33984C6.00195 6.60156 6.53809 6.49609 6.94824 6.28516C7.3584 6.07422 7.65723 5.78125 7.84473 5.40625C8.03809 5.03125 8.13477 4.60352 8.13477 4.12305C8.13477 3.68359 8.03809 3.27051 7.84473 2.88379C7.65723 2.49707 7.3584 2.18652 6.94824 1.95215C6.53809 1.71191 6.00195 1.5918 5.33984 1.5918H2.31641V13H0.620117V0.203125H5.33984C6.30664 0.203125 7.12402 0.370117 7.79199 0.704102C8.45996 1.03809 8.9668 1.50098 9.3125 2.09277C9.6582 2.67871 9.83105 3.34961 9.83105 4.10547C9.83105 4.92578 9.6582 5.62598 9.3125 6.20605C8.9668 6.78613 8.45996 7.22852 7.79199 7.5332C7.12402 7.83203 6.30664 7.98145 5.33984 7.98145ZM11.1758 8.35059V8.14844C11.1758 7.46289 11.2754 6.82715 11.4746 6.24121C11.6738 5.64941 11.9609 5.13672 12.3359 4.70312C12.7109 4.26367 13.165 3.92383 13.6982 3.68359C14.2314 3.4375 14.8291 3.31445 15.4912 3.31445C16.1592 3.31445 16.7598 3.4375 17.293 3.68359C17.832 3.92383 18.2891 4.26367 18.6641 4.70312C19.0449 5.13672 19.335 5.64941 19.5342 6.24121C19.7334 6.82715 19.833 7.46289 19.833 8.14844V8.35059C19.833 9.03613 19.7334 9.67188 19.5342 10.2578C19.335 10.8438 19.0449 11.3564 18.6641 11.7959C18.2891 12.2295 17.835 12.5693 17.3018 12.8154C16.7744 13.0557 16.1768 13.1758 15.5088 13.1758C14.8408 13.1758 14.2402 13.0557 13.707 12.8154C13.1738 12.5693 12.7168 12.2295 12.3359 11.7959C11.9609 11.3564 11.6738 10.8438 11.4746 10.2578C11.2754 9.67188 11.1758 9.03613 11.1758 8.35059ZM12.8018 8.14844V8.35059C12.8018 8.8252 12.8574 9.27344 12.9688 9.69531C13.0801 10.1113 13.2471 10.4805 13.4697 10.8027C13.6982 11.125 13.9824 11.3799 14.3223 11.5674C14.6621 11.749 15.0576 11.8398 15.5088 11.8398C15.9541 11.8398 16.3438 11.749 16.6777 11.5674C17.0176 11.3799 17.2988 11.125 17.5215 10.8027C17.7441 10.4805 17.9111 10.1113 18.0225 9.69531C18.1396 9.27344 18.1982 8.8252 18.1982 8.35059V8.14844C18.1982 7.67969 18.1396 7.2373 18.0225 6.82129C17.9111 6.39941 17.7412 6.02734 17.5127 5.70508C17.29 5.37695 17.0088 5.11914 16.6689 4.93164C16.335 4.74414 15.9424 4.65039 15.4912 4.65039C15.0459 4.65039 14.6533 4.74414 14.3135 4.93164C13.9795 5.11914 13.6982 5.37695 13.4697 5.70508C13.2471 6.02734 13.0801 6.39941 12.9688 6.82129C12.8574 7.2373 12.8018 7.67969 12.8018 8.14844ZM23.498 4.98438V13H21.8721V3.49023H23.4541L23.498 4.98438ZM26.4688 3.4375L26.46 4.94922C26.3252 4.91992 26.1963 4.90234 26.0732 4.89648C25.9561 4.88477 25.8213 4.87891 25.6689 4.87891C25.2939 4.87891 24.9629 4.9375 24.6758 5.05469C24.3887 5.17188 24.1455 5.33594 23.9463 5.54688C23.7471 5.75781 23.5889 6.00977 23.4717 6.30273C23.3604 6.58984 23.2871 6.90625 23.252 7.25195L22.7949 7.51562C22.7949 6.94141 22.8506 6.40234 22.9619 5.89844C23.0791 5.39453 23.2578 4.94922 23.498 4.5625C23.7383 4.16992 24.043 3.86523 24.4121 3.64844C24.7871 3.42578 25.2324 3.31445 25.748 3.31445C25.8652 3.31445 26 3.3291 26.1523 3.3584C26.3047 3.38184 26.4102 3.4082 26.4688 3.4375ZM32.3926 3.49023V4.73828H27.251V3.49023H32.3926ZM28.9912 1.17871H30.6172V10.6445C30.6172 10.9668 30.667 11.21 30.7666 11.374C30.8662 11.5381 30.9951 11.6465 31.1533 11.6992C31.3115 11.752 31.4814 11.7783 31.6631 11.7783C31.7979 11.7783 31.9385 11.7666 32.085 11.7432C32.2373 11.7139 32.3516 11.6904 32.4277 11.6729L32.4365 13C32.3076 13.041 32.1377 13.0791 31.9268 13.1143C31.7217 13.1553 31.4727 13.1758 31.1797 13.1758C30.7812 13.1758 30.415 13.0967 30.0811 12.9385C29.7471 12.7803 29.4805 12.5166 29.2812 12.1475C29.0879 11.7725 28.9912 11.2686 28.9912 10.6357V1.17871ZM35.9258 4.98438V13H34.2998V3.49023H35.8818L35.9258 4.98438ZM38.8965 3.4375L38.8877 4.94922C38.7529 4.91992 38.624 4.90234 38.501 4.89648C38.3838 4.88477 38.249 4.87891 38.0967 4.87891C37.7217 4.87891 37.3906 4.9375 37.1035 5.05469C36.8164 5.17188 36.5732 5.33594 36.374 5.54688C36.1748 5.75781 36.0166 6.00977 35.8994 6.30273C35.7881 6.58984 35.7148 6.90625 35.6797 7.25195L35.2227 7.51562C35.2227 6.94141 35.2783 6.40234 35.3896 5.89844C35.5068 5.39453 35.6855 4.94922 35.9258 4.5625C36.166 4.16992 36.4707 3.86523 36.8398 3.64844C37.2148 3.42578 37.6602 3.31445 38.1758 3.31445C38.293 3.31445 38.4277 3.3291 38.5801 3.3584C38.7324 3.38184 38.8379 3.4082 38.8965 3.4375ZM45.6553 11.374V6.47852C45.6553 6.10352 45.5791 5.77832 45.4268 5.50293C45.2803 5.22168 45.0576 5.00488 44.7588 4.85254C44.46 4.7002 44.0908 4.62402 43.6514 4.62402C43.2412 4.62402 42.8809 4.69434 42.5703 4.83496C42.2656 4.97559 42.0254 5.16016 41.8496 5.38867C41.6797 5.61719 41.5947 5.86328 41.5947 6.12695H39.9688C39.9688 5.78711 40.0566 5.4502 40.2324 5.11621C40.4082 4.78223 40.6602 4.48047 40.9883 4.21094C41.3223 3.93555 41.7207 3.71875 42.1836 3.56055C42.6523 3.39648 43.1738 3.31445 43.748 3.31445C44.4395 3.31445 45.0488 3.43164 45.5762 3.66602C46.1094 3.90039 46.5254 4.25488 46.8242 4.72949C47.1289 5.19824 47.2812 5.78711 47.2812 6.49609V10.9258C47.2812 11.2422 47.3076 11.5791 47.3604 11.9365C47.4189 12.2939 47.5039 12.6016 47.6152 12.8594V13H45.9189C45.8369 12.8125 45.7725 12.5635 45.7256 12.2529C45.6787 11.9365 45.6553 11.6436 45.6553 11.374ZM45.9365 7.23438L45.9541 8.37695H44.3105C43.8477 8.37695 43.4346 8.41504 43.0713 8.49121C42.708 8.56152 42.4033 8.66992 42.1572 8.81641C41.9111 8.96289 41.7236 9.14746 41.5947 9.37012C41.4658 9.58691 41.4014 9.8418 41.4014 10.1348C41.4014 10.4336 41.4688 10.7061 41.6035 10.9521C41.7383 11.1982 41.9404 11.3945 42.21 11.541C42.4854 11.6816 42.8223 11.752 43.2207 11.752C43.7188 11.752 44.1582 11.6465 44.5391 11.4355C44.9199 11.2246 45.2217 10.9668 45.4443 10.6621C45.6729 10.3574 45.7959 10.0615 45.8135 9.77441L46.5078 10.5566C46.4668 10.8027 46.3555 11.0752 46.1738 11.374C45.9922 11.6729 45.749 11.96 45.4443 12.2354C45.1455 12.5049 44.7881 12.7305 44.3721 12.9121C43.9619 13.0879 43.499 13.1758 42.9834 13.1758C42.3389 13.1758 41.7734 13.0498 41.2871 12.7979C40.8066 12.5459 40.4316 12.209 40.1621 11.7871C39.8984 11.3594 39.7666 10.8818 39.7666 10.3545C39.7666 9.84473 39.8662 9.39648 40.0654 9.00977C40.2646 8.61719 40.5518 8.29199 40.9268 8.03418C41.3018 7.77051 41.7529 7.57129 42.2803 7.43652C42.8076 7.30176 43.3965 7.23438 44.0469 7.23438H45.9365ZM51.6055 3.49023V13H49.9707V3.49023H51.6055ZM49.8477 0.967773C49.8477 0.704102 49.9268 0.481445 50.085 0.299805C50.249 0.118164 50.4893 0.0273438 50.8057 0.0273438C51.1162 0.0273438 51.3535 0.118164 51.5176 0.299805C51.6875 0.481445 51.7725 0.704102 51.7725 0.967773C51.7725 1.21973 51.6875 1.43652 51.5176 1.61816C51.3535 1.79395 51.1162 1.88184 50.8057 1.88184C50.4893 1.88184 50.249 1.79395 50.085 1.61816C49.9268 1.43652 49.8477 1.21973 49.8477 0.967773ZM58.1973 3.49023V4.73828H53.0557V3.49023H58.1973ZM54.7959 1.17871H56.4219V10.6445C56.4219 10.9668 56.4717 11.21 56.5713 11.374C56.6709 11.5381 56.7998 11.6465 56.958 11.6992C57.1162 11.752 57.2861 11.7783 57.4678 11.7783C57.6025 11.7783 57.7432 11.7666 57.8896 11.7432C58.042 11.7139 58.1562 11.6904 58.2324 11.6729L58.2412 13C58.1123 13.041 57.9424 13.0791 57.7314 13.1143C57.5264 13.1553 57.2773 13.1758 56.9844 13.1758C56.5859 13.1758 56.2197 13.0967 55.8857 12.9385C55.5518 12.7803 55.2852 12.5166 55.0859 12.1475C54.8926 11.7725 54.7959 11.2686 54.7959 10.6357V1.17871Z" fill="black"/>
</svg>
