<svg width="76" height="18" viewBox="0 0 76 18" fill="none" xmlns="http://www.w3.org/2000/svg">
<path d="M8.39844 10.7656C8.39844 10.4668 8.35156 10.2031 8.25781 9.97461C8.16992 9.74023 8.01172 9.5293 7.7832 9.3418C7.56055 9.1543 7.25 8.97559 6.85156 8.80566C6.45898 8.63574 5.96094 8.46289 5.35742 8.28711C4.72461 8.09961 4.15332 7.8916 3.64355 7.66309C3.13379 7.42871 2.69727 7.16211 2.33398 6.86328C1.9707 6.56445 1.69238 6.22168 1.49902 5.83496C1.30566 5.44824 1.20898 5.00586 1.20898 4.50781C1.20898 4.00977 1.31152 3.5498 1.5166 3.12793C1.72168 2.70605 2.01465 2.33984 2.39551 2.0293C2.78223 1.71289 3.24219 1.4668 3.77539 1.29102C4.30859 1.11523 4.90332 1.02734 5.55957 1.02734C6.52051 1.02734 7.33496 1.21191 8.00293 1.58105C8.67676 1.94434 9.18945 2.42188 9.54102 3.01367C9.89258 3.59961 10.0684 4.22656 10.0684 4.89453H8.38086C8.38086 4.41406 8.27832 3.98926 8.07324 3.62012C7.86816 3.24512 7.55762 2.95215 7.1416 2.74121C6.72559 2.52441 6.19824 2.41602 5.55957 2.41602C4.95605 2.41602 4.45801 2.50684 4.06543 2.68848C3.67285 2.87012 3.37988 3.11621 3.18652 3.42676C2.99902 3.7373 2.90527 4.0918 2.90527 4.49023C2.90527 4.75977 2.96094 5.00586 3.07227 5.22852C3.18945 5.44531 3.36816 5.64746 3.6084 5.83496C3.85449 6.02246 4.16504 6.19531 4.54004 6.35352C4.9209 6.51172 5.375 6.66406 5.90234 6.81055C6.62891 7.01562 7.25586 7.24414 7.7832 7.49609C8.31055 7.74805 8.74414 8.03223 9.08398 8.34863C9.42969 8.65918 9.68457 9.01367 9.84863 9.41211C10.0186 9.80469 10.1035 10.25 10.1035 10.748C10.1035 11.2695 9.99805 11.7412 9.78711 12.1631C9.57617 12.585 9.27441 12.9453 8.88184 13.2441C8.48926 13.543 8.01758 13.7744 7.4668 13.9385C6.92188 14.0967 6.3125 14.1758 5.63867 14.1758C5.04688 14.1758 4.46387 14.0938 3.88965 13.9297C3.32129 13.7656 2.80273 13.5195 2.33398 13.1914C1.87109 12.8633 1.49902 12.459 1.21777 11.9785C0.942383 11.4922 0.804688 10.9297 0.804688 10.291H2.49219C2.49219 10.7305 2.57715 11.1084 2.74707 11.4248C2.91699 11.7354 3.14844 11.9932 3.44141 12.1982C3.74023 12.4033 4.07715 12.5557 4.45215 12.6553C4.83301 12.749 5.22852 12.7959 5.63867 12.7959C6.23047 12.7959 6.73145 12.7139 7.1416 12.5498C7.55176 12.3857 7.8623 12.1514 8.07324 11.8467C8.29004 11.542 8.39844 11.1816 8.39844 10.7656ZM15.8252 12.8398C16.2119 12.8398 16.5693 12.7607 16.8975 12.6025C17.2256 12.4443 17.4951 12.2275 17.7061 11.9521C17.917 11.6709 18.0371 11.3516 18.0664 10.9941H19.6133C19.584 11.5566 19.3936 12.0811 19.042 12.5674C18.6963 13.0479 18.2422 13.4375 17.6797 13.7363C17.1172 14.0293 16.499 14.1758 15.8252 14.1758C15.1104 14.1758 14.4863 14.0498 13.9531 13.7979C13.4258 13.5459 12.9863 13.2002 12.6348 12.7607C12.2891 12.3213 12.0283 11.8174 11.8525 11.249C11.6826 10.6748 11.5977 10.0684 11.5977 9.42969V9.06055C11.5977 8.42188 11.6826 7.81836 11.8525 7.25C12.0283 6.67578 12.2891 6.16895 12.6348 5.72949C12.9863 5.29004 13.4258 4.94434 13.9531 4.69238C14.4863 4.44043 15.1104 4.31445 15.8252 4.31445C16.5693 4.31445 17.2197 4.4668 17.7764 4.77148C18.333 5.07031 18.7695 5.48047 19.0859 6.00195C19.4082 6.51758 19.584 7.10352 19.6133 7.75977H18.0664C18.0371 7.36719 17.9258 7.0127 17.7324 6.69629C17.5449 6.37988 17.2871 6.12793 16.959 5.94043C16.6367 5.74707 16.2588 5.65039 15.8252 5.65039C15.3271 5.65039 14.9082 5.75 14.5684 5.94922C14.2344 6.14258 13.9678 6.40625 13.7686 6.74023C13.5752 7.06836 13.4346 7.43457 13.3467 7.83887C13.2646 8.2373 13.2236 8.64453 13.2236 9.06055V9.42969C13.2236 9.8457 13.2646 10.2559 13.3467 10.6602C13.4287 11.0645 13.5664 11.4307 13.7598 11.7588C13.959 12.0869 14.2256 12.3506 14.5596 12.5498C14.8994 12.7432 15.3213 12.8398 15.8252 12.8398ZM27.2598 11.8027V4.49023H28.8945V14H27.3389L27.2598 11.8027ZM27.5674 9.79883L28.2441 9.78125C28.2441 10.4141 28.1768 11 28.042 11.5391C27.9131 12.0723 27.7021 12.5352 27.4092 12.9277C27.1162 13.3203 26.7324 13.6279 26.2578 13.8506C25.7832 14.0674 25.2061 14.1758 24.5264 14.1758C24.0635 14.1758 23.6387 14.1084 23.252 13.9736C22.8711 13.8389 22.543 13.6309 22.2676 13.3496C21.9922 13.0684 21.7783 12.7021 21.626 12.251C21.4795 11.7998 21.4062 11.2578 21.4062 10.625V4.49023H23.0322V10.6426C23.0322 11.0703 23.0791 11.4248 23.1729 11.7061C23.2725 11.9814 23.4043 12.2012 23.5684 12.3652C23.7383 12.5234 23.9258 12.6348 24.1309 12.6992C24.3418 12.7637 24.5586 12.7959 24.7812 12.7959C25.4727 12.7959 26.0205 12.6641 26.4248 12.4004C26.8291 12.1309 27.1191 11.7705 27.2949 11.3193C27.4766 10.8623 27.5674 10.3555 27.5674 9.79883ZM33.1396 0.5V14H31.5049V0.5H33.1396ZM37.376 6.31836V17.6562H35.7412V4.49023H37.2354L37.376 6.31836ZM43.7832 9.16602V9.35059C43.7832 10.042 43.7012 10.6836 43.5371 11.2754C43.373 11.8613 43.1328 12.3711 42.8164 12.8047C42.5059 13.2383 42.1221 13.5752 41.665 13.8154C41.208 14.0557 40.6836 14.1758 40.0918 14.1758C39.4883 14.1758 38.9551 14.0762 38.4922 13.877C38.0293 13.6777 37.6367 13.3877 37.3145 13.0068C36.9922 12.626 36.7344 12.1689 36.541 11.6357C36.3535 11.1025 36.2246 10.502 36.1543 9.83398V8.84961C36.2246 8.14648 36.3564 7.5166 36.5498 6.95996C36.7432 6.40332 36.998 5.92871 37.3145 5.53613C37.6367 5.1377 38.0264 4.83594 38.4834 4.63086C38.9404 4.41992 39.4678 4.31445 40.0654 4.31445C40.6631 4.31445 41.1934 4.43164 41.6562 4.66602C42.1191 4.89453 42.5088 5.22266 42.8252 5.65039C43.1416 6.07812 43.3789 6.59082 43.5371 7.18848C43.7012 7.78027 43.7832 8.43945 43.7832 9.16602ZM42.1484 9.35059V9.16602C42.1484 8.69141 42.0986 8.24609 41.999 7.83008C41.8994 7.4082 41.7441 7.03906 41.5332 6.72266C41.3281 6.40039 41.0645 6.14844 40.7422 5.9668C40.4199 5.7793 40.0361 5.68555 39.5908 5.68555C39.1807 5.68555 38.8232 5.75586 38.5186 5.89648C38.2197 6.03711 37.9648 6.22754 37.7539 6.46777C37.543 6.70215 37.3701 6.97168 37.2354 7.27637C37.1064 7.5752 37.0098 7.88574 36.9453 8.20801V10.4844C37.0625 10.8945 37.2266 11.2812 37.4375 11.6445C37.6484 12.002 37.9297 12.292 38.2812 12.5146C38.6328 12.7314 39.0752 12.8398 39.6084 12.8398C40.0479 12.8398 40.4258 12.749 40.7422 12.5674C41.0645 12.3799 41.3281 12.125 41.5332 11.8027C41.7441 11.4805 41.8994 11.1113 41.999 10.6953C42.0986 10.2734 42.1484 9.8252 42.1484 9.35059ZM49.8389 4.49023V5.73828H44.6973V4.49023H49.8389ZM46.4375 2.17871H48.0635V11.6445C48.0635 11.9668 48.1133 12.21 48.2129 12.374C48.3125 12.5381 48.4414 12.6465 48.5996 12.6992C48.7578 12.752 48.9277 12.7783 49.1094 12.7783C49.2441 12.7783 49.3848 12.7666 49.5312 12.7432C49.6836 12.7139 49.7979 12.6904 49.874 12.6729L49.8828 14C49.7539 14.041 49.584 14.0791 49.373 14.1143C49.168 14.1553 48.9189 14.1758 48.626 14.1758C48.2275 14.1758 47.8613 14.0967 47.5273 13.9385C47.1934 13.7803 46.9268 13.5166 46.7275 13.1475C46.5342 12.7725 46.4375 12.2686 46.4375 11.6357V2.17871ZM57.5645 11.8027V4.49023H59.1992V14H57.6436L57.5645 11.8027ZM57.8721 9.79883L58.5488 9.78125C58.5488 10.4141 58.4814 11 58.3467 11.5391C58.2178 12.0723 58.0068 12.5352 57.7139 12.9277C57.4209 13.3203 57.0371 13.6279 56.5625 13.8506C56.0879 14.0674 55.5107 14.1758 54.8311 14.1758C54.3682 14.1758 53.9434 14.1084 53.5566 13.9736C53.1758 13.8389 52.8477 13.6309 52.5723 13.3496C52.2969 13.0684 52.083 12.7021 51.9307 12.251C51.7842 11.7998 51.7109 11.2578 51.7109 10.625V4.49023H53.3369V10.6426C53.3369 11.0703 53.3838 11.4248 53.4775 11.7061C53.5771 11.9814 53.709 12.2012 53.873 12.3652C54.043 12.5234 54.2305 12.6348 54.4355 12.6992C54.6465 12.7637 54.8633 12.7959 55.0859 12.7959C55.7773 12.7959 56.3252 12.6641 56.7295 12.4004C57.1338 12.1309 57.4238 11.7705 57.5996 11.3193C57.7812 10.8623 57.8721 10.3555 57.8721 9.79883ZM63.3037 5.98438V14H61.6777V4.49023H63.2598L63.3037 5.98438ZM66.2744 4.4375L66.2656 5.94922C66.1309 5.91992 66.002 5.90234 65.8789 5.89648C65.7617 5.88477 65.627 5.87891 65.4746 5.87891C65.0996 5.87891 64.7686 5.9375 64.4814 6.05469C64.1943 6.17188 63.9512 6.33594 63.752 6.54688C63.5527 6.75781 63.3945 7.00977 63.2773 7.30273C63.166 7.58984 63.0928 7.90625 63.0576 8.25195L62.6006 8.51562C62.6006 7.94141 62.6562 7.40234 62.7676 6.89844C62.8848 6.39453 63.0635 5.94922 63.3037 5.5625C63.5439 5.16992 63.8486 4.86523 64.2178 4.64844C64.5928 4.42578 65.0381 4.31445 65.5537 4.31445C65.6709 4.31445 65.8057 4.3291 65.958 4.3584C66.1104 4.38184 66.2158 4.4082 66.2744 4.4375ZM71.5479 14.1758C70.8857 14.1758 70.2852 14.0645 69.7461 13.8418C69.2129 13.6133 68.7529 13.2939 68.3662 12.8838C67.9854 12.4736 67.6924 11.9873 67.4873 11.4248C67.2822 10.8623 67.1797 10.2471 67.1797 9.5791V9.20996C67.1797 8.43652 67.2939 7.74805 67.5225 7.14453C67.751 6.53516 68.0615 6.01953 68.4541 5.59766C68.8467 5.17578 69.292 4.85645 69.79 4.63965C70.2881 4.42285 70.8037 4.31445 71.3369 4.31445C72.0166 4.31445 72.6025 4.43164 73.0947 4.66602C73.5928 4.90039 74 5.22852 74.3164 5.65039C74.6328 6.06641 74.8672 6.55859 75.0195 7.12695C75.1719 7.68945 75.248 8.30469 75.248 8.97266V9.70215H68.1465V8.375H73.6221V8.25195C73.5986 7.83008 73.5107 7.41992 73.3584 7.02148C73.2119 6.62305 72.9775 6.29492 72.6553 6.03711C72.333 5.7793 71.8936 5.65039 71.3369 5.65039C70.9678 5.65039 70.6279 5.72949 70.3174 5.8877C70.0068 6.04004 69.7402 6.26855 69.5176 6.57324C69.2949 6.87793 69.1221 7.25 68.999 7.68945C68.876 8.12891 68.8145 8.63574 68.8145 9.20996V9.5791C68.8145 10.0303 68.876 10.4551 68.999 10.8535C69.1279 11.2461 69.3125 11.5918 69.5527 11.8906C69.7988 12.1895 70.0947 12.4238 70.4404 12.5938C70.792 12.7637 71.1904 12.8486 71.6357 12.8486C72.21 12.8486 72.6963 12.7314 73.0947 12.4971C73.4932 12.2627 73.8418 11.9492 74.1406 11.5566L75.125 12.3389C74.9199 12.6494 74.6592 12.9453 74.3428 13.2266C74.0264 13.5078 73.6367 13.7363 73.1738 13.9121C72.7168 14.0879 72.1748 14.1758 71.5479 14.1758Z" fill="black"/>
</svg>
