<svg width="59" height="15" viewBox="0 0 59 15" fill="none" xmlns="http://www.w3.org/2000/svg">
<path d="M8.54688 10.7656C8.54688 10.4668 8.5 10.2031 8.40625 9.97461C8.31836 9.74023 8.16016 9.5293 7.93164 9.3418C7.70898 9.1543 7.39844 8.97559 7 8.80566C6.60742 8.63574 6.10938 8.46289 5.50586 8.28711C4.87305 8.09961 4.30176 7.8916 3.79199 7.66309C3.28223 7.42871 2.8457 7.16211 2.48242 6.86328C2.11914 6.56445 1.84082 6.22168 1.64746 5.83496C1.4541 5.44824 1.35742 5.00586 1.35742 4.50781C1.35742 4.00977 1.45996 3.5498 1.66504 3.12793C1.87012 2.70605 2.16309 2.33984 2.54395 2.0293C2.93066 1.71289 3.39062 1.4668 3.92383 1.29102C4.45703 1.11523 5.05176 1.02734 5.70801 1.02734C6.66895 1.02734 7.4834 1.21191 8.15137 1.58105C8.8252 1.94434 9.33789 2.42188 9.68945 3.01367C10.041 3.59961 10.2168 4.22656 10.2168 4.89453H8.5293C8.5293 4.41406 8.42676 3.98926 8.22168 3.62012C8.0166 3.24512 7.70605 2.95215 7.29004 2.74121C6.87402 2.52441 6.34668 2.41602 5.70801 2.41602C5.10449 2.41602 4.60645 2.50684 4.21387 2.68848C3.82129 2.87012 3.52832 3.11621 3.33496 3.42676C3.14746 3.7373 3.05371 4.0918 3.05371 4.49023C3.05371 4.75977 3.10938 5.00586 3.2207 5.22852C3.33789 5.44531 3.5166 5.64746 3.75684 5.83496C4.00293 6.02246 4.31348 6.19531 4.68848 6.35352C5.06934 6.51172 5.52344 6.66406 6.05078 6.81055C6.77734 7.01562 7.4043 7.24414 7.93164 7.49609C8.45898 7.74805 8.89258 8.03223 9.23242 8.34863C9.57812 8.65918 9.83301 9.01367 9.99707 9.41211C10.167 9.80469 10.252 10.25 10.252 10.748C10.252 11.2695 10.1465 11.7412 9.93555 12.1631C9.72461 12.585 9.42285 12.9453 9.03027 13.2441C8.6377 13.543 8.16602 13.7744 7.61523 13.9385C7.07031 14.0967 6.46094 14.1758 5.78711 14.1758C5.19531 14.1758 4.6123 14.0938 4.03809 13.9297C3.46973 13.7656 2.95117 13.5195 2.48242 13.1914C2.01953 12.8633 1.64746 12.459 1.36621 11.9785C1.09082 11.4922 0.953125 10.9297 0.953125 10.291H2.64062C2.64062 10.7305 2.72559 11.1084 2.89551 11.4248C3.06543 11.7354 3.29688 11.9932 3.58984 12.1982C3.88867 12.4033 4.22559 12.5557 4.60059 12.6553C4.98145 12.749 5.37695 12.7959 5.78711 12.7959C6.37891 12.7959 6.87988 12.7139 7.29004 12.5498C7.7002 12.3857 8.01074 12.1514 8.22168 11.8467C8.43848 11.542 8.54688 11.1816 8.54688 10.7656ZM16.1494 4.49023V5.73828H11.0078V4.49023H16.1494ZM12.748 2.17871H14.374V11.6445C14.374 11.9668 14.4238 12.21 14.5234 12.374C14.623 12.5381 14.752 12.6465 14.9102 12.6992C15.0684 12.752 15.2383 12.7783 15.4199 12.7783C15.5547 12.7783 15.6953 12.7666 15.8418 12.7432C15.9941 12.7139 16.1084 12.6904 16.1846 12.6729L16.1934 14C16.0645 14.041 15.8945 14.0791 15.6836 14.1143C15.4785 14.1553 15.2295 14.1758 14.9365 14.1758C14.5381 14.1758 14.1719 14.0967 13.8379 13.9385C13.5039 13.7803 13.2373 13.5166 13.0381 13.1475C12.8447 12.7725 12.748 12.2686 12.748 11.6357V2.17871ZM19.8232 4.49023V14H18.1885V4.49023H19.8232ZM18.0654 1.96777C18.0654 1.7041 18.1445 1.48145 18.3027 1.2998C18.4668 1.11816 18.707 1.02734 19.0234 1.02734C19.334 1.02734 19.5713 1.11816 19.7354 1.2998C19.9053 1.48145 19.9902 1.7041 19.9902 1.96777C19.9902 2.21973 19.9053 2.43652 19.7354 2.61816C19.5713 2.79395 19.334 2.88184 19.0234 2.88184C18.707 2.88184 18.4668 2.79395 18.3027 2.61816C18.1445 2.43652 18.0654 2.21973 18.0654 1.96777ZM24.2002 0.5V14H22.5654V0.5H24.2002ZM28.5771 0.5V14H26.9424V0.5H28.5771ZM37.4189 0.5V14H35.7842V0.5H37.4189ZM41.7959 4.49023V14H40.1611V4.49023H41.7959ZM40.0381 1.96777C40.0381 1.7041 40.1172 1.48145 40.2754 1.2998C40.4395 1.11816 40.6797 1.02734 40.9961 1.02734C41.3066 1.02734 41.5439 1.11816 41.708 1.2998C41.8779 1.48145 41.9629 1.7041 41.9629 1.96777C41.9629 2.21973 41.8779 2.43652 41.708 2.61816C41.5439 2.79395 41.3066 2.88184 40.9961 2.88184C40.6797 2.88184 40.4395 2.79395 40.2754 2.61816C40.1172 2.43652 40.0381 2.21973 40.0381 1.96777ZM46.832 14H45.2061V3.48828C45.2061 2.80273 45.3291 2.22559 45.5752 1.75684C45.8271 1.28223 46.1875 0.924805 46.6562 0.68457C47.125 0.438477 47.6816 0.31543 48.3262 0.31543C48.5137 0.31543 48.7012 0.327148 48.8887 0.350586C49.082 0.374023 49.2695 0.40918 49.4512 0.456055L49.3633 1.7832C49.2402 1.75391 49.0996 1.7334 48.9414 1.72168C48.7891 1.70996 48.6367 1.7041 48.4844 1.7041C48.1387 1.7041 47.8398 1.77441 47.5879 1.91504C47.3418 2.0498 47.1543 2.24902 47.0254 2.5127C46.8965 2.77637 46.832 3.10156 46.832 3.48828V14ZM48.8535 4.49023V5.73828H43.7031V4.49023H48.8535ZM54.3994 14.1758C53.7373 14.1758 53.1367 14.0645 52.5977 13.8418C52.0645 13.6133 51.6045 13.2939 51.2178 12.8838C50.8369 12.4736 50.5439 11.9873 50.3389 11.4248C50.1338 10.8623 50.0312 10.2471 50.0312 9.5791V9.20996C50.0312 8.43652 50.1455 7.74805 50.374 7.14453C50.6025 6.53516 50.9131 6.01953 51.3057 5.59766C51.6982 5.17578 52.1436 4.85645 52.6416 4.63965C53.1396 4.42285 53.6553 4.31445 54.1885 4.31445C54.8682 4.31445 55.4541 4.43164 55.9463 4.66602C56.4443 4.90039 56.8516 5.22852 57.168 5.65039C57.4844 6.06641 57.7188 6.55859 57.8711 7.12695C58.0234 7.68945 58.0996 8.30469 58.0996 8.97266V9.70215H50.998V8.375H56.4736V8.25195C56.4502 7.83008 56.3623 7.41992 56.21 7.02148C56.0635 6.62305 55.8291 6.29492 55.5068 6.03711C55.1846 5.7793 54.7451 5.65039 54.1885 5.65039C53.8193 5.65039 53.4795 5.72949 53.1689 5.8877C52.8584 6.04004 52.5918 6.26855 52.3691 6.57324C52.1465 6.87793 51.9736 7.25 51.8506 7.68945C51.7275 8.12891 51.666 8.63574 51.666 9.20996V9.5791C51.666 10.0303 51.7275 10.4551 51.8506 10.8535C51.9795 11.2461 52.1641 11.5918 52.4043 11.8906C52.6504 12.1895 52.9463 12.4238 53.292 12.5938C53.6436 12.7637 54.042 12.8486 54.4873 12.8486C55.0615 12.8486 55.5479 12.7314 55.9463 12.4971C56.3447 12.2627 56.6934 11.9492 56.9922 11.5566L57.9766 12.3389C57.7715 12.6494 57.5107 12.9453 57.1943 13.2266C56.8779 13.5078 56.4883 13.7363 56.0254 13.9121C55.5684 14.0879 55.0264 14.1758 54.3994 14.1758Z" fill="black"/>
</svg>
