<svg width="192" height="39" viewBox="0 0 192 39" fill="none" xmlns="http://www.w3.org/2000/svg">
<path d="M17.2852 5.60254L5.51758 38H0.708008L14.2578 2.45312H17.3584L17.2852 5.60254ZM27.1484 38L15.3564 5.60254L15.2832 2.45312H18.3838L31.9824 38H27.1484ZM26.5381 24.8408V28.6982H6.56738V24.8408H26.5381ZM39.5762 15.7344V38H35.0596V11.584H39.4541L39.5762 15.7344ZM47.8281 11.4375L47.8037 15.6367C47.4294 15.5553 47.0713 15.5065 46.7295 15.4902C46.404 15.4577 46.0296 15.4414 45.6064 15.4414C44.5648 15.4414 43.6452 15.6042 42.8477 15.9297C42.0501 16.2552 41.3747 16.7109 40.8213 17.2969C40.2679 17.8828 39.8285 18.5827 39.5029 19.3965C39.1937 20.194 38.9902 21.0729 38.8926 22.0332L37.623 22.7656C37.623 21.1706 37.7777 19.6732 38.0869 18.2734C38.4124 16.8737 38.9089 15.6367 39.5762 14.5625C40.2435 13.472 41.0898 12.6257 42.1152 12.0234C43.1569 11.4049 44.3939 11.0957 45.8262 11.0957C46.1517 11.0957 46.526 11.1364 46.9492 11.2178C47.3724 11.2829 47.6654 11.3561 47.8281 11.4375ZM63.2832 11.584V15.0508H49.001V11.584H63.2832ZM53.835 5.16309H58.3516V31.457C58.3516 32.3522 58.4899 33.0277 58.7666 33.4834C59.0433 33.9391 59.4014 34.2402 59.8408 34.3867C60.2803 34.5332 60.7523 34.6064 61.2568 34.6064C61.6312 34.6064 62.0218 34.5739 62.4287 34.5088C62.8519 34.4274 63.1693 34.3623 63.3809 34.3135L63.4053 38C63.0472 38.1139 62.5752 38.2197 61.9893 38.3174C61.4196 38.4313 60.7279 38.4883 59.9141 38.4883C58.8073 38.4883 57.79 38.2686 56.8623 37.8291C55.9346 37.3896 55.194 36.6572 54.6406 35.6318C54.1035 34.5902 53.835 33.1904 53.835 31.4326V5.16309ZM74.2705 33.3125L81.0576 11.584H84.0361L83.4502 15.9053L76.541 38H73.6357L74.2705 33.3125ZM69.7051 11.584L75.4912 33.5566L75.9062 38H72.8545L65.1885 11.584H69.7051ZM90.5303 33.3857L96.0479 11.584H100.54L92.874 38H89.8467L90.5303 33.3857ZM84.6953 11.584L91.3359 32.9463L92.0928 38H89.2119L82.1074 15.8564L81.5215 11.584H84.6953ZM102.982 25.085V24.5234C102.982 22.6191 103.259 20.8532 103.812 19.2256C104.366 17.5817 105.163 16.1576 106.205 14.9531C107.247 13.7324 108.508 12.7884 109.989 12.1211C111.47 11.4375 113.131 11.0957 114.97 11.0957C116.825 11.0957 118.493 11.4375 119.975 12.1211C121.472 12.7884 122.742 13.7324 123.783 14.9531C124.841 16.1576 125.647 17.5817 126.2 19.2256C126.754 20.8532 127.03 22.6191 127.03 24.5234V25.085C127.03 26.9893 126.754 28.7552 126.2 30.3828C125.647 32.0104 124.841 33.4346 123.783 34.6553C122.742 35.8597 121.48 36.8037 119.999 37.4873C118.534 38.1546 116.874 38.4883 115.019 38.4883C113.163 38.4883 111.495 38.1546 110.014 37.4873C108.533 36.8037 107.263 35.8597 106.205 34.6553C105.163 33.4346 104.366 32.0104 103.812 30.3828C103.259 28.7552 102.982 26.9893 102.982 25.085ZM107.499 24.5234V25.085C107.499 26.4033 107.654 27.6484 107.963 28.8203C108.272 29.9759 108.736 31.0013 109.354 31.8965C109.989 32.7917 110.779 33.4997 111.723 34.0205C112.667 34.5251 113.765 34.7773 115.019 34.7773C116.256 34.7773 117.338 34.5251 118.266 34.0205C119.21 33.4997 119.991 32.7917 120.609 31.8965C121.228 31.0013 121.692 29.9759 122.001 28.8203C122.326 27.6484 122.489 26.4033 122.489 25.085V24.5234C122.489 23.2214 122.326 21.9925 122.001 20.8369C121.692 19.665 121.22 18.6315 120.585 17.7363C119.966 16.8249 119.185 16.1087 118.241 15.5879C117.313 15.0671 116.223 14.8066 114.97 14.8066C113.733 14.8066 112.642 15.0671 111.698 15.5879C110.771 16.1087 109.989 16.8249 109.354 17.7363C108.736 18.6315 108.272 19.665 107.963 20.8369C107.654 21.9925 107.499 23.2214 107.499 24.5234ZM136.211 15.7344V38H131.694V11.584H136.089L136.211 15.7344ZM144.463 11.4375L144.438 15.6367C144.064 15.5553 143.706 15.5065 143.364 15.4902C143.039 15.4577 142.664 15.4414 142.241 15.4414C141.2 15.4414 140.28 15.6042 139.482 15.9297C138.685 16.2552 138.009 16.7109 137.456 17.2969C136.903 17.8828 136.463 18.5827 136.138 19.3965C135.828 20.194 135.625 21.0729 135.527 22.0332L134.258 22.7656C134.258 21.1706 134.412 19.6732 134.722 18.2734C135.047 16.8737 135.544 15.6367 136.211 14.5625C136.878 13.472 137.725 12.6257 138.75 12.0234C139.792 11.4049 141.029 11.0957 142.461 11.0957C142.786 11.0957 143.161 11.1364 143.584 11.2178C144.007 11.2829 144.3 11.3561 144.463 11.4375ZM152.179 0.5V38H147.638V0.5H152.179ZM168.316 11.584L156.793 23.9131L150.348 30.6025L149.981 25.793L154.596 20.2754L162.799 11.584H168.316ZM164.19 38L154.767 25.4023L157.11 21.374L169.513 38H164.19ZM187.36 30.9932C187.36 30.3421 187.214 29.7399 186.921 29.1865C186.644 28.6169 186.066 28.1042 185.188 27.6484C184.325 27.1764 183.023 26.7695 181.281 26.4277C179.816 26.1185 178.49 25.7523 177.302 25.3291C176.13 24.9059 175.129 24.3932 174.299 23.791C173.485 23.1888 172.858 22.4808 172.419 21.667C171.979 20.8532 171.76 19.901 171.76 18.8105C171.76 17.7689 171.988 16.7842 172.443 15.8564C172.915 14.9287 173.575 14.1068 174.421 13.3906C175.284 12.6745 176.317 12.113 177.521 11.7061C178.726 11.2992 180.069 11.0957 181.55 11.0957C183.666 11.0957 185.472 11.4701 186.97 12.2188C188.467 12.9674 189.615 13.9684 190.412 15.2217C191.21 16.4587 191.608 17.834 191.608 19.3477H187.092C187.092 18.6152 186.872 17.9072 186.433 17.2236C186.009 16.5238 185.383 15.946 184.553 15.4902C183.739 15.0345 182.738 14.8066 181.55 14.8066C180.297 14.8066 179.279 15.002 178.498 15.3926C177.733 15.7669 177.172 16.2471 176.813 16.833C176.472 17.4189 176.301 18.0374 176.301 18.6885C176.301 19.1768 176.382 19.6162 176.545 20.0068C176.724 20.3812 177.033 20.7311 177.473 21.0566C177.912 21.3659 178.531 21.6589 179.328 21.9355C180.126 22.2122 181.143 22.4889 182.38 22.7656C184.545 23.2539 186.327 23.8398 187.727 24.5234C189.126 25.207 190.168 26.0452 190.852 27.0381C191.535 28.0309 191.877 29.2354 191.877 30.6514C191.877 31.807 191.633 32.8649 191.145 33.8252C190.673 34.7855 189.981 35.6156 189.069 36.3154C188.174 36.999 187.1 37.5361 185.847 37.9268C184.61 38.3011 183.218 38.4883 181.672 38.4883C179.344 38.4883 177.375 38.0732 175.764 37.2432C174.152 36.4131 172.932 35.3389 172.102 34.0205C171.271 32.7021 170.856 31.3105 170.856 29.8457H175.397C175.463 31.0827 175.821 32.0674 176.472 32.7998C177.123 33.516 177.92 34.0286 178.864 34.3379C179.808 34.6309 180.744 34.7773 181.672 34.7773C182.909 34.7773 183.942 34.6146 184.772 34.2891C185.619 33.9635 186.262 33.516 186.701 32.9463C187.141 32.3766 187.36 31.7256 187.36 30.9932Z" fill="black"/>
</svg>
