<svg width="117" height="33" viewBox="0 0 117 33" fill="none" xmlns="http://www.w3.org/2000/svg">
<rect width="116.001" height="33" fill="#F6F6F6"/>
<path fill-rule="evenodd" clip-rule="evenodd" d="M13.2935 16.5L10 19.7935L10.7071 20.5006L14.0006 17.2071L17.2942 20.5006L18.0013 19.7935L14.7077 16.5L18.0011 13.2066L17.294 12.4995L14.0006 15.7929L10.7072 12.4995L10.0001 13.2066L13.2935 16.5Z" fill="black"/>
<path d="M27.5737 11.0469H28.852L32.1127 19.1611L35.3666 11.0469H36.6518L32.6049 21H31.6069L27.5737 11.0469ZM27.1567 11.0469H28.2846L28.4692 17.1172V21H27.1567V11.0469ZM35.934 11.0469H37.062V21H35.7495V17.1172L35.934 11.0469ZM40.562 13.6035V21H39.2905V13.6035H40.562ZM39.1948 11.6416C39.1948 11.4365 39.2563 11.2633 39.3793 11.1221C39.5069 10.9808 39.6938 10.9102 39.9399 10.9102C40.1814 10.9102 40.366 10.9808 40.4936 11.1221C40.6258 11.2633 40.6918 11.4365 40.6918 11.6416C40.6918 11.8376 40.6258 12.0062 40.4936 12.1475C40.366 12.2842 40.1814 12.3525 39.9399 12.3525C39.6938 12.3525 39.5069 12.2842 39.3793 12.1475C39.2563 12.0062 39.1948 11.8376 39.1948 11.6416ZM43.4467 13.6035L45.0668 16.2969L46.7075 13.6035H48.1909L45.7709 17.2539L48.2661 21H46.8032L45.0942 18.2246L43.3852 21H41.9155L44.4037 17.2539L41.9907 13.6035H43.4467ZM52.4702 21.1367C51.9552 21.1367 51.4881 21.0501 51.0688 20.877C50.6541 20.6992 50.2963 20.4508 49.9955 20.1318C49.6993 19.8128 49.4715 19.4346 49.312 18.9971C49.1524 18.5596 49.0727 18.0811 49.0727 17.5615V17.2744C49.0727 16.6729 49.1616 16.1374 49.3393 15.668C49.517 15.194 49.7586 14.793 50.0639 14.4648C50.3692 14.1367 50.7156 13.8883 51.103 13.7197C51.4903 13.5511 51.8914 13.4668 52.3061 13.4668C52.8347 13.4668 53.2905 13.5579 53.6733 13.7402C54.0606 13.9225 54.3774 14.1777 54.6235 14.5059C54.8696 14.8294 55.0519 15.2122 55.1703 15.6543C55.2888 16.0918 55.3481 16.5703 55.3481 17.0898V17.6572H49.8246V16.625H54.0834V16.5293C54.0652 16.2012 53.9968 15.8822 53.8784 15.5723C53.7644 15.2624 53.5821 15.0072 53.3315 14.8066C53.0808 14.6061 52.739 14.5059 52.3061 14.5059C52.019 14.5059 51.7547 14.5674 51.5131 14.6904C51.2716 14.8089 51.0642 14.9867 50.8911 15.2236C50.7179 15.4606 50.5834 15.75 50.4877 16.0918C50.392 16.4336 50.3442 16.8278 50.3442 17.2744V17.5615C50.3442 17.9124 50.392 18.2428 50.4877 18.5527C50.588 18.8581 50.7315 19.127 50.9184 19.3594C51.1098 19.5918 51.3399 19.7741 51.6088 19.9062C51.8823 20.0384 52.1922 20.1045 52.5385 20.1045C52.9851 20.1045 53.3634 20.0133 53.6733 19.8311C53.9832 19.6488 54.2543 19.4049 54.4868 19.0996L55.2524 19.708C55.0929 19.9495 54.8901 20.1797 54.644 20.3984C54.3979 20.6172 54.0948 20.7949 53.7348 20.9316C53.3793 21.0684 52.9578 21.1367 52.4702 21.1367ZM61.4868 19.5645V10.5H62.7582V21H61.5961L61.4868 19.5645ZM56.5102 17.3838V17.2402C56.5102 16.6751 56.5786 16.1624 56.7153 15.7021C56.8565 15.2373 57.0548 14.8385 57.31 14.5059C57.5698 14.1732 57.8774 13.918 58.2328 13.7402C58.5929 13.5579 58.9939 13.4668 59.436 13.4668C59.9008 13.4668 60.3064 13.5488 60.6528 13.7129C61.0037 13.8724 61.2999 14.1071 61.5414 14.417C61.7875 14.7223 61.9812 15.0915 62.1225 15.5244C62.2638 15.9574 62.3618 16.4473 62.4164 16.9941V17.623C62.3663 18.1654 62.2683 18.653 62.1225 19.0859C61.9812 19.5189 61.7875 19.888 61.5414 20.1934C61.2999 20.4987 61.0037 20.7334 60.6528 20.8975C60.3019 21.057 59.8917 21.1367 59.4223 21.1367C58.9894 21.1367 58.5929 21.0433 58.2328 20.8564C57.8774 20.6696 57.5698 20.4076 57.31 20.0703C57.0548 19.7331 56.8565 19.3366 56.7153 18.8809C56.5786 18.4206 56.5102 17.9215 56.5102 17.3838ZM57.7817 17.2402V17.3838C57.7817 17.7529 57.8181 18.0993 57.8911 18.4229C57.9685 18.7464 58.087 19.0312 58.2465 19.2773C58.406 19.5234 58.6088 19.7171 58.8549 19.8584C59.101 19.9951 59.395 20.0635 59.7368 20.0635C60.156 20.0635 60.5001 19.9746 60.769 19.7969C61.0424 19.6191 61.2612 19.3844 61.4252 19.0928C61.5893 18.8011 61.7169 18.4844 61.808 18.1426V16.4951C61.7534 16.2445 61.6736 16.0029 61.5688 15.7705C61.4685 15.5335 61.3364 15.3239 61.1723 15.1416C61.0128 14.9548 60.8146 14.8066 60.5776 14.6973C60.3452 14.5879 60.0694 14.5332 59.7504 14.5332C59.4041 14.5332 59.1056 14.6061 58.8549 14.752C58.6088 14.8932 58.406 15.0892 58.2465 15.3398C58.087 15.5859 57.9685 15.873 57.8911 16.2012C57.8181 16.5247 57.7817 16.8711 57.7817 17.2402ZM68.808 11.0469H70.0864L73.3471 19.1611L76.601 11.0469H77.8862L73.8393 21H72.8412L68.808 11.0469ZM68.3911 11.0469H69.519L69.7036 17.1172V21H68.3911V11.0469ZM77.1684 11.0469H78.2963V21H76.9838V17.1172L77.1684 11.0469ZM83.4916 21.1367C82.9767 21.1367 82.5095 21.0501 82.0903 20.877C81.6756 20.6992 81.3178 20.4508 81.017 20.1318C80.7208 19.8128 80.4929 19.4346 80.3334 18.9971C80.1739 18.5596 80.0942 18.0811 80.0942 17.5615V17.2744C80.0942 16.6729 80.183 16.1374 80.3608 15.668C80.5385 15.194 80.78 14.793 81.0854 14.4648C81.3907 14.1367 81.7371 13.8883 82.1245 13.7197C82.5118 13.5511 82.9129 13.4668 83.3276 13.4668C83.8562 13.4668 84.312 13.5579 84.6948 13.7402C85.0821 13.9225 85.3989 14.1777 85.645 14.5059C85.8911 14.8294 86.0733 15.2122 86.1918 15.6543C86.3103 16.0918 86.3696 16.5703 86.3696 17.0898V17.6572H80.8461V16.625H85.1049V16.5293C85.0867 16.2012 85.0183 15.8822 84.8998 15.5723C84.7859 15.2624 84.6036 15.0072 84.353 14.8066C84.1023 14.6061 83.7605 14.5059 83.3276 14.5059C83.0405 14.5059 82.7761 14.5674 82.5346 14.6904C82.2931 14.8089 82.0857 14.9867 81.9125 15.2236C81.7394 15.4606 81.6049 15.75 81.5092 16.0918C81.4135 16.4336 81.3657 16.8278 81.3657 17.2744V17.5615C81.3657 17.9124 81.4135 18.2428 81.5092 18.5527C81.6095 18.8581 81.753 19.127 81.9399 19.3594C82.1313 19.5918 82.3614 19.7741 82.6303 19.9062C82.9037 20.0384 83.2136 20.1045 83.56 20.1045C84.0066 20.1045 84.3849 20.0133 84.6948 19.8311C85.0047 19.6488 85.2758 19.4049 85.5082 19.0996L86.2739 19.708C86.1144 19.9495 85.9116 20.1797 85.6655 20.3984C85.4194 20.6172 85.1163 20.7949 84.7563 20.9316C84.4008 21.0684 83.9793 21.1367 83.4916 21.1367ZM92.5082 19.5645V10.5H93.7797V21H92.6176L92.5082 19.5645ZM87.5317 17.3838V17.2402C87.5317 16.6751 87.6 16.1624 87.7368 15.7021C87.878 15.2373 88.0763 14.8385 88.3315 14.5059C88.5912 14.1732 88.8989 13.918 89.2543 13.7402C89.6144 13.5579 90.0154 13.4668 90.4575 13.4668C90.9223 13.4668 91.3279 13.5488 91.6743 13.7129C92.0252 13.8724 92.3214 14.1071 92.5629 14.417C92.809 14.7223 93.0027 15.0915 93.144 15.5244C93.2853 15.9574 93.3832 16.4473 93.4379 16.9941V17.623C93.3878 18.1654 93.2898 18.653 93.144 19.0859C93.0027 19.5189 92.809 19.888 92.5629 20.1934C92.3214 20.4987 92.0252 20.7334 91.6743 20.8975C91.3233 21.057 90.9132 21.1367 90.4438 21.1367C90.0108 21.1367 89.6144 21.0433 89.2543 20.8564C88.8989 20.6696 88.5912 20.4076 88.3315 20.0703C88.0763 19.7331 87.878 19.3366 87.7368 18.8809C87.6 18.4206 87.5317 17.9215 87.5317 17.3838ZM88.8032 17.2402V17.3838C88.8032 17.7529 88.8396 18.0993 88.9125 18.4229C88.99 18.7464 89.1085 19.0312 89.268 19.2773C89.4275 19.5234 89.6303 19.7171 89.8764 19.8584C90.1225 19.9951 90.4164 20.0635 90.7582 20.0635C91.1775 20.0635 91.5216 19.9746 91.7905 19.7969C92.0639 19.6191 92.2827 19.3844 92.4467 19.0928C92.6108 18.8011 92.7384 18.4844 92.8295 18.1426V16.4951C92.7748 16.2445 92.6951 16.0029 92.5903 15.7705C92.49 15.5335 92.3578 15.3239 92.1938 15.1416C92.0343 14.9548 91.836 14.8066 91.5991 14.6973C91.3666 14.5879 91.0909 14.5332 90.7719 14.5332C90.4256 14.5332 90.1271 14.6061 89.8764 14.752C89.6303 14.8932 89.4275 15.0892 89.268 15.3398C89.1085 15.5859 88.99 15.873 88.9125 16.2012C88.8396 16.5247 88.8032 16.8711 88.8032 17.2402ZM97.1225 13.6035V21H95.851V13.6035H97.1225ZM95.7553 11.6416C95.7553 11.4365 95.8168 11.2633 95.9399 11.1221C96.0675 10.9808 96.2543 10.9102 96.5004 10.9102C96.742 10.9102 96.9265 10.9808 97.0541 11.1221C97.1863 11.2633 97.2524 11.4365 97.2524 11.6416C97.2524 11.8376 97.1863 12.0062 97.0541 12.1475C96.9265 12.2842 96.742 12.3525 96.5004 12.3525C96.2543 12.3525 96.0675 12.2842 95.9399 12.1475C95.8168 12.0062 95.7553 11.8376 95.7553 11.6416ZM103.514 19.7354V15.9277C103.514 15.6361 103.455 15.3831 103.336 15.1689C103.222 14.9502 103.049 14.7816 102.817 14.6631C102.584 14.5446 102.297 14.4854 101.956 14.4854C101.636 14.4854 101.356 14.54 101.115 14.6494C100.878 14.7588 100.691 14.9023 100.554 15.0801C100.422 15.2578 100.356 15.4492 100.356 15.6543H99.0912C99.0912 15.39 99.1596 15.1279 99.2963 14.8682C99.433 14.6084 99.629 14.3737 99.8842 14.1641C100.144 13.9499 100.454 13.7812 100.814 13.6582C101.178 13.5306 101.584 13.4668 102.031 13.4668C102.568 13.4668 103.042 13.5579 103.453 13.7402C103.867 13.9225 104.191 14.1982 104.423 14.5674C104.66 14.932 104.779 15.39 104.779 15.9414V19.3867C104.779 19.6328 104.799 19.8949 104.84 20.1729C104.886 20.4508 104.952 20.6901 105.039 20.8906V21H103.719C103.655 20.8542 103.605 20.6605 103.569 20.4189C103.532 20.1729 103.514 19.945 103.514 19.7354ZM103.733 16.5156L103.747 17.4043H102.468C102.108 17.4043 101.787 17.4339 101.504 17.4932C101.222 17.5479 100.985 17.6322 100.793 17.7461C100.602 17.86 100.456 18.0036 100.356 18.1768C100.256 18.3454 100.206 18.5436 100.206 18.7715C100.206 19.0039 100.258 19.2158 100.363 19.4072C100.468 19.5986 100.625 19.7513 100.834 19.8652C101.049 19.9746 101.311 20.0293 101.621 20.0293C102.008 20.0293 102.35 19.9473 102.646 19.7832C102.942 19.6191 103.177 19.4186 103.35 19.1816C103.528 18.9447 103.623 18.7145 103.637 18.4912L104.177 19.0996C104.145 19.291 104.059 19.5029 103.917 19.7354C103.776 19.9678 103.587 20.1911 103.35 20.4053C103.118 20.6149 102.84 20.7904 102.516 20.9316C102.197 21.0684 101.837 21.1367 101.436 21.1367C100.935 21.1367 100.495 21.0387 100.117 20.8428C99.7429 20.6468 99.4513 20.3848 99.2416 20.0566C99.0366 19.724 98.934 19.3525 98.934 18.9424C98.934 18.5459 99.0115 18.1973 99.1664 17.8965C99.3214 17.5911 99.5447 17.3382 99.8364 17.1377C100.128 16.9326 100.479 16.7777 100.889 16.6729C101.299 16.568 101.757 16.5156 102.263 16.5156H103.733Z" fill="#181717"/>
</svg>
