<svg width="87" height="18" viewBox="0 0 87 18" fill="none" xmlns="http://www.w3.org/2000/svg">
<path d="M8.3623 12.6201V14H1.96387V12.6201H8.3623ZM2.29785 1.20312V14H0.601562V1.20312H2.29785ZM15.666 12.374V7.47852C15.666 7.10352 15.5898 6.77832 15.4375 6.50293C15.291 6.22168 15.0684 6.00488 14.7695 5.85254C14.4707 5.7002 14.1016 5.62402 13.6621 5.62402C13.252 5.62402 12.8916 5.69434 12.5811 5.83496C12.2764 5.97559 12.0361 6.16016 11.8604 6.38867C11.6904 6.61719 11.6055 6.86328 11.6055 7.12695H9.97949C9.97949 6.78711 10.0674 6.4502 10.2432 6.11621C10.4189 5.78223 10.6709 5.48047 10.999 5.21094C11.333 4.93555 11.7314 4.71875 12.1943 4.56055C12.6631 4.39648 13.1846 4.31445 13.7588 4.31445C14.4502 4.31445 15.0596 4.43164 15.5869 4.66602C16.1201 4.90039 16.5361 5.25488 16.835 5.72949C17.1396 6.19824 17.292 6.78711 17.292 7.49609V11.9258C17.292 12.2422 17.3184 12.5791 17.3711 12.9365C17.4297 13.2939 17.5146 13.6016 17.626 13.8594V14H15.9297C15.8477 13.8125 15.7832 13.5635 15.7363 13.2529C15.6895 12.9365 15.666 12.6436 15.666 12.374ZM15.9473 8.23438L15.9648 9.37695H14.3213C13.8584 9.37695 13.4453 9.41504 13.082 9.49121C12.7188 9.56152 12.4141 9.66992 12.168 9.81641C11.9219 9.96289 11.7344 10.1475 11.6055 10.3701C11.4766 10.5869 11.4121 10.8418 11.4121 11.1348C11.4121 11.4336 11.4795 11.7061 11.6143 11.9521C11.749 12.1982 11.9512 12.3945 12.2207 12.541C12.4961 12.6816 12.833 12.752 13.2314 12.752C13.7295 12.752 14.1689 12.6465 14.5498 12.4355C14.9307 12.2246 15.2324 11.9668 15.4551 11.6621C15.6836 11.3574 15.8066 11.0615 15.8242 10.7744L16.5186 11.5566C16.4775 11.8027 16.3662 12.0752 16.1846 12.374C16.0029 12.6729 15.7598 12.96 15.4551 13.2354C15.1562 13.5049 14.7988 13.7305 14.3828 13.9121C13.9727 14.0879 13.5098 14.1758 12.9941 14.1758C12.3496 14.1758 11.7842 14.0498 11.2979 13.7979C10.8174 13.5459 10.4424 13.209 10.1729 12.7871C9.90918 12.3594 9.77734 11.8818 9.77734 11.3545C9.77734 10.8447 9.87695 10.3965 10.0762 10.0098C10.2754 9.61719 10.5625 9.29199 10.9375 9.03418C11.3125 8.77051 11.7637 8.57129 12.291 8.43652C12.8184 8.30176 13.4072 8.23438 14.0576 8.23438H15.9473ZM21.4756 6.52051V14H19.8496V4.49023H21.3877L21.4756 6.52051ZM21.0889 8.88477L20.4121 8.8584C20.418 8.20801 20.5146 7.60742 20.7021 7.05664C20.8896 6.5 21.1533 6.0166 21.4932 5.60645C21.833 5.19629 22.2373 4.87988 22.7061 4.65723C23.1807 4.42871 23.7051 4.31445 24.2793 4.31445C24.748 4.31445 25.1699 4.37891 25.5449 4.50781C25.9199 4.63086 26.2393 4.83008 26.5029 5.10547C26.7725 5.38086 26.9775 5.73828 27.1182 6.17773C27.2588 6.61133 27.3291 7.1416 27.3291 7.76855V14H25.6943V7.75098C25.6943 7.25293 25.6211 6.85449 25.4746 6.55566C25.3281 6.25098 25.1143 6.03125 24.833 5.89648C24.5518 5.75586 24.2061 5.68555 23.7959 5.68555C23.3916 5.68555 23.0225 5.77051 22.6885 5.94043C22.3604 6.11035 22.0762 6.34473 21.8359 6.64355C21.6016 6.94238 21.417 7.28516 21.2822 7.67188C21.1533 8.05273 21.0889 8.45703 21.0889 8.88477ZM35.793 12.1543V0.5H37.4277V14H35.9336L35.793 12.1543ZM29.3945 9.35059V9.16602C29.3945 8.43945 29.4824 7.78027 29.6582 7.18848C29.8398 6.59082 30.0947 6.07812 30.4229 5.65039C30.7568 5.22266 31.1523 4.89453 31.6094 4.66602C32.0723 4.43164 32.5879 4.31445 33.1562 4.31445C33.7539 4.31445 34.2754 4.41992 34.7207 4.63086C35.1719 4.83594 35.5527 5.1377 35.8633 5.53613C36.1797 5.92871 36.4287 6.40332 36.6104 6.95996C36.792 7.5166 36.918 8.14648 36.9883 8.84961V9.6582C36.9238 10.3555 36.7979 10.9824 36.6104 11.5391C36.4287 12.0957 36.1797 12.5703 35.8633 12.9629C35.5527 13.3555 35.1719 13.6572 34.7207 13.8682C34.2695 14.0732 33.7422 14.1758 33.1387 14.1758C32.582 14.1758 32.0723 14.0557 31.6094 13.8154C31.1523 13.5752 30.7568 13.2383 30.4229 12.8047C30.0947 12.3711 29.8398 11.8613 29.6582 11.2754C29.4824 10.6836 29.3945 10.042 29.3945 9.35059ZM31.0293 9.16602V9.35059C31.0293 9.8252 31.0762 10.2705 31.1699 10.6865C31.2695 11.1025 31.4219 11.4688 31.627 11.7852C31.832 12.1016 32.0928 12.3506 32.4092 12.5322C32.7256 12.708 33.1035 12.7959 33.543 12.7959C34.082 12.7959 34.5244 12.6816 34.8701 12.4531C35.2217 12.2246 35.5029 11.9229 35.7139 11.5479C35.9248 11.1729 36.0889 10.7656 36.2061 10.3262V8.20801C36.1357 7.88574 36.0332 7.5752 35.8984 7.27637C35.7695 6.97168 35.5996 6.70215 35.3887 6.46777C35.1836 6.22754 34.9287 6.03711 34.624 5.89648C34.3252 5.75586 33.9707 5.68555 33.5605 5.68555C33.1152 5.68555 32.7314 5.7793 32.4092 5.9668C32.0928 6.14844 31.832 6.40039 31.627 6.72266C31.4219 7.03906 31.2695 7.4082 31.1699 7.83008C31.0762 8.24609 31.0293 8.69141 31.0293 9.16602ZM45.4961 11.4775C45.4961 11.2432 45.4434 11.0264 45.3379 10.8271C45.2383 10.6221 45.0303 10.4375 44.7139 10.2734C44.4033 10.1035 43.9346 9.95703 43.3076 9.83398C42.7803 9.72266 42.3027 9.59082 41.875 9.43848C41.4531 9.28613 41.0928 9.10156 40.7939 8.88477C40.501 8.66797 40.2754 8.41309 40.1172 8.12012C39.959 7.82715 39.8799 7.48438 39.8799 7.0918C39.8799 6.7168 39.9619 6.3623 40.126 6.02832C40.2959 5.69434 40.5332 5.39844 40.8379 5.14062C41.1484 4.88281 41.5205 4.68066 41.9541 4.53418C42.3877 4.3877 42.8711 4.31445 43.4043 4.31445C44.166 4.31445 44.8164 4.44922 45.3555 4.71875C45.8945 4.98828 46.3076 5.34863 46.5947 5.7998C46.8818 6.24512 47.0254 6.74023 47.0254 7.28516H45.3994C45.3994 7.02148 45.3203 6.7666 45.1621 6.52051C45.0098 6.26855 44.7842 6.06055 44.4854 5.89648C44.1924 5.73242 43.832 5.65039 43.4043 5.65039C42.9531 5.65039 42.5869 5.7207 42.3057 5.86133C42.0303 5.99609 41.8281 6.16895 41.6992 6.37988C41.5762 6.59082 41.5146 6.81348 41.5146 7.04785C41.5146 7.22363 41.5439 7.38184 41.6025 7.52246C41.667 7.65723 41.7783 7.7832 41.9365 7.90039C42.0947 8.01172 42.3174 8.11719 42.6045 8.2168C42.8916 8.31641 43.2578 8.41602 43.7031 8.51562C44.4824 8.69141 45.124 8.90234 45.6279 9.14844C46.1318 9.39453 46.5068 9.69629 46.7529 10.0537C46.999 10.4111 47.1221 10.8447 47.1221 11.3545C47.1221 11.7705 47.0342 12.1514 46.8584 12.4971C46.6885 12.8428 46.4395 13.1416 46.1113 13.3936C45.7891 13.6396 45.4023 13.833 44.9512 13.9736C44.5059 14.1084 44.0049 14.1758 43.4482 14.1758C42.6104 14.1758 41.9014 14.0264 41.3213 13.7275C40.7412 13.4287 40.3018 13.042 40.0029 12.5674C39.7041 12.0928 39.5547 11.5918 39.5547 11.0645H41.1895C41.2129 11.5098 41.3418 11.8643 41.5762 12.1279C41.8105 12.3857 42.0977 12.5703 42.4375 12.6816C42.7773 12.7871 43.1143 12.8398 43.4482 12.8398C43.8936 12.8398 44.2656 12.7812 44.5645 12.6641C44.8691 12.5469 45.1006 12.3857 45.2588 12.1807C45.417 11.9756 45.4961 11.7412 45.4961 11.4775ZM53.0635 12.8398C53.4502 12.8398 53.8076 12.7607 54.1357 12.6025C54.4639 12.4443 54.7334 12.2275 54.9443 11.9521C55.1553 11.6709 55.2754 11.3516 55.3047 10.9941H56.8516C56.8223 11.5566 56.6318 12.0811 56.2803 12.5674C55.9346 13.0479 55.4805 13.4375 54.918 13.7363C54.3555 14.0293 53.7373 14.1758 53.0635 14.1758C52.3486 14.1758 51.7246 14.0498 51.1914 13.7979C50.6641 13.5459 50.2246 13.2002 49.873 12.7607C49.5273 12.3213 49.2666 11.8174 49.0908 11.249C48.9209 10.6748 48.8359 10.0684 48.8359 9.42969V9.06055C48.8359 8.42188 48.9209 7.81836 49.0908 7.25C49.2666 6.67578 49.5273 6.16895 49.873 5.72949C50.2246 5.29004 50.6641 4.94434 51.1914 4.69238C51.7246 4.44043 52.3486 4.31445 53.0635 4.31445C53.8076 4.31445 54.458 4.4668 55.0146 4.77148C55.5713 5.07031 56.0078 5.48047 56.3242 6.00195C56.6465 6.51758 56.8223 7.10352 56.8516 7.75977H55.3047C55.2754 7.36719 55.1641 7.0127 54.9707 6.69629C54.7832 6.37988 54.5254 6.12793 54.1973 5.94043C53.875 5.74707 53.4971 5.65039 53.0635 5.65039C52.5654 5.65039 52.1465 5.75 51.8066 5.94922C51.4727 6.14258 51.2061 6.40625 51.0068 6.74023C50.8135 7.06836 50.6729 7.43457 50.585 7.83887C50.5029 8.2373 50.4619 8.64453 50.4619 9.06055V9.42969C50.4619 9.8457 50.5029 10.2559 50.585 10.6602C50.667 11.0645 50.8047 11.4307 50.998 11.7588C51.1973 12.0869 51.4639 12.3506 51.7979 12.5498C52.1377 12.7432 52.5596 12.8398 53.0635 12.8398ZM64.2871 12.374V7.47852C64.2871 7.10352 64.2109 6.77832 64.0586 6.50293C63.9121 6.22168 63.6895 6.00488 63.3906 5.85254C63.0918 5.7002 62.7227 5.62402 62.2832 5.62402C61.873 5.62402 61.5127 5.69434 61.2021 5.83496C60.8975 5.97559 60.6572 6.16016 60.4814 6.38867C60.3115 6.61719 60.2266 6.86328 60.2266 7.12695H58.6006C58.6006 6.78711 58.6885 6.4502 58.8643 6.11621C59.04 5.78223 59.292 5.48047 59.6201 5.21094C59.9541 4.93555 60.3525 4.71875 60.8154 4.56055C61.2842 4.39648 61.8057 4.31445 62.3799 4.31445C63.0713 4.31445 63.6807 4.43164 64.208 4.66602C64.7412 4.90039 65.1572 5.25488 65.4561 5.72949C65.7607 6.19824 65.9131 6.78711 65.9131 7.49609V11.9258C65.9131 12.2422 65.9395 12.5791 65.9922 12.9365C66.0508 13.2939 66.1357 13.6016 66.2471 13.8594V14H64.5508C64.4688 13.8125 64.4043 13.5635 64.3574 13.2529C64.3105 12.9365 64.2871 12.6436 64.2871 12.374ZM64.5684 8.23438L64.5859 9.37695H62.9424C62.4795 9.37695 62.0664 9.41504 61.7031 9.49121C61.3398 9.56152 61.0352 9.66992 60.7891 9.81641C60.543 9.96289 60.3555 10.1475 60.2266 10.3701C60.0977 10.5869 60.0332 10.8418 60.0332 11.1348C60.0332 11.4336 60.1006 11.7061 60.2354 11.9521C60.3701 12.1982 60.5723 12.3945 60.8418 12.541C61.1172 12.6816 61.4541 12.752 61.8525 12.752C62.3506 12.752 62.79 12.6465 63.1709 12.4355C63.5518 12.2246 63.8535 11.9668 64.0762 11.6621C64.3047 11.3574 64.4277 11.0615 64.4453 10.7744L65.1396 11.5566C65.0986 11.8027 64.9873 12.0752 64.8057 12.374C64.624 12.6729 64.3809 12.96 64.0762 13.2354C63.7773 13.5049 63.4199 13.7305 63.0039 13.9121C62.5938 14.0879 62.1309 14.1758 61.6152 14.1758C60.9707 14.1758 60.4053 14.0498 59.9189 13.7979C59.4385 13.5459 59.0635 13.209 58.7939 12.7871C58.5303 12.3594 58.3984 11.8818 58.3984 11.3545C58.3984 10.8447 58.498 10.3965 58.6973 10.0098C58.8965 9.61719 59.1836 9.29199 59.5586 9.03418C59.9336 8.77051 60.3848 8.57129 60.9121 8.43652C61.4395 8.30176 62.0283 8.23438 62.6787 8.23438H64.5684ZM70.0967 6.31836V17.6562H68.4619V4.49023H69.9561L70.0967 6.31836ZM76.5039 9.16602V9.35059C76.5039 10.042 76.4219 10.6836 76.2578 11.2754C76.0938 11.8613 75.8535 12.3711 75.5371 12.8047C75.2266 13.2383 74.8428 13.5752 74.3857 13.8154C73.9287 14.0557 73.4043 14.1758 72.8125 14.1758C72.209 14.1758 71.6758 14.0762 71.2129 13.877C70.75 13.6777 70.3574 13.3877 70.0352 13.0068C69.7129 12.626 69.4551 12.1689 69.2617 11.6357C69.0742 11.1025 68.9453 10.502 68.875 9.83398V8.84961C68.9453 8.14648 69.0771 7.5166 69.2705 6.95996C69.4639 6.40332 69.7188 5.92871 70.0352 5.53613C70.3574 5.1377 70.7471 4.83594 71.2041 4.63086C71.6611 4.41992 72.1885 4.31445 72.7861 4.31445C73.3838 4.31445 73.9141 4.43164 74.377 4.66602C74.8398 4.89453 75.2295 5.22266 75.5459 5.65039C75.8623 6.07812 76.0996 6.59082 76.2578 7.18848C76.4219 7.78027 76.5039 8.43945 76.5039 9.16602ZM74.8691 9.35059V9.16602C74.8691 8.69141 74.8193 8.24609 74.7197 7.83008C74.6201 7.4082 74.4648 7.03906 74.2539 6.72266C74.0488 6.40039 73.7852 6.14844 73.4629 5.9668C73.1406 5.7793 72.7568 5.68555 72.3115 5.68555C71.9014 5.68555 71.5439 5.75586 71.2393 5.89648C70.9404 6.03711 70.6855 6.22754 70.4746 6.46777C70.2637 6.70215 70.0908 6.97168 69.9561 7.27637C69.8271 7.5752 69.7305 7.88574 69.666 8.20801V10.4844C69.7832 10.8945 69.9473 11.2812 70.1582 11.6445C70.3691 12.002 70.6504 12.292 71.002 12.5146C71.3535 12.7314 71.7959 12.8398 72.3291 12.8398C72.7686 12.8398 73.1465 12.749 73.4629 12.5674C73.7852 12.3799 74.0488 12.125 74.2539 11.8027C74.4648 11.4805 74.6201 11.1113 74.7197 10.6953C74.8193 10.2734 74.8691 9.8252 74.8691 9.35059ZM82.5244 14.1758C81.8623 14.1758 81.2617 14.0645 80.7227 13.8418C80.1895 13.6133 79.7295 13.2939 79.3428 12.8838C78.9619 12.4736 78.6689 11.9873 78.4639 11.4248C78.2588 10.8623 78.1562 10.2471 78.1562 9.5791V9.20996C78.1562 8.43652 78.2705 7.74805 78.499 7.14453C78.7275 6.53516 79.0381 6.01953 79.4307 5.59766C79.8232 5.17578 80.2686 4.85645 80.7666 4.63965C81.2646 4.42285 81.7803 4.31445 82.3135 4.31445C82.9932 4.31445 83.5791 4.43164 84.0713 4.66602C84.5693 4.90039 84.9766 5.22852 85.293 5.65039C85.6094 6.06641 85.8438 6.55859 85.9961 7.12695C86.1484 7.68945 86.2246 8.30469 86.2246 8.97266V9.70215H79.123V8.375H84.5986V8.25195C84.5752 7.83008 84.4873 7.41992 84.335 7.02148C84.1885 6.62305 83.9541 6.29492 83.6318 6.03711C83.3096 5.7793 82.8701 5.65039 82.3135 5.65039C81.9443 5.65039 81.6045 5.72949 81.2939 5.8877C80.9834 6.04004 80.7168 6.26855 80.4941 6.57324C80.2715 6.87793 80.0986 7.25 79.9756 7.68945C79.8525 8.12891 79.791 8.63574 79.791 9.20996V9.5791C79.791 10.0303 79.8525 10.4551 79.9756 10.8535C80.1045 11.2461 80.2891 11.5918 80.5293 11.8906C80.7754 12.1895 81.0713 12.4238 81.417 12.5938C81.7686 12.7637 82.167 12.8486 82.6123 12.8486C83.1865 12.8486 83.6729 12.7314 84.0713 12.4971C84.4697 12.2627 84.8184 11.9492 85.1172 11.5566L86.1016 12.3389C85.8965 12.6494 85.6357 12.9453 85.3193 13.2266C85.0029 13.5078 84.6133 13.7363 84.1504 13.9121C83.6934 14.0879 83.1514 14.1758 82.5244 14.1758Z" fill="black"/>
</svg>
